<svg width="100" height="28" viewBox="0 0 100 28" fill="none" xmlns="http://www.w3.org/2000/svg">
<g clip-path="url(#clip0_1660_9196)">
<mask id="mask0_1660_9196" style="mask-type:luminance" maskUnits="userSpaceOnUse" x="2" y="0" width="28" height="28">
<path fill-rule="evenodd" clip-rule="evenodd" d="M9.29276 0.0125585L10.4717 0L22.7349 0.00502405C22.9211 0.00669859 23.0372 0.00920946 23.1524 0.0125585C23.7603 0.0284667 24.374 0.0636324 24.9752 0.17164C25.5774 0.273526 26.1612 0.464259 26.7077 0.737635C27.2521 1.01226 27.7514 1.37061 28.1831 1.80013C28.615 2.22761 28.9766 2.72102 29.2544 3.262C29.5383 3.81209 29.7161 4.37557 29.8255 4.98008C29.934 5.57622 29.9699 6.18408 29.9858 6.78691C29.9942 7.06321 29.9975 7.33951 29.9983 7.61664L30 8.1098V19.0253C30 19.3535 30 19.6825 29.9983 20.0116C29.9967 20.2879 29.9942 20.5642 29.9858 20.8405C29.9691 21.4433 29.934 22.052 29.8255 22.6473C29.7225 23.2456 29.5299 23.8248 29.2544 24.3654C28.9764 24.9065 28.6148 25.4002 28.1831 25.8281C27.7498 26.2575 27.2519 26.616 26.7077 26.8906C26.1612 27.164 25.5774 27.3547 24.9752 27.4566C24.374 27.5638 23.7603 27.5989 23.1524 27.6157L21.3205 27.6299L9.70941 27.6232C9.5705 27.6217 9.43161 27.6189 9.29276 27.6148C8.6849 27.5998 8.07119 27.5638 7.47002 27.4566C6.86808 27.3547 6.2845 27.1639 5.73829 26.8906C4.64494 26.3388 3.75314 25.4551 3.18996 24.3654C2.91482 23.8246 2.7223 23.2455 2.61884 22.6473C2.5103 22.052 2.47523 21.4433 2.45937 20.8413C2.45102 20.565 2.44851 20.2879 2.44684 20.0116L2.44434 19.5168V8.60295C2.44434 8.27474 2.44434 7.94569 2.44684 7.61748C2.44851 7.34118 2.45185 7.06488 2.45937 6.78775C2.47606 6.18491 2.51113 5.57705 2.61884 4.98092C2.72224 4.38275 2.91476 3.80358 3.18996 3.26284C3.75232 2.17278 4.64398 1.28893 5.73746 0.737635C6.28395 0.464248 6.8678 0.273514 7.47002 0.17164C8.07119 0.0644697 8.6849 0.0293039 9.29276 0.0125585Z" fill="white"/>
</mask>
<g mask="url(#mask0_1660_9196)">
<path d="M-15.9248 -15.0767H78.2855V79.3931H-15.9248V-15.0767Z" fill="#19AA1E"/>
<path fill-rule="evenodd" clip-rule="evenodd" d="M-15.9248 -15.0767H78.2855V15.9181L-15.9248 1.15922V-15.0767Z" fill="#FFB919"/>
<path fill-rule="evenodd" clip-rule="evenodd" d="M-15.9248 -0.707031L16.9602 4.4454C21.0536 1.84629 25.9236 0.420781 31.1789 0.420781C38.4581 0.420781 45.0009 3.15443 49.7623 7.95191C50.3618 8.55875 50.927 9.19136 51.4608 9.84972L78.2855 14.0518V17.7873L54.1841 14.0089C55.9879 17.4668 56.9329 21.3101 56.9388 25.2126C56.9388 30.2734 55.8112 35.3199 53.4762 40.3865L53.4076 40.541L52.4142 42.6707H50.0735C45.2321 42.6707 42.0235 44.122 39.9225 46.6953C38.2754 48.7133 37.322 51.4384 37.0023 54.4096L36.9909 54.5012L36.9452 54.9764L36.9252 55.1825L36.8852 55.5861C36.7625 56.9143 36.6826 58.0392 36.6397 58.9552L78.2855 52.4288V56.1643L-15.9248 70.926V67.1905L25.7666 60.6584L25.7495 59.8197L25.7437 59.585L25.738 59.4619L25.7323 59.2758C25.6952 58.2597 25.601 56.9572 25.4526 55.3772L25.424 55.0766L25.3726 54.5585C25.0758 51.5701 24.1366 48.8135 22.4895 46.764C20.4142 44.1735 17.237 42.6993 12.4328 42.6707H9.94355L8.95301 40.541C6.57227 35.4229 5.41901 30.3249 5.41901 25.2126C5.41901 18.7835 8.01956 12.5662 12.5983 7.95191L12.998 7.55976L-15.9248 3.02562V-0.707031Z" fill="white"/>
<path fill-rule="evenodd" clip-rule="evenodd" d="M31.1809 4.11035C44.3349 4.11035 53.2612 14.2606 53.2612 25.2124C53.2612 29.6092 52.3049 34.1834 50.0726 38.9808C37.1327 38.9808 33.9384 48.2724 33.3333 54.1233L33.2933 54.5097C33.0906 56.5993 32.9707 58.2738 32.9393 59.5333L29.4339 60.0829V59.9684C29.3851 58.1082 29.2594 56.2507 29.0571 54.4009L29.0485 54.2979C28.489 48.4613 25.3632 38.9808 12.292 38.9808C10.0569 34.1834 9.10059 29.6092 9.10059 25.2124C9.10059 14.2606 18.0298 4.11035 31.1809 4.11035Z" fill="#0073FA"/>
</g>
<path fill-rule="evenodd" clip-rule="evenodd" d="M42.1811 5.09082C37.8793 5.09082 34.6538 7.65579 34.6808 12.1103H38.6789C38.6239 10.3285 39.7815 8.60015 42.1811 8.60015C44.0004 8.60015 45.1588 9.78803 45.1588 11.3C45.1588 12.8663 43.8895 13.7301 41.8503 14.7025C39.1756 15.9709 37.5764 16.5649 34.6808 17.5092V22.6392H49.5698V19.129H40.0852C41.467 18.5648 42.8124 17.9454 44.0283 17.3743C47.2538 15.8632 49.156 14.162 49.156 11.1117C49.156 7.43943 46.3442 5.09082 42.1811 5.09082ZM55.6358 8.86997H63.3561V5.36064H51.7757V22.6392H55.6358V8.86997ZM69.4222 5.36064H65.5621V22.6392H69.3943L76.5908 11.597V22.6392H80.451V5.36064H76.5908L69.4222 16.4028V5.36064ZM99.8347 16.1593H95.8366C95.2299 18.0769 93.3828 19.3997 91.2048 19.3997C88.0334 19.3997 85.9654 16.7269 85.9654 13.9999C85.9654 11.2729 87.9784 8.60015 91.3148 8.60015C93.5207 8.60015 95.2299 9.92379 95.8366 11.8405H99.8347C99.2559 7.97991 96.1404 5.09082 91.2048 5.09082C85.7454 5.09082 82.1052 8.84367 82.1052 13.9999C82.1052 19.1562 85.7454 22.909 91.2048 22.909C96.1404 22.909 99.2559 20.0751 99.8347 16.1593Z" fill="#262626"/>
</g>
<defs>
<clipPath id="clip0_1660_9196">
<rect width="100" height="28" fill="white"/>
</clipPath>
</defs>
</svg>
