<svg width="80" height="80" viewBox="0 0 80 80" fill="none" xmlns="http://www.w3.org/2000/svg">
<g clip-path="url(#clip0_2007_900)">
<path d="M8.14941 14.6133V70.3392C8.15054 71.3901 8.56851 72.3976 9.31161 73.1407C10.0547 73.8838 11.0622 74.3018 12.1131 74.3029H51.1126C51.3248 74.3029 51.5283 74.2186 51.6783 74.0686C51.8283 73.9186 51.9126 73.7151 51.9126 73.5029C51.9126 73.2907 51.8283 73.0872 51.6783 72.9372C51.5283 72.7872 51.3248 72.7029 51.1126 72.7029H12.1131C11.4864 72.7023 10.8855 72.4531 10.4424 72.01C9.9992 71.5668 9.74998 70.9659 9.74941 70.3392V14.6133C9.74941 13.3098 10.8097 12.2506 12.1131 12.2506H19.0081C19.2203 12.2506 19.4237 12.1663 19.5738 12.0163C19.7238 11.8663 19.8081 11.6628 19.8081 11.4506C19.8081 11.2385 19.7238 11.035 19.5738 10.8849C19.4237 10.7349 19.2203 10.6506 19.0081 10.6506H12.1131C11.0623 10.6515 10.0548 11.0692 9.31168 11.8121C8.56855 12.5551 8.15054 13.5625 8.14941 14.6133ZM56.0897 45.0314C56.3019 45.0314 56.5053 44.9472 56.6554 44.7971C56.8054 44.6471 56.8897 44.4436 56.8897 44.2314V14.6133C56.8888 13.5626 56.4711 12.5552 55.7281 11.8122C54.9851 11.0692 53.9777 10.6515 52.927 10.6506H46.1355C45.9234 10.6506 45.7199 10.7349 45.5699 10.8849C45.4198 11.035 45.3355 11.2385 45.3355 11.4506C45.3355 11.6628 45.4198 11.8663 45.5699 12.0163C45.7199 12.1663 45.9234 12.2506 46.1355 12.2506H52.927C54.2305 12.2506 55.2897 13.3098 55.2897 14.6133V44.2314C55.2897 44.6741 55.6481 45.0314 56.0897 45.0314Z" fill="#313131"/>
<path d="M16.8214 18.8725C17.0336 18.8725 17.2371 18.7883 17.3871 18.6382C17.5372 18.4882 17.6214 18.2847 17.6214 18.0725C17.6214 17.8604 17.5372 17.6569 17.3871 17.5069C17.2371 17.3568 17.0336 17.2725 16.8214 17.2725C15.039 17.2725 13.5884 18.7477 13.5884 20.5611V64.3904C13.5884 66.2048 15.039 67.68 16.8214 67.68H46.3361C46.5483 67.68 46.7518 67.5957 46.9018 67.4457C47.0518 67.2957 47.1361 67.0922 47.1361 66.88C47.1361 66.6678 47.0518 66.4644 46.9018 66.3143C46.7518 66.1643 46.5483 66.08 46.3361 66.08H16.8214C15.9212 66.08 15.1884 65.3227 15.1884 64.3915V20.5611C15.1884 19.6299 15.9212 18.8725 16.8214 18.8725ZM50.6518 45.8133C50.864 45.8133 51.0675 45.7291 51.2175 45.579C51.3676 45.429 51.4518 45.2255 51.4518 45.0133V20.4448C51.4518 18.6965 50.0012 17.2736 48.2177 17.2736C48.0055 17.2736 47.8021 17.3579 47.652 17.5079C47.502 17.6579 47.4177 17.8614 47.4177 18.0736C47.4177 18.2858 47.502 18.4893 47.652 18.6393C47.8021 18.7893 48.0055 18.8736 48.2177 18.8736C49.119 18.8736 49.8518 19.5776 49.8518 20.4448V45.0133C49.8518 45.4549 50.2102 45.8133 50.6518 45.8133ZM21.1041 11.2512V15.8165C21.1041 16.2592 21.4625 16.6165 21.9041 16.6165H43.1361C43.3483 16.6165 43.5518 16.5323 43.7018 16.3822C43.8518 16.2322 43.9361 16.0287 43.9361 15.8165V11.2512C43.935 10.2887 43.552 9.36589 42.8713 8.68537C42.1906 8.00485 41.2677 7.62218 40.3052 7.62134H38.5985C38.3863 7.62134 38.1829 7.70562 38.0328 7.85565C37.8828 8.00568 37.7985 8.20916 37.7985 8.42134C37.7985 8.63351 37.8828 8.83699 38.0328 8.98702C38.1829 9.13705 38.3863 9.22134 38.5985 9.22134H40.3052C41.4252 9.22134 42.3361 10.1323 42.3361 11.2512V15.0165H22.7041V11.2512C22.7041 10.1312 23.615 9.22134 24.735 9.22134H26.4353C26.6475 9.22134 26.851 9.13705 27.001 8.98702C27.151 8.83699 27.2353 8.63351 27.2353 8.42134C27.2353 8.20916 27.151 8.00568 27.001 7.85565C26.851 7.70562 26.6475 7.62134 26.4353 7.62134H24.7361C23.7736 7.62218 22.8507 8.00485 22.17 8.68537C21.4892 9.36589 21.1052 10.2887 21.1041 11.2512Z" fill="#2291FF"/>
<path d="M32.5205 5.06665C30.4853 5.06665 28.8298 6.72212 28.8298 8.75732C28.8298 10.7925 30.4853 12.4459 32.5205 12.4459C34.5546 12.4459 36.209 10.7915 36.209 8.75732C36.209 6.72318 34.5546 5.06665 32.5205 5.06665ZM32.5205 10.8459C31.3685 10.8459 30.4298 9.90932 30.4298 8.75732C30.4298 7.60532 31.3685 6.66665 32.5205 6.66665C33.6725 6.66665 34.609 7.60532 34.609 8.75732C34.609 9.90932 33.6725 10.8459 32.5205 10.8459ZM45.936 47.0101C45.936 46.7979 45.8517 46.5945 45.7017 46.4444C45.5516 46.2944 45.3482 46.2101 45.136 46.2101H27.12C26.9078 46.2101 26.7043 46.2944 26.5543 46.4444C26.4043 46.5945 26.32 46.7979 26.32 47.0101C26.32 47.2223 26.4043 47.4258 26.5543 47.5758C26.7043 47.7258 26.9078 47.8101 27.12 47.8101H45.136C45.3482 47.8101 45.5516 47.7258 45.7017 47.5758C45.8517 47.4258 45.936 47.2223 45.936 47.0101ZM26.7413 55.0933C26.5291 55.0933 26.3257 55.1776 26.1756 55.3276C26.0256 55.4777 25.9413 55.6811 25.9413 55.8933C25.9413 56.1055 26.0256 56.309 26.1756 56.459C26.3257 56.609 26.5291 56.6933 26.7413 56.6933H44.7573C44.9695 56.6933 45.173 56.609 45.323 56.459C45.473 56.309 45.5573 56.1055 45.5573 55.8933C45.5573 55.6811 45.473 55.4777 45.323 55.3276C45.173 55.1776 44.9695 55.0933 44.7573 55.0933H26.7413ZM44.8117 37.2309H26.784C26.5718 37.2309 26.3683 37.3152 26.2183 37.4652C26.0683 37.6153 25.984 37.8187 25.984 38.0309C25.984 38.2431 26.0683 38.4466 26.2183 38.5966C26.3683 38.7466 26.5718 38.8309 26.784 38.8309H44.8106C45.0228 38.8309 45.2263 38.7466 45.3763 38.5966C45.5264 38.4466 45.6106 38.2431 45.6106 38.0309C45.6106 37.8187 45.5264 37.6153 45.3763 37.4652C45.2263 37.3152 45.0228 37.2309 44.8106 37.2309H44.8117ZM20.176 47.8101H23.649C23.8612 47.8101 24.0647 47.7258 24.2147 47.5758C24.3648 47.4258 24.449 47.2223 24.449 47.0101C24.449 46.7979 24.3648 46.5945 24.2147 46.4444C24.0647 46.2944 23.8612 46.2101 23.649 46.2101H20.176C19.9638 46.2101 19.7603 46.2944 19.6103 46.4444C19.4603 46.5945 19.376 46.7979 19.376 47.0101C19.376 47.2223 19.4603 47.4258 19.6103 47.5758C19.7603 47.7258 19.9638 47.8101 20.176 47.8101ZM20.176 56.6933H23.2714C23.4836 56.6933 23.6871 56.609 23.8371 56.459C23.9872 56.309 24.0714 56.1055 24.0714 55.8933C24.0714 55.6811 23.9872 55.4777 23.8371 55.3276C23.6871 55.1776 23.4836 55.0933 23.2714 55.0933H20.176C19.9638 55.0933 19.7603 55.1776 19.6103 55.3276C19.4603 55.4777 19.376 55.6811 19.376 55.8933C19.376 56.1055 19.4603 56.309 19.6103 56.459C19.7603 56.609 19.9638 56.6933 20.176 56.6933ZM19.4282 38.0309C19.4282 38.4725 19.7866 38.8309 20.2282 38.8309H23.3248C23.537 38.8309 23.7404 38.7466 23.8905 38.5966C24.0405 38.4466 24.1248 38.2431 24.1248 38.0309C24.1248 37.8187 24.0405 37.6153 23.8905 37.4652C23.7404 37.3152 23.537 37.2309 23.3248 37.2309H20.2282C20.0161 37.2309 19.8126 37.3152 19.6626 37.4652C19.5125 37.6153 19.4282 37.8187 19.4282 38.0309ZM26.3445 26.6944C26.3465 26.9053 26.4316 27.1068 26.5814 27.2553C26.7313 27.4037 26.9336 27.4869 27.1445 27.4869H27.1509L31.121 27.4517L29.1242 30.8832C29.0176 31.0666 28.9882 31.285 29.0425 31.4901C29.0968 31.6952 29.2304 31.8704 29.4138 31.9771C29.5973 32.0837 29.8156 32.1131 30.0208 32.0588C30.2259 32.0045 30.4011 31.8709 30.5077 31.6875L32.5205 28.2293L34.5322 31.6875C34.6389 31.8709 34.8141 32.0045 35.0192 32.0588C35.2243 32.1131 35.4427 32.0837 35.6261 31.9771C35.8096 31.8704 35.9431 31.6952 35.9975 31.4901C36.0518 31.285 36.0224 31.0666 35.9157 30.8832L33.904 27.4272L37.904 27.3899C38.3445 27.3856 38.6997 27.0251 38.6965 26.5835C38.6933 26.1419 38.3434 25.8069 37.889 25.7899L33.9189 25.8261L35.9157 22.3947C36.0224 22.2112 36.0518 21.9929 35.9975 21.7877C35.9431 21.5826 35.8096 21.4074 35.6261 21.3008C35.4427 21.1941 35.2243 21.1647 35.0192 21.219C34.8141 21.2733 34.6389 21.4069 34.5322 21.5904L32.5205 25.0485L30.5066 21.5893C30.4538 21.4985 30.3837 21.4189 30.3001 21.3552C30.2165 21.2915 30.1213 21.2449 30.0197 21.218C29.9181 21.1911 29.8122 21.1845 29.7081 21.1985C29.604 21.2125 29.5036 21.2469 29.4128 21.2997C29.3219 21.3525 29.2424 21.4227 29.1787 21.5063C29.115 21.5898 29.0683 21.6851 29.0414 21.7867C29.0145 21.8882 29.0079 21.9941 29.0219 22.0983C29.036 22.2024 29.0704 22.3027 29.1232 22.3936L31.1349 25.8496L27.1349 25.8859C26.9229 25.8881 26.7205 25.9744 26.5721 26.1258C26.4237 26.2772 26.3415 26.4813 26.3434 26.6933L26.3445 26.6944ZM65.232 57.3227C65.1659 57.2409 65.0843 57.1731 64.9919 57.1229C64.8996 57.0728 64.7982 57.0414 64.6937 57.0305C64.5891 57.0196 64.4835 57.0294 64.3827 57.0594C64.282 57.0894 64.1882 57.139 64.1066 57.2053L57.3482 62.6933L54.801 59.8069C54.7316 59.7281 54.6473 59.6638 54.5529 59.6176C54.4586 59.5714 54.356 59.5442 54.2512 59.5376C54.1464 59.531 54.0412 59.5452 53.9419 59.5792C53.8425 59.6132 53.7508 59.6665 53.672 59.736C53.5932 59.8055 53.5289 59.8898 53.4826 59.9841C53.4364 60.0785 53.4093 60.181 53.4027 60.2858C53.3961 60.3907 53.4102 60.4958 53.4443 60.5952C53.4783 60.6946 53.5316 60.7863 53.601 60.8651L56.656 64.3275C56.7926 64.4826 56.984 64.5787 57.19 64.5958C57.3961 64.6129 57.6007 64.5496 57.761 64.4192L65.1146 58.448C65.1962 58.3818 65.264 58.3002 65.3141 58.2078C65.3641 58.1155 65.3955 58.0141 65.4064 57.9096C65.4173 57.8051 65.4075 57.6995 65.3776 57.5988C65.3476 57.4981 65.2982 57.4042 65.232 57.3227Z" fill="#313131"/>
<path d="M59.8186 74.8981C60.7647 74.6069 61.8421 74.0266 63.0197 73.1754C69.4655 68.5215 71.4389 61.7642 71.8495 53.8943C71.8601 53.6854 71.7884 53.4806 71.6499 53.3239C71.5113 53.1672 71.3168 53.071 71.1082 53.0559C68.1919 52.8447 67.1349 49.0303 67.1242 48.9919C67.0832 48.8391 66.998 48.7019 66.8792 48.5975C66.7603 48.4931 66.6132 48.4262 66.4565 48.4053C61.4218 47.7386 52.8362 48.3733 52.4725 48.401C52.3136 48.4133 52.162 48.4726 52.037 48.5714C51.912 48.6702 51.8193 48.804 51.7706 48.9557C50.5429 52.8149 47.7877 53.1978 47.6778 53.2117C47.4737 53.2332 47.2858 53.3324 47.1528 53.4886C47.0198 53.6449 46.9519 53.8463 46.9631 54.0511C47.4005 61.8058 49.6266 68.6463 55.9615 73.1893C56.7295 73.7397 58.9162 75.1701 59.8175 74.8981H59.8186ZM56.8959 71.8901C51.1679 67.7834 49.1178 61.6767 48.6037 54.6282C49.7525 54.2645 51.9178 53.169 53.1167 49.9605C54.9973 49.8378 61.5317 49.4677 65.7461 49.9317C66.1727 51.1135 67.4495 53.8922 70.2026 54.5333C69.6479 61.5765 68.0863 67.5434 62.0821 71.8783C61.1199 72.5738 60.2581 73.0559 59.5157 73.3141C59.2351 73.2458 58.3989 72.9685 56.8949 71.889L56.8959 71.8901Z" fill="#313131"/>
</g>
<defs>
<clipPath id="clip0_2007_900">
<rect width="80" height="80" fill="white"/>
</clipPath>
</defs>
</svg>
