<svg width="80" height="80" viewBox="0 0 80 80" fill="none" xmlns="http://www.w3.org/2000/svg">
<g clip-path="url(#clip0_2007_1181)">
<path d="M42.3074 17.4816C43.2183 16.816 43.0509 17.2918 43.0487 21.1744V21.8336C43.0487 23.0976 43.7954 23.856 45.0487 23.8603C46.4322 23.8656 47.8157 23.8646 49.2002 23.8603C50.7682 23.8571 51.2983 22.6955 50.6679 21.7088C50.5847 21.5787 50.5111 21.4827 50.2722 21.1734C49.7879 20.5099 49.7954 19.5894 50.2893 19.0795C51.3901 17.9403 53.0818 18.4288 53.5458 19.3056C54.2253 20.5888 53.2098 21.2683 52.8855 21.951C52.5367 22.6838 52.8653 23.4624 53.6397 23.7152C54.2509 23.9126 58.1794 23.8688 58.7543 23.8582C59.853 23.8368 60.589 23.1062 60.6295 21.9968C60.6349 21.8262 60.637 10.2827 60.6285 8.40536C60.6221 7.22776 59.8679 6.46082 58.7053 6.45336C57.4914 6.44589 46.1378 6.44802 44.9858 6.45656C43.9159 6.46509 43.0519 7.13496 43.0487 8.41602C43.053 13.2971 43.2279 13.5104 42.2125 12.7606C40.0994 11.1915 37.3239 12.6486 37.5191 15.4272C37.6781 17.7024 40.0471 19.1136 42.3074 17.4816ZM41.2823 14.063C41.4743 14.2059 41.6941 14.367 41.9543 14.4939C42.9933 14.9984 44.1623 14.4971 44.4919 13.3974C44.6178 12.975 44.6391 12.5472 44.6423 12.2198C44.6807 8.35842 44.5741 8.18989 44.7469 8.10562C44.8262 8.07251 44.9115 8.05581 44.9975 8.05656C45.1575 8.05549 57.0829 8.04269 58.6946 8.05336C58.9591 8.05549 59.0263 8.09069 59.0285 8.41282C59.0391 10.5888 59.0327 21.6875 59.0306 21.9414C59.0199 22.2091 58.9485 22.2539 58.7213 22.2582C58.2679 22.2688 54.9879 22.2667 54.5954 22.2582C55.4946 21.0848 55.6205 19.8048 54.9602 18.5568C54.0045 16.7531 51.0263 16.0171 49.1394 17.967C48.1037 19.0379 48.0354 20.8214 48.9794 22.1163L49.0893 22.2614C47.7442 22.2635 46.3991 22.2656 45.0551 22.2614C44.6935 22.2592 44.6477 22.2358 44.6477 21.8347C44.6541 18.4246 44.6605 17.6864 44.5837 17.2438C44.333 15.8208 42.909 15.1958 41.693 15.9627C41.4701 16.1014 41.3314 16.2198 41.1703 16.3254C40.2263 16.9472 39.1927 16.4352 39.1138 15.3142C39.0199 13.9584 40.1826 13.248 41.2823 14.063ZM14.0343 43.4283C14.909 44.6016 15.7954 45.7654 16.6861 46.927C16.748 47.0153 16.8271 47.0902 16.9188 47.1472C17.0104 47.2042 17.1126 47.242 17.2192 47.2585C17.3258 47.2749 17.4347 47.2696 17.5392 47.2429C17.6438 47.2162 17.7418 47.1686 17.8275 47.103C17.9131 47.0375 17.9847 46.9552 18.0377 46.8613C18.0908 46.7673 18.1243 46.6636 18.1363 46.5564C18.1482 46.4492 18.1383 46.3407 18.1073 46.2373C18.0762 46.134 18.0245 46.0381 17.9554 45.9552C15.0946 42.2208 15.2215 42.3552 15.1927 42.2208C15.1554 42.0246 14.6551 42.4907 26.4759 33.5104C26.8237 33.248 26.8919 33.2811 27.1245 33.5851C27.9828 34.7078 28.8372 35.8335 29.6877 36.9622H29.4402C27.7933 36.9931 26.3767 38.1568 26.1442 39.6683C25.7175 42.4416 28.1943 44.4096 30.2434 44.0704C31.6898 43.8336 32.6647 42.9206 33.0594 41.4304L33.0637 41.4155C33.1458 41.5222 35.1607 44.1483 35.6845 44.8683C35.8306 45.0688 35.8413 45.1734 35.6237 45.3515C35.3997 45.5243 26.2349 52.4886 24.4407 53.8358C24.1485 54.0555 24.0631 53.999 23.8957 53.7803C23.8316 53.6969 23.7518 53.627 23.6608 53.5745C23.5698 53.522 23.4693 53.488 23.3651 53.4743C23.2609 53.4606 23.155 53.4676 23.0535 53.4949C22.952 53.5221 22.8569 53.5691 22.7735 53.6331C22.6902 53.6971 22.6203 53.7769 22.5678 53.868C22.5153 53.959 22.4812 54.0595 22.4675 54.1637C22.4539 54.2679 22.4608 54.3737 22.4881 54.4752C22.5153 54.5767 22.5623 54.6719 22.6263 54.7552C23.3517 55.6982 24.4418 55.8358 25.4018 55.1147C27.2045 53.76 36.5293 46.6774 36.6231 46.6006C37.4999 45.8838 37.6386 44.8342 36.9783 43.9264C36.9005 43.8198 34.2637 40.2176 33.661 39.8016C32.989 39.3323 32.157 39.5414 31.7773 40.2742C31.4167 40.9675 31.4935 42.2443 29.9853 42.4918C28.9517 42.6571 27.4711 41.5616 27.725 39.9126C27.8391 39.1712 28.6061 38.5782 29.4711 38.5611C29.7826 38.5632 29.9725 38.5675 30.1602 38.5526C31.3911 38.4534 31.9319 37.2736 30.9943 36.0384C30.1318 34.8934 29.2653 33.7513 28.3949 32.6123C27.6183 31.5958 26.5389 31.4539 25.5085 32.2358L17.5554 38.2646C16.8301 38.8267 16.1314 39.3547 14.4333 40.6432C13.3901 41.4358 13.3815 42.5526 14.0343 43.4283ZM36.445 8.32642C36.4215 7.22776 35.6919 6.49176 34.5837 6.45229C34.4183 6.44696 22.8791 6.44376 20.9911 6.45229C19.8125 6.45869 19.0466 7.21389 19.0391 8.37656C19.0317 9.64696 19.0338 20.9974 19.0423 22.096C19.0509 23.1606 19.7165 24.0299 21.0018 24.0331C25.0829 24.0288 25.1821 24.0192 25.5245 24.1227C25.8583 24.223 25.5778 24.5579 25.3463 24.8694C23.7794 26.9846 25.2375 29.7622 28.0119 29.5627C30.2775 29.4048 31.7111 27.0304 30.0663 24.7734C30.0109 24.6966 29.9533 24.6198 29.9031 24.5387C29.6066 24.0651 30.1293 24.0384 30.6893 24.0352C31.6407 24.032 33.4754 24.0331 34.4194 24.0331C35.6834 24.0331 36.4418 23.2864 36.4461 22.032C36.4514 20.6486 36.4514 19.2651 36.4461 17.8816C36.4429 16.3115 35.2813 15.7835 34.2957 16.4128C34.1463 16.5088 34.0183 16.6102 33.7591 16.8096C33.0967 17.2928 32.1773 17.2864 31.6653 16.7915C30.5165 15.68 31.0253 13.9936 31.8914 13.536C33.6877 12.5824 34.1581 14.8566 35.6034 14.2379C36.2434 13.9627 36.4333 13.2416 36.445 12.543C36.4557 11.9136 36.4525 11.2886 36.4493 10.303C36.4525 9.50189 36.4557 8.87896 36.445 8.32642ZM34.845 12.4864C33.6706 11.5862 32.3895 11.4614 31.1437 12.1216C29.341 13.0752 28.5997 16.0512 30.5527 17.9424C31.6237 18.9782 33.4082 19.0464 34.7021 18.1024L34.8471 17.9915C34.8514 19.3366 34.8514 20.6816 34.8471 22.0267C34.845 22.3872 34.8215 22.4331 34.4205 22.4331C31.1725 22.4182 30.3245 22.4118 29.8306 22.4982C28.4077 22.7488 27.7826 24.1696 28.5474 25.3888C28.6882 25.615 28.8034 25.7451 28.9122 25.9115C29.5351 26.8534 29.0221 27.8891 27.8999 27.967C27.2429 28.0128 26.8087 27.8315 26.4962 27.3782C26.1943 26.9387 26.2466 26.3424 26.6487 25.7995C26.7917 25.6075 26.9538 25.3867 27.0797 25.1275C27.3239 24.6262 27.341 24.063 27.1287 23.5808C26.7213 22.6528 25.8125 22.448 24.8055 22.4395C20.9922 22.4032 20.7746 22.5067 20.6925 22.336C20.6586 22.2561 20.6416 22.17 20.6423 22.0832C20.6423 21.9659 20.6295 9.91896 20.6391 8.38722C20.6413 8.12162 20.6775 8.05442 20.9986 8.05336C23.2002 8.04269 34.2807 8.04909 34.5271 8.05122C34.7959 8.06082 34.8397 8.13336 34.845 8.36056C34.8557 8.85442 34.8503 12.1504 34.845 12.4854V12.4864ZM6.54952 67.7707L6.25726 69.84C6.18877 70.33 6.31739 70.8272 6.61493 71.2225C6.91247 71.6178 7.35463 71.879 7.84446 71.9488C17.6621 73.3291 17.1202 73.2758 17.373 73.2758C18.2871 73.2758 19.0893 72.6016 19.2205 71.6704L19.5127 69.6011C19.5812 69.1109 19.4524 68.6136 19.1547 68.2183C18.8569 67.8229 18.4145 67.5618 17.9245 67.4923L8.65832 66.1835C8.16822 66.1144 7.67074 66.2428 7.27529 66.5405C6.87984 66.8381 6.61878 67.2806 6.54952 67.7707ZM8.13352 67.9947C8.1425 67.9312 8.17409 67.873 8.22248 67.8309C8.27087 67.7888 8.33283 67.7655 8.39699 67.7654C8.50579 67.7654 9.31219 67.8934 17.7015 69.0774C17.7713 69.0874 17.8343 69.1247 17.8767 69.1811C17.9191 69.2374 17.9374 69.3083 17.9277 69.3782L17.6354 71.4475C17.6246 71.5169 17.5871 71.5794 17.5309 71.6216C17.4747 71.6639 17.4043 71.6825 17.3346 71.6736L8.06846 70.3648C7.99845 70.355 7.9352 70.3179 7.8926 70.2615C7.84999 70.205 7.83153 70.134 7.84126 70.064L8.13352 67.9947ZM12.4077 44.5291C12.173 44.6955 6.68392 48.687 8.00126 55.0998C8.90152 60.9632 9.23112 61.2491 8.93459 62.3766L8.31059 64.72C8.28348 64.8216 8.27665 64.9275 8.29047 65.0317C8.30429 65.1359 8.3385 65.2363 8.39115 65.3273C8.44379 65.4183 8.51384 65.498 8.59729 65.5619C8.68074 65.6258 8.77597 65.6727 8.87752 65.6998C8.97908 65.7269 9.08498 65.7337 9.18918 65.7199C9.29337 65.7061 9.39383 65.6718 9.48481 65.6192C9.57578 65.5666 9.6555 65.4965 9.7194 65.4131C9.78331 65.3296 9.83015 65.2344 9.85726 65.1328C10.2871 63.2182 10.8365 62.3286 10.5719 60.7627L9.57352 54.8064C8.46419 49.3995 13.1362 45.9744 13.3367 45.8315C13.5059 45.7069 13.6192 45.5208 13.6523 45.3134C13.6854 45.1059 13.6356 44.8938 13.5136 44.7228C13.3916 44.5517 13.2072 44.4356 13.0003 44.3993C12.7934 44.3631 12.5805 44.4097 12.4077 44.5291Z" fill="#2291FF"/>
<path d="M22.2347 51.3066C22.3324 50.9251 22.3477 50.5271 22.2797 50.1393C22.2116 49.7514 22.0617 49.3824 21.84 49.057C20.3797 46.9588 17.8251 47.745 17.1925 49.7684C17.1925 49.7684 15.8891 53.9466 15.8784 53.985C15.648 54.721 13.1499 56.3028 12.848 55.4122C12.78 55.2112 12.6349 55.0454 12.4446 54.9514C12.2544 54.8574 12.0346 54.8428 11.8336 54.9108C11.6326 54.9789 11.4669 55.124 11.3729 55.3142C11.2788 55.5044 11.2642 55.7242 11.3323 55.9252C12.3211 58.8479 16.8096 56.3732 17.4059 54.4586L18.72 50.2452C18.9685 49.4506 19.8581 49.01 20.5269 49.9711C20.7093 50.2324 20.7659 50.5802 20.6805 50.9236C20.096 53.7823 19.1925 55.5359 19.4944 58.4276C19.6053 59.4836 19.7877 59.7172 19.7365 60.2292C19.6064 61.5487 17.9157 62.497 17.3397 65.9978C17.309 66.2055 17.3611 66.417 17.4849 66.5867C17.6087 66.7563 17.7943 66.8704 18.0015 66.9044C18.2087 66.9385 18.421 66.8897 18.5926 66.7685C18.7641 66.6474 18.8812 66.4636 18.9184 66.257C19.5488 62.4127 21.8603 62.098 21.2363 59.1764C20.9683 57.9227 20.9683 56.6265 21.2363 55.3727L22.2347 51.3066ZM39.5307 51.282C39.679 51.361 50.368 56.5482 52.1248 57.3898C54.096 58.3348 55.6224 56.0276 54.4021 55.425C54.308 55.3782 54.2055 55.3505 54.1006 55.3435C53.9957 55.3364 53.8905 55.3501 53.7909 55.3838C53.6913 55.4175 53.5993 55.4705 53.5203 55.5398C53.4412 55.6091 53.3766 55.6933 53.3301 55.7876C53.2117 56.0308 53.1403 56.1023 52.816 55.9476C50.7637 54.9642 40.5067 49.9818 40.2795 49.8676C40.0224 49.7322 40.0128 49.6298 40.1131 49.409C40.3851 48.8191 42.0416 45.4356 41.9894 45.5423C42.111 45.6831 42.8363 47.649 45.2555 47.5732C46.2869 47.537 47.1979 47.0143 47.8923 46.0628C49.8229 43.4132 47.839 39.9007 44.6507 40.4799L44.4192 40.5268C45.0272 39.265 45.6373 38.0042 46.2539 36.7444C46.4224 36.4031 46.4768 36.3615 46.864 36.5492C50.5579 38.3434 50.6773 38.418 51.1413 38.5492C52.4779 38.9322 53.8965 38.065 53.5371 36.0746C53.2704 34.5642 54.3435 33.9327 55.3909 34.3508C56.7115 34.881 56.8384 36.306 55.5797 36.9642C55.333 37.084 55.0983 37.2273 54.8789 37.3919C54.6634 37.5572 54.4864 37.7674 54.3602 38.008C54.234 38.2485 54.1617 38.5137 54.1483 38.785C54.1088 39.8143 54.8501 40.4042 55.7739 40.865C59.7419 42.8362 59.7205 42.593 59.4827 43.0964C58.8598 44.4033 58.229 45.7065 57.5904 47.0058C57.4971 47.1963 57.4832 47.4161 57.5519 47.6169C57.6206 47.8176 57.7663 47.9828 57.9568 48.0762C58.1473 48.1695 58.3672 48.1834 58.5679 48.1147C58.7686 48.046 58.9339 47.9003 59.0272 47.7098C59.6672 46.4052 60.304 45.0964 60.928 43.7844C61.392 42.8063 61.1733 41.713 59.9936 41.1391C55.4976 38.9631 55.1392 39.0004 56.3445 38.37C57.5499 37.7396 58.2091 36.5364 58.0224 35.3066C57.6683 32.978 54.7573 31.8506 52.9941 33.2223C52.1621 33.8687 51.7035 34.9236 51.9627 36.3562C52.176 37.5583 51.6597 37.1007 48.4267 35.5284C48.0896 35.4591 45.9392 33.7503 44.8171 36.0404C44.1909 37.3215 43.5691 38.6036 42.9515 39.8868C42.2571 41.3268 43.0869 42.3242 44.2613 42.1802C44.4171 42.1631 44.5419 42.1375 44.9333 42.0543C46.6827 41.7343 47.6907 43.6223 46.5995 45.1199C46.1941 45.6756 45.7355 45.9551 45.1989 45.9743C43.6843 46.0212 43.5093 44.769 43.0251 44.1652C42.4277 43.4218 41.2992 43.3642 40.5547 44.834C40.2432 45.4484 38.8683 48.29 38.6592 48.7412C38.192 49.7578 38.5344 50.7551 39.5307 51.282ZM72.0181 64.9802C71.7974 64.8731 71.5575 64.811 71.3125 64.7974C71.0675 64.7839 70.8222 64.8192 70.5909 64.9012L61.8315 67.9796C61.3611 68.1439 60.9824 68.4831 60.767 68.9322C60.2517 70.0074 60.9376 70.7583 61.3728 72.305C61.5376 72.7712 61.8805 73.1532 62.3263 73.3673C62.7721 73.5814 63.2845 73.6102 63.7515 73.4474L72.5131 70.369C72.9799 70.2049 73.3623 69.8621 73.5764 69.416C73.7904 68.9699 73.8185 68.4571 73.6544 67.9903C73.6544 67.9903 73.0912 65.4943 72.0181 64.9802ZM71.9829 68.8596L63.2224 71.938C63.1893 71.9499 63.1542 71.955 63.119 71.9532C63.0839 71.9514 63.0495 71.9426 63.0178 71.9275C62.9861 71.9123 62.9577 71.891 62.9342 71.8648C62.9107 71.8386 62.8927 71.808 62.8811 71.7748L62.1984 69.8292C62.1866 69.7961 62.1815 69.761 62.1833 69.7259C62.1851 69.6908 62.1938 69.6563 62.209 69.6246C62.2242 69.5929 62.2455 69.5645 62.2717 69.541C62.2978 69.5176 62.3284 69.4995 62.3616 69.4879C71.7227 66.2068 71.1392 66.3956 71.2096 66.3956C71.3184 66.3956 71.423 66.4628 71.4614 66.5738L72.1461 68.5204C72.1694 68.5871 72.1652 68.6602 72.1346 68.7238C72.104 68.7873 72.0495 68.8362 71.9829 68.8596ZM67.4837 54.0266L67.6725 59.9956C67.7205 61.5722 68.4267 62.3263 69.2224 64.1162C69.2685 64.211 69.333 64.2958 69.412 64.3656C69.491 64.4355 69.583 64.489 69.6828 64.5232C69.7826 64.5573 69.8881 64.5714 69.9933 64.5646C70.0986 64.5578 70.2014 64.5303 70.296 64.4836C70.3905 64.437 70.4749 64.372 70.5443 64.2926C70.6137 64.2132 70.6667 64.1208 70.7003 64.0209C70.7338 63.9209 70.7473 63.8153 70.7399 63.7101C70.7325 63.6049 70.7043 63.5022 70.6571 63.4079C69.8251 61.5796 69.3046 61.0399 69.2704 59.9476L69.0837 54.0052C69.1157 47.4676 62.9856 44.6484 62.7243 44.5311C62.5306 44.4443 62.3104 44.4379 62.1121 44.5134C61.9137 44.5889 61.7535 44.7401 61.6667 44.9338C61.5798 45.1274 61.5735 45.3476 61.649 45.546C61.7245 45.7443 61.8757 45.9045 62.0693 45.9914C62.2912 46.0916 67.5093 48.5162 67.4837 54.0266Z" fill="#313131"/>
<path d="M58.4249 63.6778C59.3337 64.5813 60.0463 65.4741 60.6137 66.9791C60.6913 67.174 60.8423 67.3307 61.0342 67.4153C61.2261 67.5 61.4435 67.5059 61.6398 67.4317C61.836 67.3576 61.9952 67.2094 62.0832 67.019C62.1712 66.8286 62.1809 66.6113 62.1103 66.4138C60.6233 62.4714 58.5455 62.6293 58.5732 60.5525C58.6265 57.0997 57.1215 55.2373 55.914 52.3797C55.8409 52.2321 55.7998 52.0708 55.7936 51.9062C55.7873 51.7417 55.816 51.5777 55.8777 51.425C56.1956 50.6965 56.6031 50.7103 56.778 50.7135C57.1257 50.7242 57.4809 50.9695 57.6825 51.3397L59.7871 55.1903C60.3791 56.2751 62.7492 57.4303 64.3705 57.1285C66.1348 56.7978 66.4953 54.689 65.3081 54.5354C65.0978 54.5082 64.8853 54.5656 64.7173 54.695C64.5493 54.8244 64.4395 55.0152 64.4121 55.2255C64.2916 56.1599 61.5407 55.0645 61.1908 54.4223L59.0873 50.5727C58.6105 49.6991 57.7433 49.1413 56.8239 49.1146C54.8847 49.0517 53.6207 51.2522 54.4644 53.0581C55.7284 56.0181 57.0148 57.5338 56.9732 60.529C56.9689 60.8842 57.4852 62.7413 58.4249 63.6778Z" fill="#313131"/>
</g>
<defs>
<clipPath id="clip0_2007_1181">
<rect width="80" height="80" fill="white"/>
</clipPath>
</defs>
</svg>
