<svg width="80" height="80" viewBox="0 0 80 80" fill="none" xmlns="http://www.w3.org/2000/svg">
<g clip-path="url(#clip0_2007_687)">
<path d="M15.806 8.40527L15.9234 27.8186C15.9248 28.0298 16.0097 28.232 16.1596 28.3808C16.3094 28.5297 16.5121 28.6133 16.7234 28.6133H16.7287C16.8337 28.6126 16.9376 28.5912 17.0344 28.5503C17.1312 28.5095 17.219 28.45 17.2928 28.3752C17.3666 28.3004 17.425 28.2118 17.4645 28.1145C17.5041 28.0172 17.5241 27.913 17.5234 27.8079L17.406 8.3946C17.3996 7.64473 18.3052 7.16047 19.1063 7.15513L57.4359 6.9226C58.3543 6.9226 59.134 7.47727 59.1394 8.1386L59.2695 25.3343L59.4967 41.1039C59.5027 41.2532 59.5516 41.3977 59.6375 41.5199L40.5207 41.5786H40.5164C39.9991 41.5786 39.5031 41.2853 39.1276 40.7103L32.4471 32.7679C31.8519 31.8378 30.8759 31.2693 29.837 31.2447L13.9276 30.8927C13.5102 30.8858 13.0957 30.9633 12.7091 31.1208C12.3225 31.2783 11.9718 31.5124 11.678 31.809C10.9858 32.4917 10.5932 33.4687 10.6007 34.4906L10.6423 40.417C10.6455 40.8586 11.0295 41.2298 11.4487 41.2106C11.5537 41.2098 11.6576 41.1882 11.7544 41.1473C11.8511 41.1063 11.9388 41.0467 12.0125 40.9718C12.0862 40.8969 12.1444 40.8082 12.1839 40.7108C12.2233 40.6135 12.2431 40.5093 12.2423 40.4042L12.1996 34.4799C12.1964 33.8869 12.4151 33.3279 12.8012 32.9471C13.0911 32.6582 13.4831 32.4949 13.8924 32.4927L29.8007 32.8447C30.3138 32.8565 30.7874 33.1434 31.1607 33.7141L37.8412 41.6554C38.4524 42.6101 39.4519 43.1786 40.5154 43.1786H40.526L62.9207 43.1114H62.925C63.838 43.1114 64.5868 43.9914 64.5943 45.0741L64.7468 72.9685L29.7111 73.0773C29.4989 73.0776 29.2955 73.1621 29.1457 73.3123C28.9959 73.4626 28.9119 73.6662 28.9122 73.8783C28.9124 74.0905 28.997 74.2939 29.1472 74.4437C29.2975 74.5935 29.5011 74.6776 29.7132 74.6773H29.7154L65.55 74.5663C65.6551 74.5661 65.7591 74.5451 65.856 74.5046C65.953 74.4642 66.041 74.405 66.1151 74.3305C66.1892 74.256 66.2479 74.1677 66.2878 74.0705C66.3278 73.9733 66.3482 73.8693 66.3479 73.7642L66.2092 47.9829C66.237 47.985 66.2615 47.9989 66.2903 47.9989H72.8791C73.1746 47.9989 73.4188 48.2815 73.3026 48.6207L67.2706 67.9487C67.236 68.0498 67.222 68.1568 67.2295 68.2633C67.2369 68.3699 67.2656 68.4739 67.3139 68.5692C67.3622 68.6644 67.429 68.7491 67.5105 68.8181C67.5921 68.8872 67.6866 68.9392 67.7885 68.9711C67.8904 69.003 67.9977 69.0142 68.1041 69.0039C68.2104 68.9937 68.3136 68.9623 68.4076 68.9116C68.5016 68.8608 68.5845 68.7918 68.6513 68.7085C68.7182 68.6252 68.7677 68.5293 68.797 68.4266L74.8236 49.1178C74.9293 48.8084 74.9597 48.4783 74.9122 48.1548C74.8648 47.8313 74.7408 47.5238 74.5507 47.2579C74.3605 46.9919 74.1097 46.7751 73.819 46.6255C73.5282 46.476 73.206 46.3979 72.8791 46.3978C69.7687 46.4053 66.477 46.3839 66.2018 46.4159L66.1943 45.0645C66.1804 43.1018 64.7148 41.5114 62.925 41.5114H62.9164L60.957 41.5167C61.0459 41.3885 61.0942 41.2365 61.0956 41.0805L60.8695 25.3173L60.7394 8.12687C60.7266 6.57593 59.246 5.32153 57.4359 5.32153H57.4114L19.0967 5.5562C17.1874 5.56687 15.7954 6.90233 15.806 8.40527Z" fill="#2291FF"/>
<path d="M41.3162 21.7652C42.4469 24.1034 43.7695 25.2884 45.2501 25.2884H45.2714C47.6149 25.2703 49.2575 22.2527 49.6831 21.3802C50.7615 20.5631 51.3386 19.6266 51.4005 18.593C51.4591 17.601 51.009 16.7796 50.641 16.2847C51.4058 14.8298 50.9706 13.4644 49.681 12.594L50.5973 11.0655C50.9525 10.4756 50.4383 9.74175 49.7738 9.86655C46.0255 10.5119 46.1898 10.5098 46.0074 10.5098C43.3407 10.5098 42.3647 11.4399 42.0106 12.0575C40.0693 12.8468 39.6885 14.9172 40.1898 16.9279C39.0015 18.6922 40.3114 20.77 41.3162 21.7652ZM41.8282 16.8404C41.6789 16.3988 41.3877 15.0676 41.8293 14.2239C42.3349 13.2554 43.2565 13.697 43.3823 12.8831C43.4602 12.6644 44.0842 12.1098 46.0063 12.1098C46.4031 12.1098 45.8965 12.1535 48.3242 11.7439L47.8741 12.4938C47.813 12.5954 47.7753 12.7093 47.7637 12.8272C47.7521 12.9452 47.7668 13.0642 47.8068 13.1758C47.8468 13.2874 47.9111 13.3886 47.9951 13.4723C48.079 13.556 48.1805 13.62 48.2922 13.6596C48.4778 13.7258 49.2117 14.0842 49.3813 14.6196C49.4901 14.9631 49.3621 15.393 49.0015 15.8996C48.8896 16.0587 48.839 16.2529 48.859 16.4464C48.879 16.6398 48.9683 16.8196 49.1103 16.9524C49.1189 16.9588 49.8581 17.6607 49.8026 18.5066C49.7642 19.0836 49.3535 19.6543 48.5823 20.2047C48.4679 20.2863 48.377 20.3967 48.3189 20.5247C47.9466 21.3428 46.5855 23.6799 45.2575 23.6884H45.2511C44.4383 23.6884 43.5327 22.7156 42.6986 20.9482C42.6557 20.8556 42.5952 20.7723 42.5205 20.7028C42.5002 20.6847 40.5599 18.8522 41.6639 17.6362C41.7595 17.53 41.8251 17.4004 41.8539 17.2606C41.8828 17.1207 41.8739 16.9757 41.8282 16.8404ZM34.8671 32.7786C34.8732 32.9863 34.9601 33.1834 35.1093 33.328C35.2585 33.4726 35.4583 33.5533 35.6661 33.553H35.6842C35.8958 33.5479 36.0969 33.4594 36.2435 33.3068C36.3902 33.1541 36.4706 32.9497 36.4671 32.738C36.4639 32.5652 36.4661 28.4884 42.1119 27.1594C42.3183 27.1104 42.4968 26.9817 42.6084 26.8013C42.72 26.621 42.7555 26.4037 42.7071 26.1972C42.6567 25.9917 42.5277 25.8141 42.3478 25.7026C42.1679 25.5912 41.9515 25.5547 41.745 25.601C34.7914 27.2404 34.865 32.7231 34.8671 32.7786ZM48.9429 27.1178C54.6047 28.3786 54.6559 32.4543 54.6549 32.6218C54.6532 32.7269 54.6722 32.8314 54.7109 32.9291C54.7496 33.0269 54.8073 33.1161 54.8805 33.1916C54.9537 33.2671 55.0411 33.3274 55.1376 33.3691C55.2342 33.4108 55.338 33.433 55.4431 33.4346H55.4549C55.6648 33.4346 55.8664 33.3521 56.0161 33.2048C56.1657 33.0575 56.2515 32.8573 56.2549 32.6474C56.2559 32.5919 56.2634 27.1092 49.2906 25.5551C49.0835 25.5105 48.8671 25.5493 48.6884 25.6631C48.5097 25.7769 48.3831 25.9565 48.3359 26.1631C48.2901 26.3701 48.3283 26.5869 48.4421 26.7659C48.5558 26.9448 48.7359 27.0714 48.9429 27.1178ZM47.2597 29.5018L45.7834 30.7071L44.2922 29.5188C44.1261 29.3867 43.9144 29.326 43.7036 29.35C43.4927 29.374 43.3 29.4808 43.1679 29.6468C43.0358 29.8129 42.9751 30.0246 42.9991 30.2355C43.0231 30.4463 43.1299 30.639 43.2959 30.7711C46.4085 33.1391 45.1893 33.1412 48.2719 30.7412C48.4272 30.6041 48.5234 30.4121 48.5401 30.2056C48.5569 29.9991 48.493 29.7941 48.3619 29.6337C48.2307 29.4733 48.0426 29.37 47.8368 29.3454C47.6311 29.3208 47.4249 29.3768 47.2597 29.5018ZM32.4842 18.0532H32.4789L21.6469 18.1194C21.4347 18.1201 21.2315 18.205 21.082 18.3556C20.9324 18.5061 20.8488 18.7098 20.8495 18.922C20.8502 19.1342 20.9352 19.3374 21.0857 19.4869C21.2363 19.6365 21.44 19.7201 21.6522 19.7194H21.6575L32.4895 19.6532C32.7017 19.6525 32.9049 19.5676 33.0544 19.417C33.204 19.2665 33.2876 19.0627 33.2869 18.8506C33.2862 18.6384 33.2012 18.4352 33.0507 18.2857C32.9001 18.1361 32.6964 18.0525 32.4842 18.0532ZM32.4981 23.5092L21.6661 23.5754C21.4539 23.5761 21.2507 23.661 21.1012 23.8116C20.9516 23.9621 20.868 24.1658 20.8687 24.378C20.8694 24.5902 20.9544 24.7934 21.1049 24.9429C21.2555 25.0925 21.4592 25.1761 21.6714 25.1754H21.6757L32.5087 25.1092C32.7209 25.1085 32.9241 25.0236 33.0736 24.873C33.2232 24.7225 33.3068 24.5187 33.3061 24.3066C33.3054 24.0944 33.2204 23.8912 33.0699 23.7417C32.9193 23.5921 32.7156 23.5085 32.5034 23.5092H32.4981ZM54.3818 53.266H54.3775L36.9279 53.3546C36.7158 53.3551 36.5125 53.4399 36.3629 53.5904C36.2132 53.7408 36.1295 53.9445 36.1301 54.1567C36.1306 54.3689 36.2155 54.5721 36.3659 54.7217C36.5163 54.8714 36.72 54.9551 36.9322 54.9546H36.9365L54.3861 54.866C54.4911 54.8657 54.5951 54.8448 54.692 54.8043C54.789 54.7638 54.877 54.7047 54.9511 54.6302C55.0252 54.5557 55.0839 54.4674 55.1238 54.3702C55.1638 54.273 55.1842 54.1689 55.1839 54.0639C55.1836 53.9588 55.1627 53.8549 55.1222 53.7579C55.0818 53.661 55.0226 53.5729 54.9481 53.4988C54.8736 53.4247 54.7853 53.366 54.6881 53.3261C54.5909 53.2862 54.4869 53.2657 54.3818 53.266ZM5.68633 65.1146C6.93966 68.1375 10.001 70.2847 14.7882 71.4986L17.0261 73.3951C17.3333 73.6532 17.7727 73.6458 18.0703 73.3876L20.2826 71.4602C25.0527 70.1802 28.0831 67.9903 29.2938 64.9503C31.0143 60.626 28.3551 56.2815 28.2613 56.1343C27.0485 53.9444 26.6677 52.193 27.1626 51.0708C27.5722 50.1407 28.4789 49.9146 28.5109 49.9082C28.6412 49.8798 28.7624 49.8193 28.8634 49.7322C28.9644 49.6451 29.042 49.5341 29.0892 49.4093C29.1364 49.2846 29.1516 49.15 29.1335 49.0178C29.1154 48.8857 29.0645 48.7602 28.9855 48.6527L25.7162 44.1908C25.6457 44.0936 25.5541 44.0135 25.4483 43.9566C25.3424 43.8997 25.2251 43.8675 25.1051 43.8624C24.9851 43.8573 24.8654 43.8794 24.7551 43.927C24.6448 43.9746 24.5467 44.0466 24.4682 44.1375C24.3615 44.2644 21.7514 47.1647 17.8431 44.0884C17.7006 43.9761 17.5241 43.9156 17.3426 43.917C17.1612 43.9183 16.9856 43.9814 16.8447 44.0959C13.0794 47.1466 10.5002 44.5418 10.2218 44.2378C10.1415 44.1487 10.0422 44.0788 9.93131 44.0331C9.8204 43.9875 9.70068 43.9673 9.58094 43.9741C9.4612 43.9808 9.3445 44.0144 9.23943 44.0722C9.13436 44.13 9.04359 44.2106 8.9738 44.3082L5.76633 48.8148C5.69088 48.9233 5.6433 49.0488 5.62778 49.18C5.61226 49.3113 5.62929 49.4443 5.67736 49.5674C5.72542 49.6906 5.80305 49.8 5.9034 49.886C6.00374 49.972 6.12371 50.032 6.25273 50.0607C6.29113 50.0692 7.20206 50.2847 7.62446 51.2074C8.13433 52.322 7.77806 54.0788 6.61646 56.2495C6.50553 56.434 3.905 60.8159 5.68633 65.1146ZM8.00633 57.041C9.46553 54.3167 9.82073 52.1194 9.06233 50.5066C8.75602 49.8544 8.26206 49.3084 7.64366 48.9386L9.7738 45.9444C11.0517 46.8714 13.8613 48.2239 17.3557 45.7194C20.8831 48.178 23.6767 46.7818 24.9397 45.8378L27.1125 48.8031C26.6218 49.1103 26.0703 49.6063 25.7151 50.3903C24.9791 52.0127 25.3653 54.2068 26.8821 56.9439C26.9055 56.9823 29.2287 60.8052 27.8037 64.369C26.7733 66.9428 24.0447 68.8244 19.6949 69.9594C19.3706 70.0447 19.3418 70.1898 17.537 71.73C15.6234 70.1428 15.6778 70.0714 15.3557 69.9903C10.9898 68.9151 8.23566 67.0719 7.17006 64.513C5.6938 60.9684 7.96366 57.1135 8.00633 57.041Z" fill="#313131"/>
<path d="M13.7822 60.5375L13.2126 64.0041C13.1884 64.1515 13.2059 64.3027 13.2631 64.4406C13.3203 64.5785 13.415 64.6977 13.5364 64.7846C13.6578 64.8715 13.8012 64.9227 13.9502 64.9323C14.0992 64.942 14.2479 64.9098 14.3796 64.8393L17.4772 63.1828L20.5982 64.7956C20.7308 64.8642 20.88 64.8944 21.0288 64.8826C21.1777 64.8709 21.3203 64.8177 21.4405 64.7291C21.5607 64.6406 21.6537 64.5201 21.709 64.3815C21.7643 64.2428 21.7797 64.0914 21.7534 63.9444L21.1348 60.4863L23.6329 58.0159C23.7389 57.911 23.8135 57.7785 23.8483 57.6334C23.883 57.4883 23.8765 57.3364 23.8295 57.1949C23.7824 57.0533 23.6967 56.9277 23.5821 56.8323C23.4674 56.7369 23.3284 56.6754 23.1806 56.6548L19.7001 56.1737L18.1225 53.0345C18.0559 52.9021 17.9538 52.7908 17.8276 52.713C17.7014 52.6352 17.5561 52.594 17.4078 52.594H17.4036C17.2542 52.595 17.1081 52.6378 16.9818 52.7175C16.8555 52.7973 16.754 52.9108 16.6889 53.0452L15.1561 56.2068L11.683 56.7359C11.5356 56.7585 11.3974 56.8219 11.284 56.919C11.1707 57.016 11.0868 57.1428 11.0417 57.2851C10.9967 57.4273 10.9923 57.5793 11.0291 57.7239C11.0659 57.8685 11.1424 57.9999 11.25 58.1033L13.7822 60.5375ZM15.8132 57.7247C15.9414 57.7052 16.063 57.6548 16.1674 57.5779C16.2718 57.5009 16.356 57.3998 16.4126 57.2831L17.4206 55.2009L18.4596 57.2681C18.5769 57.5028 18.803 57.6649 19.0644 57.7012L21.3556 58.018L19.7108 59.6447C19.6184 59.7357 19.5496 59.8478 19.5103 59.9714C19.4711 60.0951 19.4627 60.2264 19.4857 60.354L19.8932 62.6292L17.8388 61.5679C17.7236 61.5082 17.5956 61.4774 17.4658 61.4784C17.3361 61.4793 17.2086 61.5118 17.0942 61.5732L15.0537 62.6644L15.4292 60.3817C15.45 60.2538 15.4395 60.1228 15.3987 59.9998C15.3578 59.8768 15.2877 59.7656 15.1945 59.6756L13.5273 58.0735L15.8132 57.7247ZM54.931 59.6287L42.0788 59.7183C41.8666 59.719 41.6634 59.8039 41.5139 59.9545C41.3643 60.105 41.2807 60.3088 41.2814 60.5209C41.2821 60.7331 41.3671 60.9363 41.5176 61.0858C41.6682 61.2354 41.8719 61.319 42.0841 61.3183H42.0894L54.9417 61.2287C55.1539 61.228 55.3571 61.143 55.5066 60.9925C55.6561 60.8419 55.7397 60.6382 55.739 60.426C55.7383 60.2138 55.6534 60.0106 55.5028 59.8611C55.3523 59.7116 55.1485 59.628 54.9364 59.6287H54.931Z" fill="#313131"/>
</g>
<defs>
<clipPath id="clip0_2007_687">
<rect width="80" height="80" fill="white"/>
</clipPath>
</defs>
</svg>
