<svg width="80" height="80" viewBox="0 0 80 80" fill="none" xmlns="http://www.w3.org/2000/svg">
<g clip-path="url(#clip0_2007_1105)">
<path d="M13.0217 74.9334H39.6372C39.8493 74.9334 40.0528 74.8491 40.2029 74.6991C40.3529 74.5491 40.4372 74.3456 40.4372 74.1334C40.4372 73.9212 40.3529 73.7177 40.2029 73.5677C40.0528 73.4177 39.8493 73.3334 39.6372 73.3334H13.0217C12.1997 73.3337 11.3857 73.172 10.6262 72.8575C9.86678 72.543 9.17673 72.082 8.59554 71.5007C8.01435 70.9194 7.55341 70.2293 7.23907 69.4697C6.92473 68.7102 6.76315 67.8962 6.76358 67.0742C6.76555 65.415 7.42552 63.8244 8.59872 62.6512C9.77192 61.478 11.3626 60.818 13.0217 60.8161H44.9609C41.1529 63.7035 40.7614 69.2545 44.1374 72.6305C44.8654 73.3628 45.7314 73.9435 46.6854 74.3388C47.6393 74.7341 48.6622 74.9362 49.6948 74.9334H74.0361C74.2483 74.9334 74.4518 74.8491 74.6018 74.6991C74.7518 74.5491 74.8361 74.3456 74.8361 74.1334C74.8361 73.9212 74.7518 73.7177 74.6018 73.5677C74.4518 73.4177 74.2483 73.3334 74.0361 73.3334C72.5748 73.3334 70.9449 70.7627 70.9449 67.0742C70.9449 63.3857 72.5748 60.8161 74.0361 60.8161C74.2483 60.8161 74.4518 60.7318 74.6018 60.5818C74.7518 60.4317 74.8361 60.2282 74.8361 60.0161C74.8361 59.8039 74.7518 59.6004 74.6018 59.4504C74.4518 59.3003 74.2483 59.2161 74.0361 59.2161H13.0228C8.68891 59.2161 5.16358 62.7414 5.16358 67.0742C5.16301 68.1064 5.36588 69.1285 5.76058 70.0822C6.15527 71.0359 6.73406 71.9025 7.46385 72.6324C8.19365 73.3623 9.06014 73.9412 10.0138 74.336C10.9674 74.7308 11.9896 74.9338 13.0217 74.9334ZM71.1657 60.8161C69.5465 62.8854 69.1177 66.1345 69.4558 68.7819H52.706C52.4938 68.7819 52.2903 68.8662 52.1403 69.0162C51.9903 69.1663 51.906 69.3698 51.906 69.5819C51.906 69.7941 51.9903 69.9976 52.1403 70.1476C52.2903 70.2976 52.4938 70.3819 52.706 70.3819H69.7726C70.0894 71.5521 70.5652 72.5654 71.1657 73.3334H49.6937C48.8715 73.3353 48.0572 73.1741 47.2977 72.8591C46.5382 72.5442 45.8488 72.0818 45.2692 71.4987C41.3364 67.567 44.1545 60.8161 49.6937 60.8161H71.1657Z" fill="#2291FF"/>
<path d="M52.706 65.3675H65.0186C65.2307 65.3675 65.4342 65.2832 65.5843 65.1332C65.7343 64.9831 65.8186 64.7796 65.8186 64.5675C65.8186 64.3553 65.7343 64.1518 65.5843 64.0018C65.4342 63.8518 65.2307 63.7675 65.0186 63.7675H52.706C52.4939 63.7675 52.2904 63.8518 52.1404 64.0018C51.9903 64.1518 51.906 64.3553 51.906 64.5675C51.906 64.7796 51.9903 64.9831 52.1404 65.1332C52.2904 65.2832 52.4939 65.3675 52.706 65.3675ZM49.7418 56.0277C49.7418 56.2399 49.8261 56.4434 49.9761 56.5934C50.1261 56.7435 50.3296 56.8277 50.5418 56.8277C50.7539 56.8277 50.9574 56.7435 51.1075 56.5934C51.2575 56.4434 51.3418 56.2399 51.3418 56.0277C51.3418 54.8981 50.6559 53.9264 49.6778 53.5061C49.3855 50.6229 46.9759 48.3584 44.0223 48.3584L23.5338 48.3616C20.5759 48.3616 18.1642 50.6261 17.8719 53.5083C17.38 53.7209 16.961 54.0727 16.6663 54.5203C16.3716 54.9679 16.2141 55.4918 16.2132 56.0277C16.2132 56.2399 16.2975 56.4434 16.4476 56.5934C16.5976 56.7435 16.8011 56.8277 17.0132 56.8277C17.2254 56.8277 17.4289 56.7435 17.5789 56.5934C17.729 56.4434 17.8132 56.2399 17.8132 56.0277C17.8132 55.3952 18.3263 54.8821 18.9588 54.8821H43.3002C43.9295 54.8853 44.4415 55.3973 44.4415 56.0277C44.4415 56.2399 44.5258 56.4434 44.6758 56.5934C44.8259 56.7435 45.0293 56.8277 45.2415 56.8277C45.4537 56.8277 45.6572 56.7435 45.8072 56.5934C45.9572 56.4434 46.0415 56.2399 46.0415 56.0277C46.0415 55.6181 45.9455 55.232 45.7834 54.8832H48.6015C49.2308 54.8853 49.7418 55.3973 49.7418 56.0277ZM48.0586 53.2821H44.3594C44.1843 52.0151 43.5871 50.8442 42.6644 49.9584H44.0223C44.9756 49.9605 45.8987 50.2928 46.6346 50.8988C47.3704 51.5048 47.8736 52.347 48.0586 53.2821ZM23.5338 49.9616H38.7199C40.7178 49.9616 42.3892 51.392 42.7626 53.2821H19.4911C19.6774 52.3469 20.1819 51.5051 20.9187 50.8998C21.6555 50.2944 22.5802 49.9629 23.5338 49.9616ZM17.5956 32.7264C17.4972 32.7636 17.4072 32.8198 17.3305 32.8918C17.2539 32.9639 17.1922 33.0503 17.149 33.1462C17.1058 33.2421 17.0819 33.3456 17.0788 33.4507C17.0756 33.5559 17.0932 33.6606 17.1306 33.7589L19.8122 40.8427C19.8469 40.9442 19.9016 41.0377 19.9731 41.1176C20.0447 41.1976 20.1316 41.2623 20.2286 41.308C20.3257 41.3536 20.4309 41.3793 20.5381 41.3835C20.6453 41.3876 20.7523 41.3702 20.8526 41.3322C20.9529 41.2942 21.0446 41.2364 21.1221 41.1623C21.1996 41.0882 21.2615 40.9992 21.3039 40.9007C21.3464 40.8022 21.3686 40.6961 21.3692 40.5889C21.3699 40.4816 21.3489 40.3753 21.3076 40.2763L18.626 33.1915C18.5507 32.9934 18.4 32.8333 18.2069 32.7462C18.0138 32.659 17.794 32.6519 17.5956 32.7264ZM17.8282 43.4859C17.8675 43.2774 17.8224 43.0618 17.7028 42.8866C17.5831 42.7113 17.3988 42.5908 17.1903 42.5515L11.3236 41.4485C11.115 41.4094 10.8993 41.4547 10.7241 41.5745C10.5489 41.6943 10.4284 41.8788 10.3892 42.0875C10.3501 42.2961 10.3954 42.5118 10.5152 42.687C10.635 42.8622 10.8195 42.9827 11.0282 43.0219C16.9119 44.1227 16.8863 44.1376 17.0431 44.1376C17.2292 44.1374 17.4094 44.0723 17.5527 43.9536C17.696 43.8348 17.7934 43.6687 17.8282 43.4859ZM40.1919 12.912C40.1095 12.8465 40.015 12.7979 39.9139 12.769C39.8127 12.7401 39.7068 12.7315 39.6022 12.7436C39.4977 12.7557 39.3966 12.7883 39.3047 12.8395C39.2127 12.8907 39.1318 12.9596 39.0666 13.0421L32.865 20.8608L32.7167 20.7424C32.5021 20.5697 32.2555 20.4409 31.9911 20.3635C31.7267 20.2861 31.4496 20.2616 31.1757 20.2913C30.9018 20.321 30.6365 20.4044 30.3948 20.5367C30.1532 20.669 29.94 20.8477 29.7674 21.0624L28.7167 22.3659C28.3655 22.7976 28.2001 23.3512 28.2569 23.9049C28.3137 24.4585 28.5881 24.967 29.0196 25.3184L37.7823 32.3872C38.6804 33.1253 39.9978 32.9685 40.7263 32.0779L41.7834 30.7659C42.53 29.8549 42.3583 28.5237 41.4751 27.8219L34.1098 21.8677L40.321 14.0352C40.4525 13.869 40.5127 13.6573 40.4883 13.4467C40.4639 13.2361 40.358 13.0438 40.1919 12.912ZM40.5418 29.7568C39.5476 30.9248 39.5071 31.2139 39.1476 31.2523C39.0843 31.2593 39.0202 31.2535 38.9592 31.2352C38.8981 31.2168 38.8414 31.1864 38.7924 31.1456L30.0287 24.0768C29.9779 24.0354 29.9358 23.9844 29.9048 23.9267C29.8738 23.8689 29.8544 23.8057 29.8479 23.7405C29.8413 23.6753 29.8477 23.6094 29.8667 23.5467C29.8856 23.484 29.9168 23.4256 29.9583 23.3749L31.009 22.0704C31.0505 22.0182 31.102 21.9749 31.1605 21.9428C31.219 21.9108 31.2833 21.8907 31.3496 21.8837C31.4159 21.8768 31.483 21.8831 31.5468 21.9023C31.6107 21.9216 31.6701 21.9533 31.7215 21.9957L40.4756 29.0709C40.6751 29.2309 40.7188 29.5403 40.5418 29.7568Z" fill="#313131"/>
<path d="M49.6778 16.8054L50.0085 17.0625C50.9269 17.7772 52.2442 17.599 52.9471 16.6956L53.985 15.3622C54.1539 15.1453 54.2785 14.8971 54.3515 14.632C54.4246 14.3669 54.4447 14.09 54.4107 13.8171C54.3768 13.5442 54.2894 13.2807 54.1535 13.0416C54.0177 12.8025 53.8361 12.5925 53.6191 12.4236L44.7338 5.50837C44.2953 5.16799 43.7386 5.01536 43.1878 5.08395C42.6369 5.15253 42.1357 5.43672 41.7941 5.87424L40.7551 7.20757C40.4148 7.64639 40.2623 8.20222 40.3311 8.75326C40.3999 9.3043 40.6843 9.8056 41.1221 10.1473L48.4149 15.822L41.3727 24.703C41.3032 24.7849 41.2509 24.8798 41.2189 24.9823C41.1869 25.0848 41.1758 25.1926 41.1863 25.2995C41.1969 25.4063 41.2288 25.5099 41.2802 25.6041C41.3316 25.6984 41.4015 25.7813 41.4856 25.848C41.5698 25.9146 41.6665 25.9637 41.77 25.9922C41.8735 26.0207 41.9816 26.0281 42.0881 26.0139C42.1945 25.9998 42.2969 25.9643 42.3894 25.9097C42.4818 25.8551 42.5623 25.7825 42.6261 25.6961L46.3498 21.0006L69.441 39.0582C69.7557 39.3068 69.953 39.6641 69.9999 40.0609C70.1493 41.3697 68.6367 42.2486 67.5701 41.406L48.2133 26.3158C48.1306 26.2495 48.0355 26.2003 47.9337 26.1711C47.8318 26.1418 47.7251 26.1331 47.6199 26.1454C47.5146 26.1577 47.4128 26.1908 47.3205 26.2428C47.2281 26.2948 47.147 26.3646 47.0818 26.4482C47.0167 26.5318 46.9688 26.6275 46.9409 26.7298C46.9131 26.832 46.9058 26.9388 46.9196 27.0439C46.9334 27.149 46.9679 27.2503 47.0211 27.3419C47.0744 27.4336 47.1453 27.5137 47.2298 27.5777L66.5813 42.6636C66.9002 42.9167 67.2659 43.1044 67.6575 43.2161C68.049 43.3278 68.4587 43.3612 68.8632 43.3144C69.2677 43.2677 69.659 43.1416 70.0147 42.9436C70.3704 42.7455 70.6837 42.4793 70.9365 42.1601C71.1902 41.841 71.3785 41.4748 71.4904 41.0828C71.6024 40.6907 71.6358 40.2804 71.5889 39.8754C71.5419 39.4704 71.4154 39.0786 71.2167 38.7226C71.018 38.3665 70.7509 38.0532 70.4309 37.8006L47.3439 19.7473L49.6778 16.8054ZM42.0191 8.19104L43.057 6.8577C43.1376 6.75458 43.2558 6.68752 43.3856 6.67113C43.5155 6.65475 43.6466 6.69037 43.7503 6.77024L52.6357 13.6854C52.8533 13.8561 52.8895 14.1654 52.7221 14.3798L51.6853 15.7132C51.6043 15.8165 51.4856 15.8836 51.3553 15.8998C51.225 15.916 51.0936 15.8799 50.9898 15.7996L42.1045 8.88437C42.0017 8.80342 41.935 8.68514 41.919 8.55527C41.903 8.42541 41.939 8.29449 42.0191 8.19104Z" fill="#313131"/>
</g>
<defs>
<clipPath id="clip0_2007_1105">
<rect width="80" height="80" fill="white"/>
</clipPath>
</defs>
</svg>
