<svg width="80" height="80" viewBox="0 0 80 80" fill="none" xmlns="http://www.w3.org/2000/svg">
<g clip-path="url(#clip0_2007_925)">
<path d="M64.2881 27.6726L59.5735 40.2881C59.5367 40.3866 59.5197 40.4913 59.5234 40.5964C59.5271 40.7014 59.5515 40.8047 59.5951 40.9003C59.6387 40.996 59.7008 41.0821 59.7777 41.1537C59.8546 41.2254 59.9449 41.2812 60.0433 41.318C60.1418 41.3547 60.2466 41.3718 60.3516 41.368C60.4567 41.3643 60.56 41.34 60.6556 41.2963C60.7512 41.2527 60.8373 41.1907 60.909 41.1138C60.9806 41.0368 61.0364 40.9466 61.0732 40.8481L65.7857 28.2337C65.9794 27.7165 66.2808 27.2464 66.6699 26.8545C67.0591 26.4627 67.5271 26.1581 68.0429 25.9609C68.5588 25.7637 69.1107 25.6784 69.662 25.7107C70.2133 25.743 70.7514 25.8922 71.2407 26.1484C73.2012 27.1777 74.0407 29.7217 72.6273 31.8252L64.8908 42.7553C64.7682 42.9286 64.7194 43.1435 64.7552 43.3527C64.791 43.562 64.9085 43.7484 65.0817 43.871C65.255 43.9937 65.4699 44.0425 65.6792 44.0066C65.8884 43.9708 66.0748 43.8534 66.1975 43.6801L73.9447 32.734C75.9233 29.774 74.7521 26.1868 71.9852 24.7318C69.054 23.1916 65.4359 24.5836 64.286 27.6737L64.2881 27.6726ZM65.1148 44.8673L59.3047 41.8134C58.8683 41.5849 58.3592 41.5388 57.8889 41.6852C57.4185 41.8315 57.0255 42.1585 56.7959 42.5942L56.1676 43.79C48.7084 40.8161 48.4577 43.1596 48.3095 43.182L45.5223 48.4833C45.5148 48.4972 45.5159 48.5121 45.5095 48.526C43.7431 52.1878 60.1932 60.8812 65.4209 60.8812C67.1148 60.8812 67.3303 60.0886 67.4369 60.0001L70.2188 54.7094C70.2231 54.702 70.2295 54.6977 70.2337 54.6892C71.1137 53.0145 68.1559 50.5121 65.2652 48.5729L65.8945 47.375C66.1231 46.9388 66.1694 46.4298 66.0232 45.9595C65.8771 45.4892 65.5504 45.0971 65.1148 44.8673ZM58.5601 43.23L64.3692 46.2838C64.3992 46.2995 64.4259 46.3209 64.4476 46.3468C64.4694 46.3728 64.4857 46.4028 64.4959 46.4351C64.506 46.4674 64.5096 46.5014 64.5065 46.5351C64.5035 46.5688 64.4938 46.6016 64.478 46.6316L63.5404 48.415C61.1009 48.2476 59.0529 47.1617 57.2865 45.0998L58.2124 43.3388C58.2444 43.2785 58.2988 43.2333 58.3639 43.213C58.429 43.1926 58.4995 43.1987 58.5601 43.23ZM55.6631 55.7996C49.9244 52.7852 47.0231 49.9574 46.9665 49.1788C46.9676 49.1766 46.9665 49.1734 46.9687 49.1713L48.8791 45.534C51.7601 49.3164 63.1575 55.359 67.9639 55.5606L66.0492 59.2033C65.3921 59.6054 61.4135 58.8214 55.6631 55.7996ZM68.7841 53.9297C67.9607 54.2497 64.0407 53.4284 58.4481 50.4876C52.8588 47.55 49.9596 44.7916 49.7623 43.9318C50.2423 43.7569 52.126 43.9062 55.6556 45.3164C55.6897 45.5606 55.7836 45.7964 55.9447 45.9905C58.0492 48.5142 60.6348 49.871 63.6311 50.0225C63.6311 50.0342 63.6737 50.0246 63.6972 50.0246C63.9127 50.0246 64.1185 49.9638 64.3052 49.8657C67.4625 51.9809 68.6529 53.438 68.7841 53.9297Z" fill="#313131"/>
<path d="M7.97117 65.5244H55.9392C58.9984 65.5244 59.6522 61.1286 57.9082 61.3836C57.8041 61.3982 57.7039 61.4333 57.6134 61.4867C57.5228 61.5401 57.4437 61.6108 57.3805 61.6948C57.3173 61.7788 57.2713 61.8744 57.2451 61.9762C57.2188 62.078 57.2129 62.184 57.2277 62.2881C57.345 63.1276 56.753 63.9244 55.9381 63.9244H7.97117C7.18503 63.9244 6.56103 63.1606 6.68263 62.287L12.9802 17.2844C13.0762 16.5953 13.6309 16.0758 14.2698 16.0758H49.6405C50.2784 16.0758 50.833 16.5953 50.929 17.2833L53.953 38.8897C53.9647 38.9961 53.9976 39.0991 54.0498 39.1925C54.102 39.2859 54.1724 39.368 54.2568 39.4337C54.3413 39.4995 54.438 39.5476 54.5414 39.5753C54.6448 39.603 54.7527 39.6096 54.8587 39.5948C54.9647 39.58 55.0667 39.5441 55.1586 39.4893C55.2504 39.4344 55.3304 39.3616 55.3936 39.2753C55.4569 39.1889 55.5022 39.0908 55.5268 38.9866C55.5514 38.8825 55.5549 38.7744 55.537 38.6689L52.5141 17.0625C52.3082 15.5873 51.073 14.4758 49.6405 14.4758H14.2698C12.8373 14.4758 11.6032 15.5873 11.3962 17.0625L5.09863 62.0652C4.8405 63.902 6.21543 65.5244 7.97117 65.5244Z" fill="#2291FF"/>
<path d="M31.6906 60.2592C37.8154 60.2592 42.7978 56.6464 42.7978 52.207C42.7978 47.7675 37.8154 44.1558 31.6917 44.1558C25.5669 44.1558 20.5845 47.7675 20.5845 52.207C20.5845 56.6464 25.5669 60.2603 31.6917 60.2603L31.6906 60.2592ZM31.6906 45.7558C36.9333 45.7558 41.1978 48.6496 41.1978 52.207C41.1978 55.7643 36.9333 58.6603 31.6917 58.6603C26.449 58.6603 22.1845 55.7643 22.1845 52.207C22.1845 48.6496 26.449 45.7558 31.6917 45.7558H31.6906Z" fill="#313131"/>
<path d="M28.9406 55.0614C29.0666 55.217 29.2465 55.3196 29.4446 55.3491C29.6426 55.3785 29.8446 55.3326 30.0104 55.2203L36.3923 50.8961C36.5577 50.7728 36.6692 50.5905 36.7036 50.3871C36.7379 50.1837 36.6925 49.9749 36.5767 49.8042C36.461 49.6334 36.2838 49.5139 36.0822 49.4705C35.8805 49.4272 35.6699 49.4632 35.4942 49.5713L29.7203 53.4838L28.0606 51.4347C27.9945 51.3531 27.913 51.2854 27.8208 51.2352C27.7286 51.1851 27.6273 51.1537 27.5229 51.1427C27.4185 51.1317 27.313 51.1414 27.2123 51.1712C27.1117 51.201 27.0179 51.2503 26.9363 51.3163C26.8547 51.3824 26.7869 51.4638 26.7368 51.5561C26.6867 51.6483 26.6552 51.7495 26.6442 51.8539C26.6333 51.9583 26.6429 52.0639 26.6727 52.1645C26.7025 52.2652 26.7518 52.359 26.8179 52.4406L28.9406 55.0614ZM43.8216 25.0934L42.8755 21.6694C42.7972 21.3905 42.6301 21.1448 42.3994 20.9697C42.1688 20.7945 41.8873 20.6993 41.5976 20.6987H21.6766C21.0814 20.6987 20.5555 21.0987 20.3987 21.6694L19.4515 25.0945C19.3969 25.2915 19.3886 25.4984 19.4272 25.6992C19.4659 25.8999 19.5504 26.089 19.6742 26.2517C19.7981 26.4144 19.9578 26.5462 20.1411 26.6369C20.3243 26.7276 20.526 26.7747 20.7304 26.7745H42.5438C43.4195 26.7745 44.0552 25.9403 43.8216 25.0934ZM21.0899 25.1745L21.8856 22.2977H41.3886L42.1843 25.1745H21.0899ZM20.5811 33.7665H41.6798C41.8919 33.7665 42.0954 33.6822 42.2454 33.5322C42.3955 33.3821 42.4798 33.1786 42.4798 32.9665C42.4798 32.7543 42.3955 32.5508 42.2454 32.4008C42.0954 32.2507 41.8919 32.1665 41.6798 32.1665H20.5811C20.3689 32.1665 20.1654 32.2507 20.0154 32.4008C19.8654 32.5508 19.7811 32.7543 19.7811 32.9665C19.7811 33.1786 19.8654 33.3821 20.0154 33.5322C20.1654 33.6822 20.3689 33.7665 20.5811 33.7665ZM20.5811 39.2214H41.6798C41.8919 39.2214 42.0954 39.1371 42.2454 38.9871C42.3955 38.8371 42.4798 38.6336 42.4798 38.4214C42.4798 38.2092 42.3955 38.0057 42.2454 37.8557C42.0954 37.7057 41.8919 37.6214 41.6798 37.6214H20.5811C20.3689 37.6214 20.1654 37.7057 20.0154 37.8557C19.8654 38.0057 19.7811 38.2092 19.7811 38.4214C19.7811 38.6336 19.8654 38.8371 20.0154 38.9871C20.1654 39.1371 20.3689 39.2214 20.5811 39.2214Z" fill="#313131"/>
</g>
<defs>
<clipPath id="clip0_2007_925">
<rect width="80" height="80" fill="white"/>
</clipPath>
</defs>
</svg>
