<svg width="80" height="80" viewBox="0 0 80 80" fill="none" xmlns="http://www.w3.org/2000/svg">
<g clip-path="url(#clip0_2007_1172)">
<path d="M70.0844 27.5201C69.9499 27.0729 69.6754 26.6807 69.3014 26.4011C68.9274 26.1216 68.4735 25.9694 68.0065 25.967H11.6332C10.6518 25.967 9.78997 26.6284 9.53717 27.5724L5.1425 43.8817C5.05391 44.2108 5.04404 44.5561 5.1137 44.8897V66.5068C5.11455 67.0799 5.34262 67.6294 5.74791 68.0347C6.15321 68.44 6.70266 68.6681 7.27584 68.6689H72.7692C73.3425 68.6683 73.8923 68.4404 74.2978 68.0351C74.7033 67.6298 74.9315 67.0801 74.9324 66.5068V44.0662C74.9324 43.9596 70.1164 27.6289 70.0844 27.5212V27.5201ZM11.0838 27.9862C11.1164 27.8658 11.1878 27.7595 11.2869 27.6837C11.386 27.6079 11.5073 27.5669 11.6321 27.567H68.0054C68.255 27.567 68.479 27.7345 68.5494 27.9724L73.3068 44.2924C73.3323 44.3754 73.3378 44.4633 73.323 44.5489C73.3081 44.6345 73.2733 44.7154 73.2214 44.785C73.1694 44.8546 73.1018 44.911 73.024 44.9496C72.9461 44.9882 72.8603 45.0078 72.7734 45.007H66.8908L63.9148 31.7654C63.854 31.4925 63.7018 31.2485 63.4833 31.0739C63.2649 30.8993 62.9933 30.8046 62.7137 30.8054H47.8614C47.1254 30.8054 46.5462 31.4486 46.639 32.191V32.1932L48.271 45.0049H7.2257C6.54517 45.0049 6.7489 44.3116 6.71264 44.2049L11.0838 27.9862ZM49.967 45.6822L48.2796 32.4065H62.4193L65.4518 45.8572V51.7153H49.9766V45.838C49.9752 45.7859 49.9716 45.734 49.966 45.6822H49.967ZM72.7702 67.0689H7.2769C7.12772 67.0689 6.98463 67.0097 6.87904 66.9043C6.77345 66.7989 6.71399 66.656 6.7137 66.5068V46.5441C6.87904 46.5836 7.05077 46.606 7.22677 46.606H48.3766V52.0833C48.3766 52.7628 48.9292 53.3153 49.6086 53.3153H65.8209C66.5004 53.3153 67.0518 52.7628 67.0518 52.0833V46.606H72.7745C72.9665 46.606 73.1521 46.5761 73.3324 46.5281V66.5068C73.3321 66.6558 73.2728 66.7986 73.1674 66.904C73.0621 67.0093 72.9192 67.0686 72.7702 67.0689Z" fill="#2291FF"/>
<path d="M68.3348 61.614H38.6858C38.4736 61.614 38.2701 61.6983 38.1201 61.8483C37.9701 61.9983 37.8858 62.2018 37.8858 62.414C37.8858 62.6261 37.9701 62.8296 38.1201 62.9797C38.2701 63.1297 38.4736 63.214 38.6858 63.214H68.3348C68.547 63.214 68.7505 63.1297 68.9005 62.9797C69.0506 62.8296 69.1348 62.6261 69.1348 62.414C69.1348 62.2018 69.0506 61.9983 68.9005 61.8483C68.7505 61.6983 68.547 61.614 68.3348 61.614ZM15.1199 50.0396C13.5818 50.0396 12.3306 51.2908 12.3306 52.8278C12.3306 54.3649 13.5818 55.6161 15.1199 55.6161C16.658 55.6161 17.9082 54.366 17.9082 52.8278C17.9082 51.2897 16.657 50.0396 15.1199 50.0396ZM15.1199 54.0161C14.8135 54.0031 14.5239 53.8722 14.3117 53.6508C14.0994 53.4294 13.9809 53.1346 13.9809 52.8278C13.9809 52.5211 14.0994 52.2263 14.3117 52.0048C14.5239 51.7834 14.8135 51.6526 15.1199 51.6396C15.7748 51.6396 16.3082 52.1729 16.3082 52.8278C16.3082 53.4828 15.7748 54.0161 15.1199 54.0161ZM26.6474 50.0396C25.1103 50.0396 23.8591 51.2908 23.8591 52.8278C23.8591 54.3649 25.1103 55.6161 26.6474 55.6161C28.1844 55.6161 29.4356 54.366 29.4356 52.8278C29.4356 51.2897 28.1855 50.0396 26.6474 50.0396ZM26.6474 54.0161C26.3409 54.0031 26.0514 53.8722 25.8391 53.6508C25.6269 53.4294 25.5084 53.1346 25.5084 52.8278C25.5084 52.5211 25.6269 52.2263 25.8391 52.0048C26.0514 51.7834 26.3409 51.6526 26.6474 51.6396C26.9538 51.6526 27.2434 51.7834 27.4556 52.0048C27.6679 52.2263 27.7863 52.5211 27.7863 52.8278C27.7863 53.1346 27.6679 53.4294 27.4556 53.6508C27.2434 53.8722 26.9538 54.0031 26.6474 54.0161ZM15.1199 58.4769C13.5818 58.4769 12.3306 59.7281 12.3306 61.2662C12.3306 62.8044 13.5818 64.0534 15.1199 64.0534C16.658 64.0534 17.9082 62.8033 17.9082 61.2662C17.9082 59.7292 16.657 58.4769 15.1199 58.4769ZM15.1199 62.4534C14.8135 62.4405 14.5239 62.3096 14.3117 62.0882C14.0994 61.8667 13.9809 61.5719 13.9809 61.2652C13.9809 60.9585 14.0994 60.6636 14.3117 60.4422C14.5239 60.2208 14.8135 60.0899 15.1199 60.0769C15.435 60.0769 15.7373 60.2021 15.9601 60.4249C16.183 60.6478 16.3082 60.95 16.3082 61.2652C16.3082 61.5803 16.183 61.8826 15.9601 62.1054C15.7373 62.3282 15.435 62.4534 15.1199 62.4534ZM26.6474 58.4769C25.1103 58.4769 23.8591 59.7281 23.8591 61.2662C23.8591 62.8044 25.1103 64.0534 26.6474 64.0534C28.1844 64.0534 29.4356 62.8033 29.4356 61.2662C29.4356 59.7292 28.1855 58.4769 26.6474 58.4769ZM26.6474 62.4534C26.3409 62.4405 26.0514 62.3096 25.8391 62.0882C25.6269 61.8667 25.5084 61.5719 25.5084 61.2652C25.5084 60.9585 25.6269 60.6636 25.8391 60.4422C26.0514 60.2208 26.3409 60.0899 26.6474 60.0769C26.9538 60.0899 27.2434 60.2208 27.4556 60.4422C27.6679 60.6636 27.7863 60.9585 27.7863 61.2652C27.7863 61.5719 27.6679 61.8667 27.4556 62.0882C27.2434 62.3096 26.9538 62.4405 26.6474 62.4534ZM19.9743 15.215C19.7784 15.2964 19.6229 15.4522 19.5419 15.6483C19.4609 15.8443 19.461 16.0645 19.5423 16.2604L21.4943 20.9516C21.5796 21.1418 21.7359 21.2911 21.9297 21.3679C22.1235 21.4446 22.3396 21.4427 22.532 21.3624C22.7244 21.2822 22.8779 21.1301 22.9598 20.9384C23.0418 20.7467 23.0456 20.5306 22.9706 20.3361L21.0196 15.646C20.9376 15.4507 20.7816 15.2957 20.5858 15.215C20.39 15.1343 20.1701 15.1343 19.9743 15.215ZM24.9236 12.1313V20.159C24.9236 20.3712 25.0079 20.5747 25.1579 20.7247C25.308 20.8747 25.5115 20.959 25.7236 20.959C25.9358 20.959 26.1393 20.8747 26.2893 20.7247C26.4393 20.5747 26.5236 20.3712 26.5236 20.159V12.1313C26.5236 11.9191 26.4393 11.7156 26.2893 11.5656C26.1393 11.4156 25.9358 11.3313 25.7236 11.3313C25.5115 11.3313 25.308 11.4156 25.1579 11.5656C25.0079 11.7156 24.9236 11.9191 24.9236 12.1313ZM31.3983 15.5382L28.5546 20.2294C28.5001 20.3194 28.464 20.4191 28.4481 20.523C28.4322 20.6269 28.437 20.733 28.4621 20.835C28.4872 20.9371 28.5322 21.0332 28.5945 21.1179C28.6567 21.2026 28.735 21.2742 28.825 21.3286C28.9149 21.3831 29.0147 21.4192 29.1186 21.4351C29.2225 21.451 29.3285 21.4462 29.4306 21.4211C29.5326 21.396 29.6288 21.351 29.7135 21.2888C29.7982 21.2265 29.8697 21.1482 29.9242 21.0582L32.7679 16.3681C32.8224 16.2782 32.8586 16.1784 32.8746 16.0745C32.8905 15.9705 32.8858 15.8645 32.8607 15.7623C32.8357 15.6602 32.7907 15.564 32.7285 15.4793C32.6663 15.3945 32.588 15.3229 32.498 15.2684C32.4081 15.2139 32.3083 15.1776 32.2044 15.1617C32.1005 15.1458 31.9944 15.1505 31.8923 15.1755C31.7902 15.2006 31.694 15.2455 31.6092 15.3078C31.5245 15.37 31.4528 15.4483 31.3983 15.5382ZM15.6372 43.1905H34.0415C34.6815 43.1905 35.2084 42.7105 35.2682 42.0758L36.3498 30.7414C36.3663 30.5707 36.3469 30.3983 36.2929 30.2355C36.2388 30.0726 36.1514 29.9229 36.0361 29.7958C35.9208 29.6688 35.7802 29.5672 35.6233 29.4977C35.4665 29.4282 35.2968 29.3922 35.1252 29.3921H17.9946C17.4122 29.3921 16.9055 29.8038 16.7871 30.3734L14.4319 41.71C14.3572 42.0748 14.449 42.4492 14.6847 42.7372C14.9194 43.0252 15.266 43.1905 15.6383 43.1905H15.6372ZM18.2932 30.9921H34.7188L33.7066 41.5894H16.0895L18.2932 30.9921Z" fill="#313131"/>
<path d="M31.8104 34.8098H20.1442C19.9321 34.8098 19.7286 34.8941 19.5786 35.0441C19.4285 35.1942 19.3442 35.3976 19.3442 35.6098C19.3442 35.822 19.4285 36.0255 19.5786 36.1755C19.7286 36.3255 19.9321 36.4098 20.1442 36.4098H31.8104C32.0225 36.4098 32.226 36.3255 32.3761 36.1755C32.5261 36.0255 32.6104 35.822 32.6104 35.6098C32.6104 35.3976 32.5261 35.1942 32.3761 35.0441C32.226 34.8941 32.0225 34.8098 31.8104 34.8098ZM23.1138 38.7479H20.2733C20.0611 38.7479 19.8576 38.8322 19.7076 38.9823C19.5576 39.1323 19.4733 39.3358 19.4733 39.5479C19.4733 39.7601 19.5576 39.9636 19.7076 40.1136C19.8576 40.2637 20.0611 40.348 20.2733 40.348H23.1138C23.326 40.348 23.5295 40.2637 23.6795 40.1136C23.8296 39.9636 23.9138 39.7601 23.9138 39.5479C23.9138 39.3358 23.8296 39.1323 23.6795 38.9823C23.5295 38.8322 23.326 38.7479 23.1138 38.7479ZM30.8653 38.7479H28.0248C27.8126 38.7479 27.6091 38.8322 27.4591 38.9823C27.3091 39.1323 27.2248 39.3358 27.2248 39.5479C27.2248 39.7601 27.3091 39.9636 27.4591 40.1136C27.6091 40.2637 27.8126 40.348 28.0248 40.348H30.8653C31.0775 40.348 31.281 40.2637 31.431 40.1136C31.581 39.9636 31.6653 39.7601 31.6653 39.5479C31.6653 39.3358 31.581 39.1323 31.431 38.9823C31.281 38.8322 31.0775 38.7479 30.8653 38.7479Z" fill="#313131"/>
</g>
<defs>
<clipPath id="clip0_2007_1172">
<rect width="80" height="80" fill="white"/>
</clipPath>
</defs>
</svg>
