<svg width="96" height="96" viewBox="0 0 96 96" fill="none" xmlns="http://www.w3.org/2000/svg">
<path fill-rule="evenodd" clip-rule="evenodd" d="M8 48.0601C8 26.9885 24.84 8 48.08 8C70.8 8 88 26.6279 88 47.9399C88 72.657 67.84 88 48 88C41.44 88 34.16 86.2374 28.32 82.7922C26.28 81.5503 24.56 80.6289 22.36 81.35L14.28 83.7536C12.24 84.3946 10.4 82.7922 11 80.6289L13.68 71.6555C14.12 70.4136 14.04 69.0916 13.4 68.0501C9.96 61.7206 8 54.7902 8 48.0601ZM42.8 48.0601C42.8 50.9044 45.08 53.1878 47.92 53.2278C50.76 53.2278 53.04 50.9044 53.04 48.1001C53.04 45.2559 50.76 42.9725 47.92 42.9725C45.12 42.9324 42.8 45.2559 42.8 48.0601ZM61.24 48.1002C61.24 50.9044 63.52 53.2278 66.36 53.2278C69.2 53.2278 71.48 50.9044 71.48 48.1002C71.48 45.2559 69.2 42.9725 66.36 42.9725C63.52 42.9725 61.24 45.2559 61.24 48.1002ZM29.48 53.2278C26.68 53.2278 24.36 50.9044 24.36 48.1001C24.36 45.2559 26.64 42.9725 29.48 42.9725C32.32 42.9725 34.6 45.2559 34.6 48.1001C34.6 50.9044 32.32 53.1878 29.48 53.2278Z" fill="url(#paint0_linear_1660_9231)" fill-opacity="0.4"/>
<defs>
<linearGradient id="paint0_linear_1660_9231" x1="23.4894" y1="75.5745" x2="89.8723" y2="35.0638" gradientUnits="userSpaceOnUse">
<stop stop-color="white"/>
<stop offset="1" stop-color="white" stop-opacity="0.3"/>
</linearGradient>
</defs>
</svg>
