<svg width="48" height="48" viewBox="0 0 48 48" fill="none" xmlns="http://www.w3.org/2000/svg">
<path d="M1.6375 21.5H6.5C7.82608 21.5 9.09785 22.0268 10.0355 22.9645C10.9732 23.9021 11.5 25.1739 11.5 26.5V29C11.5 30.3261 12.0268 31.5979 12.9645 32.5355C13.9021 33.4732 15.1739 34 16.5 34C17.8261 34 19.0979 34.5268 20.0355 35.4645C20.9732 36.4021 21.5 37.6739 21.5 39V46.3625M14 3.8375V7.75C14 9.4076 14.6585 10.9973 15.8306 12.1694C17.0027 13.3415 18.5924 14 20.25 14H21.5C22.8261 14 24.0979 14.5268 25.0355 15.4645C25.9732 16.4021 26.5 17.6739 26.5 19C26.5 20.3261 27.0268 21.5979 27.9645 22.5355C28.9021 23.4732 30.1739 24 31.5 24C32.8261 24 34.0979 23.4732 35.0355 22.5355C35.9732 21.5979 36.5 20.3261 36.5 19C36.5 17.6739 37.0268 16.4021 37.9645 15.4645C38.9021 14.5268 40.1739 14 41.5 14H44.16M31.5 45.22V39C31.5 37.6739 32.0268 36.4021 32.9645 35.4645C33.9021 34.5268 35.1739 34 36.5 34H44.16M46.5 24C46.5 26.9547 45.918 29.8806 44.7873 32.6104C43.6566 35.3402 41.9992 37.8206 39.9099 39.9099C37.8206 41.9992 35.3402 43.6566 32.6104 44.7873C29.8806 45.918 26.9547 46.5 24 46.5C21.0453 46.5 18.1194 45.918 15.3896 44.7873C12.6598 43.6566 10.1794 41.9992 8.0901 39.9099C6.00078 37.8206 4.34344 35.3402 3.21271 32.6104C2.08198 29.8806 1.5 26.9547 1.5 24C1.5 18.0326 3.87053 12.3097 8.0901 8.0901C12.3097 3.87053 18.0326 1.5 24 1.5C29.9674 1.5 35.6903 3.87053 39.9099 8.0901C44.1295 12.3097 46.5 18.0326 46.5 24Z" stroke="#00A7AA" stroke-width="3" stroke-linecap="round" stroke-linejoin="round"/>
</svg>
