<svg width="30" height="30" viewBox="0 0 30 30" fill="none" xmlns="http://www.w3.org/2000/svg">
<path d="M28.2012 13.2009L16.5343 13.2361V1.79881C16.5348 1.56245 16.4886 1.32831 16.3984 1.10984C16.3082 0.891368 16.1757 0.692867 16.0086 0.525732C15.8414 0.358596 15.6429 0.226116 15.4244 0.135897C15.206 0.0456782 14.9718 -0.00050309 14.7355 4.13327e-06C14.4991 -0.00050309 14.265 0.0456782 14.0465 0.135897C13.828 0.226116 13.6295 0.358596 13.4624 0.525732C13.2953 0.692867 13.1628 0.891368 13.0726 1.10984C12.9823 1.32831 12.9362 1.56245 12.9367 1.79881L12.9719 13.2012H1.79881C1.56245 13.2007 1.32831 13.2469 1.10984 13.3371C0.891368 13.4273 0.692867 13.5598 0.525732 13.7269C0.358596 13.8941 0.226116 14.0926 0.135897 14.311C0.0456782 14.5295 -0.000503088 14.7636 4.13555e-06 15C-0.00050324 15.2364 0.0456803 15.4705 0.135903 15.6889C0.226126 15.9074 0.358611 16.1059 0.525751 16.273C0.692891 16.4401 0.891394 16.5725 1.10986 16.6627C1.32833 16.7529 1.56246 16.799 1.79881 16.7985H12.9543V28.2012C12.9538 28.4376 13 28.6717 13.0903 28.8901C13.1805 29.1086 13.313 29.3071 13.4801 29.4742C13.6473 29.6413 13.8457 29.7738 14.0642 29.864C14.2826 29.9543 14.5168 30.0005 14.7531 30C14.9895 30.0005 15.2236 29.9543 15.442 29.864C15.6605 29.7738 15.859 29.6413 16.0261 29.4742C16.1932 29.3071 16.3257 29.1086 16.4159 28.8901C16.5062 28.6717 16.5524 28.4376 16.5519 28.2012V16.7988H28.2012C28.4376 16.7993 28.6717 16.7531 28.8901 16.6628C29.1086 16.5726 29.3071 16.4401 29.4742 16.273C29.6413 16.1059 29.7738 15.9074 29.864 15.6889C29.9543 15.4705 30.0005 15.2364 30 15C29.9996 14.523 29.8099 14.0657 29.4727 13.7284C29.1355 13.3911 28.6782 13.2014 28.2012 13.2009Z" fill="#313131"/>
</svg>
