<svg width="28" height="28" viewBox="0 0 28 28" fill="none" xmlns="http://www.w3.org/2000/svg">
<path fill-rule="evenodd" clip-rule="evenodd" d="M25.1983 10.1947L26.1586 11.1547C26.9189 11.9013 27.3324 12.9147 27.3324 13.9813C27.3457 15.048 26.9322 16.0627 26.1853 16.8213C26.1764 16.8311 26.1675 16.8397 26.1586 16.8483C26.1542 16.8526 26.1497 16.8569 26.1453 16.8613L25.1983 17.808C24.8248 18.1813 24.6114 18.688 24.6114 19.2227V20.5947C24.6114 22.808 22.8107 24.6093 20.5966 24.6093H19.2228C18.6892 24.6093 18.1824 24.8213 17.8089 25.1947L16.8486 26.1547C16.0616 26.9427 15.0346 27.328 14.0075 27.328C12.9805 27.328 11.9535 26.9427 11.1665 26.1693L10.1928 25.1947C9.81935 24.8213 9.3125 24.6093 8.77898 24.6093H7.40515C5.19101 24.6093 3.39036 22.808 3.39036 20.5947V19.2227C3.39036 18.688 3.17695 18.1813 2.80348 17.7947L1.84313 16.848C0.282565 15.2893 0.269227 12.7413 1.82979 11.1693L2.80348 10.1947C3.17695 9.82132 3.39036 9.31465 3.39036 8.76799V7.40799C3.39036 5.19465 5.19101 3.39598 7.40515 3.39598H8.77898C9.3125 3.39598 9.81935 3.18132 10.1928 2.80798L11.1532 1.84798C12.7137 0.275985 15.2613 0.275985 16.8352 1.83598L17.8089 2.80798C18.1824 3.18132 18.6892 3.39598 19.2228 3.39598H20.5966C22.8107 3.39598 24.6114 5.19465 24.6114 7.40799V8.78265C24.6114 9.31465 24.8248 9.82132 25.1983 10.1947ZM10.5663 18.5947C10.8864 18.5947 11.1798 18.4747 11.3933 18.248L18.2491 11.396C18.7026 10.9427 18.7026 10.1947 18.2491 9.74132C17.7956 9.28932 17.062 9.28932 16.6085 9.74132L9.75266 16.5947C9.29917 17.048 9.29917 17.7947 9.75266 18.248C9.96607 18.4747 10.2595 18.5947 10.5663 18.5947ZM16.2617 17.4213C16.2617 18.0747 16.7819 18.5947 17.4354 18.5947C18.0757 18.5947 18.5959 18.0747 18.5959 17.4213C18.5959 16.7827 18.0757 16.2613 17.4354 16.2613C16.7819 16.2613 16.2617 16.7827 16.2617 17.4213ZM10.5796 9.40798C11.2199 9.40798 11.7401 9.92799 11.7401 10.568C11.7401 11.2227 11.2199 11.7413 10.5796 11.7413C9.9394 11.7413 9.40587 11.2227 9.40587 10.568C9.40587 9.92799 9.9394 9.40798 10.5796 9.40798Z" fill="white"/>
</svg>
