<svg width="22" height="20" viewBox="0 0 22 20" fill="none" xmlns="http://www.w3.org/2000/svg">
<path d="M8.78071 4.37561H3.22515C2.63578 4.37561 2.07055 4.61266 1.6538 5.03462C1.23706 5.45658 1.00293 6.02887 1.00293 6.62561V16.7506C1.00293 17.3473 1.23706 17.9196 1.6538 18.3416C2.07055 18.7636 2.63578 19.0006 3.22515 19.0006H18.7807C19.3701 19.0006 19.9353 18.7636 20.3521 18.3416C20.7688 17.9196 21.0029 17.3473 21.0029 16.7506V6.62561C21.0029 6.02887 20.7688 5.45658 20.3521 5.03462C19.9353 4.61266 19.3701 4.37561 18.7807 4.37561H13.2252M8.78071 4.37561V3.25061C8.78071 2.65387 9.01483 2.08158 9.43158 1.65962C9.84833 1.23766 10.4136 1.00061 11.0029 1.00061C11.5923 1.00061 12.1575 1.23766 12.5743 1.65962C12.991 2.08158 13.2252 2.65387 13.2252 3.25061V4.37561M8.78071 4.37561C8.78071 4.97235 9.01483 5.54464 9.43158 5.9666C9.84833 6.38856 10.4136 6.62561 11.0029 6.62561C11.5923 6.62561 12.1575 6.38856 12.5743 5.9666C12.991 5.54464 13.2252 4.97235 13.2252 4.37561M7.6696 13.3756C8.25897 13.3756 8.8242 13.1386 9.24094 12.7166C9.65769 12.2946 9.89182 11.7223 9.89182 11.1256C9.89182 10.5289 9.65769 9.95658 9.24094 9.53462C8.8242 9.11266 8.25897 8.87561 7.6696 8.87561C7.08023 8.87561 6.515 9.11266 6.09825 9.53462C5.6815 9.95658 5.44737 10.5289 5.44737 11.1256C5.44737 11.7223 5.6815 12.2946 6.09825 12.7166C6.515 13.1386 7.08023 13.3756 7.6696 13.3756ZM7.6696 13.3756C9.12071 13.3756 10.3552 14.315 10.814 15.6256M7.6696 13.3756C6.98002 13.3754 6.30735 13.5917 5.74421 13.9946C5.18107 14.3976 4.75516 14.9674 4.52515 15.6256M14.3363 10.0006H17.6696M14.3363 14.5006H16.5585" stroke="#1B1B26" stroke-width="1.4" stroke-linecap="round" stroke-linejoin="round"/>
</svg>
