<svg width="21" height="20" viewBox="0 0 21 20" fill="none" xmlns="http://www.w3.org/2000/svg">
<path d="M10.048 14.6768V12.1398" stroke="#1B1B26" stroke-width="1.5" stroke-linecap="round" stroke-linejoin="round"/>
<path fill-rule="evenodd" clip-rule="evenodd" d="M16.269 3.3302C17.966 3.3302 19.3317 4.7002 19.3317 6.3902V9.8302C16.8614 11.2702 13.5979 12.1402 10.0431 12.1402C6.4884 12.1402 3.2349 11.2702 0.764648 9.8302V6.3802C0.764648 4.6902 2.14036 3.3302 3.8374 3.3302H16.269Z" stroke="#1B1B26" stroke-width="1.5" stroke-linecap="round" stroke-linejoin="round"/>
<path d="M13.5633 3.3258V2.9598C13.5633 1.7398 12.5692 0.749802 11.3441 0.749802H8.75339C7.5283 0.749802 6.53418 1.7398 6.53418 2.9598V3.3258" stroke="#1B1B26" stroke-width="1.5" stroke-linecap="round" stroke-linejoin="round"/>
<path d="M0.789062 13.483L0.97885 15.992C1.10738 17.683 2.52225 18.99 4.22432 18.99H15.8716C17.5737 18.99 18.9886 17.683 19.1171 15.992L19.3069 13.483" stroke="#1B1B26" stroke-width="1.5" stroke-linecap="round" stroke-linejoin="round"/>
</svg>
