<svg width="23" height="21" viewBox="0 0 23 21" fill="none" xmlns="http://www.w3.org/2000/svg">
<path d="M11.5029 14.1256L21.4809 8.43164C22.1534 8.04788 22.1534 7.07834 21.4809 6.69458L12.4942 1.56627C11.8798 1.2157 11.126 1.2157 10.5117 1.56628L1.52493 6.69458C0.852438 7.07834 0.852438 8.04788 1.52493 8.43164L11.5029 14.1256ZM11.5029 14.1256L19.374 9.63424C19.3714 12.7081 19.374 12.9018 19.374 16.0006C16.133 16.3237 13.9271 16.7676 11.5029 19.0006C9.07905 16.7678 6.87365 16.324 3.6331 16.0006C3.6331 13.5215 3.63451 12.7081 3.6331 9.63424L11.5029 14.1256ZM6.39182 20.0006V11.2087L11.5029 7.00061" stroke="#1B1B26" stroke-width="1.4" stroke-linecap="round" stroke-linejoin="round"/>
</svg>
