<svg width="48" height="48" viewBox="0 0 48 48" fill="none" xmlns="http://www.w3.org/2000/svg">
<path d="M46.5447 6.76368H22.6902L21.5266 5.67277C21.3811 5.52732 21.2357 5.45459 21.0175 5.45459H10.1084C9.67202 5.45459 9.38111 5.7455 9.38111 6.18186V6.69095H1.45384C1.01747 6.69095 0.726562 6.98186 0.726562 7.41823V37.4546C0.726562 40.2182 2.98111 42.4728 5.74474 42.4728H42.1811C44.9447 42.4728 47.1993 40.2182 47.1993 37.4546V7.49095C47.272 7.05459 46.9811 6.76368 46.5447 6.76368ZM45.8175 8.21823V10.6182H26.9811L24.2902 8.21823H45.8175ZM2.18111 37.4546V8.21823H9.38111V37.5273C9.38111 39.491 7.78111 41.091 5.81747 41.091C3.78111 41.091 2.18111 39.4182 2.18111 37.4546ZM45.8175 37.4546C45.8175 39.4182 44.2175 41.0182 42.2538 41.0182H9.30838C10.2538 40.0728 10.8357 38.8364 10.8357 37.4546V6.90914H20.7266L26.1811 11.8546C26.3266 12 26.472 12.0728 26.6902 12.0728H45.8175V37.4546Z" fill="#313131"/>
<path d="M13.7449 12.3637H20.2176C20.6539 12.3637 20.9449 12.0728 20.9449 11.6365C20.9449 11.2001 20.6539 10.9092 20.2176 10.9092H13.7449C13.3085 10.9092 13.0176 11.2001 13.0176 11.6365C13.0176 12.0001 13.3085 12.3637 13.7449 12.3637ZM17.3812 15.2728H13.7449C13.3085 15.2728 13.0176 15.5637 13.0176 16.0001C13.0176 16.4365 13.3085 16.7274 13.7449 16.7274H17.3812C17.8176 16.7274 18.1085 16.4365 18.1085 16.0001C18.1085 15.5637 17.8176 15.2728 17.3812 15.2728ZM25.163 16.9455V24.0001H21.8903C21.5994 24.0001 21.3085 24.1455 21.2358 24.4365C21.0903 24.7274 21.163 25.0183 21.3812 25.2365L28.7267 33.5274C28.8721 33.6728 29.0903 33.7455 29.2358 33.7455C29.4539 33.7455 29.6721 33.6728 29.7449 33.5274L37.0903 25.2365C37.3085 25.0183 37.3085 24.7274 37.2358 24.4365C37.0903 24.1455 36.8721 24.0001 36.5812 24.0001H33.3085V16.9455C33.3085 16.5092 33.0176 16.2183 32.5812 16.2183H26.0358C25.5267 16.2183 25.163 16.5819 25.163 16.9455ZM26.6176 24.8001V17.7455H31.7085V24.8001C31.7085 25.2365 31.9994 25.5274 32.4358 25.5274H34.9085L29.163 32.0001L23.4903 25.5274H25.8903C26.3267 25.5274 26.6176 25.1637 26.6176 24.8001Z" fill="#2291FF"/>
<path d="M36.4348 35.491H21.8893C21.4529 35.491 21.0893 35.1274 21.0893 34.691V32.291C21.0893 31.8546 20.7984 31.5637 20.362 31.5637C19.9257 31.5637 19.6348 31.8546 19.6348 32.291V34.691C19.6348 35.9274 20.6529 36.9455 21.8893 36.9455H36.4348C37.6711 36.9455 38.6893 35.9274 38.6893 34.691V32.291C38.6893 31.8546 38.3984 31.5637 37.962 31.5637C37.5257 31.5637 37.2348 31.8546 37.2348 32.291V34.691C37.3075 35.1274 36.9439 35.491 36.4348 35.491Z" fill="#313131"/>
</svg>
