<svg width="24" height="24" viewBox="0 0 24 24" fill="none" xmlns="http://www.w3.org/2000/svg">
<path d="M10.9105 0.978323C6.14583 1.44973 2.1974 4.9584 1.18498 9.62818C1.04261 10.2736 0.928711 11.1721 0.928711 11.634V11.7891L1.77345 11.7669C4.89296 11.6878 6.54131 11.4664 7.83531 10.9538C9.30964 10.3685 10.3695 9.30864 10.9517 7.83746C11.3376 6.86617 11.5686 5.6133 11.6857 3.83841C11.7205 3.2879 11.7806 1.706 11.7806 1.23459V0.927702L11.5686 0.930865C11.4484 0.934029 11.1541 0.956176 10.9105 0.978323Z" fill="#1B1B26"/>
<path d="M12.4448 1.42442C12.4448 2.09198 12.4986 3.39231 12.5556 4.17061C12.7296 6.50866 13.1345 7.95769 13.9287 9.07135C14.2988 9.59338 14.9474 10.1945 15.4979 10.5204C16.89 11.3493 18.6143 11.6625 22.3254 11.7669L23.0752 11.7891V11.6499C23.0752 11.1848 22.9582 10.2609 22.819 9.62818C21.8698 5.25263 18.3358 1.86735 13.9002 1.08589C13.6028 1.03527 12.6536 0.927702 12.486 0.927702C12.4543 0.927702 12.4448 1.02894 12.4448 1.42442Z" fill="#1B1B26"/>
<path d="M0.944276 12.7001C1.16891 15.788 2.52618 18.4645 4.88322 20.4831C6.31959 21.7169 8.30014 22.625 10.2142 22.9318C10.5907 22.9951 11.3817 23.0742 11.619 23.0742H11.7898L11.7677 22.3402C11.7044 20.1509 11.5937 18.8917 11.3659 17.797C11.0685 16.3701 10.5844 15.3735 9.79029 14.5509C8.36025 13.0766 6.38919 12.5514 1.93138 12.4565L0.925293 12.4343L0.944276 12.7001Z" fill="#1B1B26"/>
<path d="M21.7305 12.466C17.5289 12.6052 15.637 13.1778 14.2702 14.7154C13.0901 16.0442 12.6187 17.8255 12.4763 21.5081C12.432 22.6534 12.4352 23.0742 12.4858 23.0742C12.6472 23.0742 13.571 22.9698 13.8779 22.916C15.1086 22.7009 16.3362 22.2706 17.3866 21.6821C20.1739 20.1192 22.1766 17.411 22.8346 14.3105C22.9422 13.8043 23.0688 12.8266 23.0751 12.466C23.0751 12.447 22.3442 12.4438 21.7305 12.466Z" fill="#1B1B26"/>
</svg>
