<svg width="32" height="32" viewBox="0 0 32 32" fill="none" xmlns="http://www.w3.org/2000/svg">
<path d="M31 27.001H17C16.448 27.001 16 26.555 16 26.001V6.00098C16 5.44898 16.448 5.00098 17 5.00098H31C31.552 5.00098 32 5.44898 32 6.00098V26.001C32 26.555 31.552 27.001 31 27.001Z" fill="#ECEFF1"/>
<path d="M27 11.001H17C16.448 11.001 16 10.555 16 10.001C16 9.44698 16.448 9.00098 17 9.00098H27C27.552 9.00098 28 9.44898 28 10.001C28 10.553 27.552 11.001 27 11.001ZM27 15.001H17C16.448 15.001 16 14.555 16 14.001C16 13.447 16.448 13.001 17 13.001H27C27.552 13.001 28 13.449 28 14.001C28 14.553 27.552 15.001 27 15.001ZM27 19.001H17C16.448 19.001 16 18.555 16 18.001C16 17.447 16.448 17.001 17 17.001H27C27.552 17.001 28 17.449 28 18.001C28 18.553 27.552 19.001 27 19.001ZM27 23.001H17C16.448 23.001 16 22.555 16 22.001C16 21.447 16.448 21.001 17 21.001H27C27.552 21.001 28 21.449 28 22.001C28 22.553 27.552 23.001 27 23.001Z" fill="#2E70F2"/>
<path d="M17.638 1.23253C17.41 1.04053 17.104 0.960531 16.816 1.01853L0.816 4.01853C0.344 4.10653 0 4.52053 0 5.00053V27.0005C0 27.4805 0.342 27.8945 0.816 27.9825L16.816 30.9825C16.8766 30.9945 16.9382 31.0005 17 31.0005C17.232 31.0005 17.458 30.9205 17.638 30.7705C17.7514 30.6768 17.8426 30.5592 17.9052 30.4261C17.9678 30.2929 18.0002 30.1476 18 30.0005V2.00053C18 1.70253 17.868 1.42253 17.638 1.23253Z" fill="#2E70F2"/>
<path d="M12.9942 21.1127C12.9422 21.5707 12.5822 21.9367 12.1242 21.9927C12.0831 21.9983 12.0416 22.001 12.0002 22.0007C11.7968 22.0003 11.5984 21.9381 11.4313 21.8224C11.2641 21.7067 11.1361 21.5429 11.0642 21.3527L9.00015 15.8487L6.93615 21.3527C6.77615 21.7807 6.35615 22.0427 5.89215 21.9947C5.43815 21.9467 5.07415 21.5947 5.01015 21.1407L4.01015 14.1407C3.93215 13.5967 4.31215 13.0887 4.85815 13.0107C5.40615 12.9307 5.91215 13.3127 5.99015 13.8587L6.43615 16.9867L8.06215 12.6487C8.35415 11.8687 9.64215 11.8687 9.93615 12.6487L11.4682 16.7327L12.0062 11.8887C12.0682 11.3407 12.5761 10.9467 13.1102 11.0047C13.6602 11.0687 14.0542 11.5627 13.9942 12.1107L12.9942 21.1127Z" fill="#FAFAFA"/>
</svg>
