<svg width="38" height="38" viewBox="0 0 38 38" fill="none" xmlns="http://www.w3.org/2000/svg">
<rect x="5" y="1" width="28" height="36" rx="4" fill="#2291FF"/>
<path d="M26.339 19.1082C25.5427 19.1082 24.5652 19.2126 23.4292 19.4199C21.8435 17.729 20.1884 15.2597 19.0203 12.8357C20.1789 7.93466 19.5992 7.24073 19.3435 6.91335C19.0714 6.56507 18.6876 6 18.2508 6C18.068 6 17.5689 6.08359 17.3705 6.14976C16.8713 6.31693 16.6027 6.70351 16.3878 7.20764C15.7752 8.64688 16.6157 11.1005 17.4805 12.9916C16.7414 15.9458 15.5014 19.4817 14.1981 22.3515C10.914 23.863 9.16964 25.3475 9.01193 26.7641C8.95474 27.2795 9.07606 28.0362 9.97811 28.7162C10.2251 28.9016 10.5145 29 10.816 29C11.5743 29 12.3403 28.4166 13.2267 27.1655C13.8732 26.253 14.5672 25.0088 15.2917 23.4642C17.6122 22.4446 20.483 21.5234 22.9414 21.0071C24.3105 22.3279 25.5366 22.9966 26.5903 22.9966C27.3667 22.9966 28.0322 22.6379 28.514 21.9596C29.0157 21.2535 29.1301 20.6214 28.8519 20.079C28.5183 19.4268 27.696 19.1082 26.339 19.1082ZM10.8351 27.5303C10.4296 27.2177 10.453 27.007 10.4616 26.9278C10.5154 26.4437 11.2701 25.5843 13.1219 24.5386C11.7181 27.1437 10.9642 27.4894 10.8351 27.5303ZM17.9406 7.57246C17.9779 7.56027 18.8462 8.53108 18.0238 10.3726C16.7881 9.10225 17.8557 7.60119 17.9406 7.57246ZM16.1495 21.526C17.0443 19.3762 17.8179 17.1774 18.4666 14.9402C19.4397 16.6972 20.6087 18.402 21.7785 19.7673C19.8645 20.224 17.9838 20.8116 16.1495 21.526ZM27.3286 21.109C27.0617 21.4843 26.4829 21.493 26.2801 21.493C25.8182 21.493 25.6458 21.217 24.9396 20.671C25.4602 20.6066 25.9843 20.5752 26.5089 20.577C27.2792 20.577 27.4204 20.6911 27.527 20.7485C27.508 20.8103 27.4577 20.927 27.3286 21.109Z" fill="white"/>
</svg>
