<svg width="30" height="30" viewBox="0 0 30 30" fill="none" xmlns="http://www.w3.org/2000/svg">
<path d="M14.9931 27.5974C12.9843 27.5982 11.005 27.1133 9.22396 26.1842C8.8846 26.0229 8.49579 26.0002 8.13997 26.1209L5.83255 26.8416C5.46609 26.9561 5.07482 26.9655 4.70329 26.8687C4.33175 26.7718 3.99487 26.5726 3.73099 26.2937C3.46711 26.0148 3.28682 25.6674 3.21065 25.2911C3.13448 24.9147 3.16548 24.5246 3.30013 24.165L4.02435 22.2349C4.09873 22.0497 4.13222 21.8505 4.12251 21.6511C4.1128 21.4516 4.06013 21.2567 3.9681 21.0795C2.95913 19.2488 2.42169 17.1958 2.40425 15.1055C2.3868 13.0153 2.88991 10.9536 3.86818 9.1063C4.84646 7.25904 6.26915 5.68432 8.00795 4.52416C9.74675 3.36399 11.747 2.65486 13.8283 2.46072C17.0288 2.15823 20.224 3.09045 22.7598 5.06659C25.2955 7.04272 26.9801 9.91332 27.4687 13.0908C27.9573 16.2683 27.213 19.5124 25.3881 22.1591C23.5632 24.8058 20.7957 26.6549 17.6521 27.3279C16.7772 27.5079 15.8863 27.5982 14.9931 27.5974ZM8.62865 24.2857C9.11782 24.2838 9.60022 24.4 10.0349 24.6244C11.5311 25.3958 13.1864 25.808 14.8696 25.8283C16.5528 25.8486 18.2176 25.4764 19.732 24.7413C21.2463 24.0061 22.5685 22.9283 23.5938 21.5932C24.619 20.2581 25.3191 18.7025 25.6385 17.0498C25.9579 15.397 25.8878 13.6926 25.4338 12.0716C24.9798 10.4507 24.1544 8.95777 23.023 7.71136C21.8916 6.46495 20.4853 5.4993 18.9158 4.89098C17.3462 4.28266 15.6565 4.04842 13.9806 4.20682C12.1907 4.37571 10.4709 4.98727 8.97615 5.98638C7.48144 6.98549 6.25877 8.34076 5.41829 9.9301C4.57782 11.5194 4.14596 13.2929 4.16161 15.0907C4.17726 16.8885 4.63993 18.6542 5.50794 20.2287C5.72377 20.628 5.85023 21.0695 5.87856 21.5226C5.90688 21.9756 5.83641 22.4294 5.67201 22.8525L4.94544 24.7814C4.925 24.8327 4.91998 24.8889 4.93102 24.943C4.94205 24.9972 4.96865 25.0469 5.00755 25.0861C5.04496 25.1263 5.09303 25.155 5.14615 25.1689C5.19927 25.1828 5.25525 25.1813 5.30755 25.1646L7.61615 24.4439C7.94366 24.3401 8.28507 24.2868 8.62865 24.2857Z" fill="#313131"/>
<path d="M15 17.9297C14.7669 17.9297 14.5433 17.8371 14.3785 17.6723C14.2137 17.5074 14.1211 17.2839 14.1211 17.0508V9.14062C14.1211 8.90752 14.2137 8.68397 14.3785 8.51914C14.5433 8.35432 14.7669 8.26172 15 8.26172C15.2331 8.26172 15.4567 8.35432 15.6215 8.51914C15.7863 8.68397 15.8789 8.90752 15.8789 9.14062V17.0508C15.8789 17.2839 15.7863 17.5074 15.6215 17.6723C15.4567 17.8371 15.2331 17.9297 15 17.9297Z" fill="#313131"/>
<path d="M15 22.0312C15.809 22.0312 16.4648 21.3754 16.4648 20.5664C16.4648 19.7574 15.809 19.1016 15 19.1016C14.191 19.1016 13.5352 19.7574 13.5352 20.5664C13.5352 21.3754 14.191 22.0312 15 22.0312Z" fill="#313131"/>
</svg>
