<svg width="14" height="10" viewBox="0 0 14 10" fill="none" xmlns="http://www.w3.org/2000/svg">
<path fill-rule="evenodd" clip-rule="evenodd" d="M13.7074 0.293611C13.8949 0.481138 14.0002 0.735446 14.0002 1.00061C14.0002 1.26577 13.8949 1.52008 13.7074 1.70761L5.70741 9.70761C5.51988 9.89508 5.26557 10.0004 5.00041 10.0004C4.73524 10.0004 4.48094 9.89508 4.29341 9.70761L0.293407 5.70761C0.111249 5.51901 0.0104547 5.26641 0.0127331 5.00421C0.0150115 4.74201 0.12018 4.4912 0.305589 4.30579C0.490997 4.12038 0.741809 4.01522 1.00401 4.01294C1.2662 4.01066 1.5188 4.11145 1.70741 4.29361L5.00041 7.58661L12.2934 0.293611C12.4809 0.10614 12.7352 0.000823975 13.0004 0.000823975C13.2656 0.000823975 13.5199 0.10614 13.7074 0.293611Z" fill="#63D7DF"/>
</svg>
