<svg width="34" height="28" viewBox="0 0 34 28" fill="none" xmlns="http://www.w3.org/2000/svg">
<path d="M11.3048 23.3337C16.5451 23.3337 20.7931 19.155 20.7931 14.0003C20.7931 8.84567 16.5451 4.66699 11.3048 4.66699C6.06449 4.66699 1.81641 8.84567 1.81641 14.0003C1.81641 19.155 6.06449 23.3337 11.3048 23.3337Z" fill="#F93232"/>
<path d="M22.6917 4.66699C20.6042 4.66699 18.6117 5.41366 16.9986 6.53366C16.6191 6.81366 16.2396 7.09366 15.9549 7.46699H18.0424C18.327 7.74699 18.6117 8.02699 18.8963 8.40033H15.101C14.9112 8.68033 14.6265 9.05366 14.4368 9.33366H19.4656C19.6554 9.61366 19.8451 9.98699 19.94 10.267H13.9624C13.8675 10.547 13.6777 10.9203 13.5828 11.2003H20.2247C20.3196 11.4803 20.4144 11.8537 20.5093 12.1337H13.2982C13.2033 12.4137 13.2033 12.787 13.1084 13.067H20.6042C20.6042 13.347 20.6991 13.7203 20.6991 14.0003H13.1084C13.1084 14.2803 13.1084 14.6537 13.2033 14.9337H20.6991C20.6991 15.2137 20.6042 15.587 20.5093 15.867H13.2982C13.3931 16.147 13.4879 16.5203 13.5828 16.8003H20.2247C20.1298 17.0803 20.0349 17.4537 19.8451 17.7337H13.8675C14.0572 18.0137 14.1521 18.387 14.3419 18.667H19.3707C19.181 18.947 18.9912 19.3203 18.7065 19.6003H15.101C15.3856 19.9737 15.6703 20.2537 15.9549 20.5337H18.0424C17.7577 20.907 17.3782 21.187 16.9986 21.467C18.6117 22.6803 20.5093 23.3337 22.6917 23.3337C27.9103 23.3337 32.18 19.1337 32.18 14.0003C32.18 8.86699 27.9103 4.66699 22.6917 4.66699Z" fill="#FED049"/>
</svg>
