<svg width="64" height="28" viewBox="0 0 64 28" fill="none" xmlns="http://www.w3.org/2000/svg">
<path d="M1.63281 21.1028V4.3985C1.63281 4.3985 7.64225 4.26499 8.17578 4.49345C8.70929 4.72192 9.59459 5.48935 9.88836 6.4889C9.88836 6.4889 12.1824 14.3191 12.3149 14.3191H12.6542C12.7867 14.3191 14.6529 7.10199 14.8969 6.4889C15.141 5.8758 15.8586 4.77173 16.8253 4.51202C17.7921 4.25231 23.1954 4.38997 23.1954 4.38997V21.1028H17.9245V11.1955L17.9126 11.1916C17.7215 11.1293 17.6935 11.1202 17.4958 11.1955L14.3925 21.1028H10.6039L7.46109 11.1947C7.28116 11.1452 7.17984 11.1403 7.00032 11.1947V21.1028H1.63281Z" fill="#0E754E"/>
<path d="M25.6689 21.0523V4.42956H30.9595L31.0132 14.2846C31.1995 14.352 31.2974 14.3519 31.4461 14.2846L35.2147 6.31718C35.6366 5.52331 36.0866 4.62807 36.9434 4.49043C37.8001 4.35277 42.5744 4.42956 42.5744 4.42956V21.0523H37.2611V11.2995C37.1763 11.2354 36.8639 11.2201 36.7569 11.2995C34.0388 17.4951 32.6979 20.9086 31.142 21.0523C29.586 21.1962 25.6689 21.0523 25.6689 21.0523Z" fill="#0E754E"/>
<path d="M57.2847 4.43555H44.585C45.3269 8.23389 47.7053 11.2437 51.5005 11.2437H62.2864C62.9365 7.74965 59.7288 4.43555 57.2847 4.43555Z" fill="url(#paint0_linear_3032_1558)"/>
<path d="M62.0202 12.3018L44.585 12.3927V21.153H50.017V16.1568H56.6542C58.9891 16.1568 61.0075 14.426 62.0202 12.3018Z" fill="#0E754E"/>
<defs>
<linearGradient id="paint0_linear_3032_1558" x1="45.9863" y1="8.13587" x2="61.6202" y2="7.84468" gradientUnits="userSpaceOnUse">
<stop stop-color="#02AEFF"/>
<stop offset="1" stop-color="#1E5DD8"/>
</linearGradient>
</defs>
</svg>
