<svg width="203" height="40" viewBox="0 0 203 40" fill="none" xmlns="http://www.w3.org/2000/svg">
<g clip-path="url(#clip0_1660_9180)">
<path d="M0 13.7146C0 8.91336 1.71268e-06 6.5136 0.93218 4.68048C1.75094 3.06763 3.06059 1.75674 4.66977 0.934323C6.49869 0 8.8947 0 13.6832 0H26.2251C31.0154 0 33.4096 0 35.2385 0.934323C36.8476 1.75496 38.1555 3.06763 38.976 4.68048C39.9083 6.5136 39.9083 8.91336 39.9083 13.7146V26.2854C39.9083 31.0867 39.9083 33.4864 38.976 35.3195C38.1573 36.9323 36.8476 38.2432 35.2385 39.0656C33.4096 40 31.0135 40 26.2251 40H13.6832C8.89292 40 6.49869 40 4.66977 39.0656C3.06059 38.2451 1.75271 36.9323 0.93218 35.3195C1.71268e-06 33.4864 0 31.0848 0 26.2854V13.7146Z" fill="#FFB401"/>
<path d="M7.35423 6.62438C8.68339 4.92094 10.6895 3.81787 13.2805 3.81787C16.4793 3.81787 18.4854 5.24955 19.9581 6.63326C21.4309 5.24776 23.437 3.81787 26.6358 3.81787C29.2269 3.81787 31.2311 4.92272 32.5622 6.62438C33.8664 8.29587 34.4777 10.4807 34.4777 12.6495C34.4777 17.854 30.3451 21.7014 26.3044 24.6323L20.8035 28.7267C19.7986 29.4744 19.5434 30.8723 20.2187 31.9275C20.9559 33.0822 22.5119 33.3768 23.6195 32.5704L28.7767 28.8208L30.1429 30.7088L24.9859 34.4587C22.7954 36.052 19.7189 35.4694 18.2586 33.1851C16.9241 31.0979 17.4292 28.3304 19.4141 26.8526L24.9256 22.7494L24.9309 22.7441C28.9999 19.7937 32.1474 16.5698 32.1474 12.6477C32.1474 10.8875 31.6477 9.24086 30.7261 8.05963C29.8292 6.91038 28.495 6.14835 26.6339 6.14835C23.8003 6.14835 22.2673 7.58179 20.7858 9.08632C20.5678 9.30835 20.2683 9.43446 19.9564 9.43446C19.6445 9.43446 19.3467 9.31011 19.127 9.08632C17.6454 7.58003 16.1125 6.14835 13.2787 6.14835C11.4179 6.14835 10.0834 6.91214 9.18669 8.05963C8.26515 9.23907 7.76539 10.8875 7.76539 12.6477C7.76539 16.4525 10.7958 20.03 14.6823 22.7299C15.2104 23.0976 15.3416 23.8241 14.9765 24.3534C14.6096 24.8828 13.8848 25.0142 13.3567 24.6483C9.33025 21.8506 5.43848 17.664 5.43848 12.6477C5.43848 10.4807 6.0499 8.29587 7.35423 6.62438Z" fill="white"/>
<path d="M15.6455 11.2558C15.6455 11.1635 15.72 11.0889 15.8121 11.0889H17.8076C17.8998 11.0889 17.9742 11.1635 17.9742 11.2558V14.3785C17.9742 14.4709 18.0486 14.5455 18.1408 14.5455H21.7756C21.8677 14.5455 21.9422 14.4709 21.9422 14.3785V11.2558C21.9422 11.1635 22.0166 11.0889 22.1088 11.0889H24.1042C24.1964 11.0889 24.2709 11.1635 24.2709 11.2558V20.1692C24.2709 20.2616 24.1964 20.3362 24.1042 20.3362H22.1088C22.0166 20.3362 21.9422 20.2616 21.9422 20.1692V17.0465C21.9422 16.9541 21.8677 16.8795 21.7756 16.8795H18.1408C18.0486 16.8795 17.9742 16.9541 17.9742 17.0465V20.1692C17.9742 20.2616 17.8998 20.3362 17.8076 20.3362H15.8121C15.72 20.3362 15.6455 20.2616 15.6455 20.1692V11.2558Z" fill="white"/>
<path d="M32.1734 26.3355C31.4221 26.3355 30.8141 26.9465 30.8141 27.6979C30.8141 28.451 31.4237 29.0603 32.1734 29.0603C32.9231 29.0603 33.5327 28.4494 33.5327 27.6979C33.5327 26.9449 32.9247 26.3355 32.1734 26.3355ZM28.4854 27.6979C28.4854 25.657 30.1373 24.0015 32.1734 24.0015C34.2098 24.0015 35.8615 25.657 35.8615 27.6979C35.8615 29.7406 34.2098 31.3945 32.1734 31.3945C30.1373 31.3945 28.4854 29.7406 28.4854 27.6979Z" fill="white"/>
<path d="M50.0898 27.3671V10.437H51.9959V17.9584H61.7457V10.437H63.6517V27.3671H61.7457V19.7461H51.9959V27.3671H50.0898Z" fill="black"/>
<path d="M71.8326 27.6334C70.5619 27.6334 69.4669 27.2884 68.5519 26.5938C67.6345 25.9014 67.1748 24.9334 67.1748 23.6899C67.1748 22.3838 67.6577 21.3765 68.6235 20.6656C69.5893 19.957 70.8831 19.6004 72.5095 19.6004C73.7964 19.6004 75.0671 19.7787 76.3239 20.133V19.7463C76.3239 18.651 76.0028 17.8104 75.3581 17.2314C74.7135 16.6525 73.8057 16.3607 72.6297 16.3607C71.4051 16.3607 70.1437 16.6595 68.8406 17.2569L68.2861 15.7332C69.8295 15.0246 71.3428 14.668 72.8237 14.668C74.5935 14.668 75.9357 15.1288 76.8552 16.0481C77.7239 16.9188 78.1584 18.1438 78.1584 19.7254V27.3694H76.3239V25.5077C75.2126 26.9249 73.7155 27.6334 71.8326 27.6334ZM72.1953 26.1352C73.355 26.1352 74.3346 25.8203 75.141 25.1928C75.945 24.5629 76.3471 23.7571 76.3471 22.7752V21.6127C75.1248 21.2584 73.9097 21.0801 72.7037 21.0801C71.5599 21.0801 70.6681 21.3094 70.0259 21.7702C69.3812 22.2287 69.0601 22.8539 69.0601 23.6459C69.0601 24.4054 69.3628 25.0098 69.9657 25.4591C70.5665 25.9083 71.3104 26.1352 72.1953 26.1352Z" fill="black"/>
<path d="M82.042 27.3671V10.437H96.1352V27.3671H92.4179V13.7971H85.7593V27.3671H82.042Z" fill="black"/>
<path d="M111.159 25.6978C109.814 27.0037 108.146 27.6567 106.15 27.6567C104.154 27.6567 102.493 27.0061 101.166 25.7093C99.8381 24.4126 99.1748 22.8101 99.1748 20.9089C99.1748 19.0216 99.8474 17.4261 101.19 16.1178C102.534 14.8094 104.202 14.1587 106.198 14.1587C108.195 14.1587 109.856 14.8071 111.182 16.1062C112.508 17.403 113.174 19.0031 113.174 20.9066C113.174 22.7962 112.501 24.3917 111.159 25.6978ZM106.198 24.489C107.213 24.489 108.024 24.1462 108.636 23.4608C109.246 22.7754 109.553 21.9255 109.553 20.9089C109.553 19.9247 109.237 19.0818 108.599 18.3802C107.964 17.6785 107.148 17.3289 106.15 17.3289C105.136 17.3289 104.322 17.6716 103.713 18.357C103.1 19.0425 102.795 19.8923 102.795 20.9089C102.795 21.8931 103.112 22.736 103.75 23.4377C104.385 24.137 105.2 24.489 106.198 24.489Z" fill="black"/>
<path d="M127.582 14.4014V27.367H123.913V17.5461H119.496V27.367H115.829V14.4014H127.582Z" fill="black"/>
<path d="M130.862 31.2391V14.4018H134.529V16.2637C135.559 14.8603 136.901 14.1587 138.56 14.1587C140.171 14.1587 141.552 14.7631 142.712 15.9719C143.872 17.1807 144.449 18.8248 144.449 20.9066C144.449 22.9699 143.874 24.6047 142.724 25.8043C141.573 27.0037 140.185 27.6058 138.56 27.6058C136.952 27.6058 135.608 26.9621 134.529 25.6723V31.2346L130.862 31.2391ZM135.388 23.4863C135.991 24.1555 136.735 24.489 137.62 24.489C138.505 24.489 139.253 24.1555 139.863 23.4863C140.476 22.817 140.781 21.9417 140.781 20.8626C140.781 19.8159 140.476 18.9568 139.863 18.2876C139.251 17.6183 138.505 17.2826 137.62 17.2826C136.735 17.2826 135.991 17.616 135.388 18.2876C134.785 18.9568 134.483 19.8321 134.483 20.9112C134.483 21.9579 134.785 22.817 135.388 23.4863Z" fill="black"/>
<path d="M150.822 27.61C149.551 27.61 148.493 27.2559 147.647 26.5449C146.804 25.8363 146.379 24.8521 146.379 23.5947C146.379 22.2238 146.85 21.191 147.79 20.4986C148.731 19.8062 149.999 19.4589 151.593 19.4589C152.67 19.4589 153.726 19.6372 154.754 19.9915V19.7738C154.754 18.1945 153.83 17.4025 151.979 17.4025C150.868 17.4025 149.678 17.6364 148.407 18.1042L147.49 15.2976C149.068 14.6052 150.741 14.2578 152.511 14.2578C154.458 14.2578 155.914 14.7418 156.88 15.7098C157.813 16.6453 158.28 18.0231 158.28 19.8456V27.3692H154.733V25.9659C153.749 27.0612 152.446 27.61 150.822 27.61ZM151.931 25.0698C152.783 25.0698 153.474 24.8567 154.005 24.4283C154.537 24.0022 154.802 23.4581 154.802 22.7958V22.1427C154.112 21.8209 153.331 21.6611 152.46 21.6611C151.656 21.6611 151.032 21.8185 150.591 22.1312C150.147 22.4461 149.925 22.9023 149.925 23.4974C149.925 23.9814 150.11 24.3635 150.48 24.646C150.854 24.9308 151.337 25.0698 151.931 25.0698Z" fill="black"/>
<path d="M161.44 14.4014H168.536C169.855 14.4014 170.904 14.6932 171.685 15.2721C172.466 15.851 172.856 16.643 172.856 17.6433C172.856 18.998 172.172 19.9729 170.804 20.5704C172.493 21.0868 173.339 22.1751 173.339 23.8355C173.339 24.9308 172.909 25.7945 172.048 26.4244C171.188 27.0542 170.007 27.367 168.512 27.367H161.44V14.4014ZM167.642 19.6024C168.14 19.6024 168.524 19.482 168.788 19.2388C169.053 18.998 169.187 18.6831 169.187 18.2964C169.187 17.9583 169.06 17.6758 168.811 17.4511C168.561 17.2265 168.187 17.113 167.688 17.113H165.059V19.6024H167.642ZM165.061 24.4885H167.956C169.067 24.4885 169.622 24.0532 169.622 23.1825C169.622 22.3442 169.035 21.925 167.859 21.925H165.059L165.061 24.4885Z" fill="black"/>
<path d="M175.919 27.367V14.4014H179.588V19.7228L184.222 14.4014H188.446L183.691 19.7228L189.049 27.367H184.703L181.254 22.4322L179.588 24.2477V27.367H175.919Z" fill="black"/>
<path d="M193.753 31.3105C192.593 31.3105 191.509 31.0118 190.495 30.4142L191.727 27.7537C192.29 28.0918 192.812 28.2609 193.295 28.2609C193.875 28.2609 194.3 27.9782 194.573 27.4156L189.504 14.4014H193.39L196.333 23.2311L199.157 14.4014H202.969L197.997 27.682C197.498 29.0204 196.936 29.9604 196.308 30.5001C195.684 31.0396 194.832 31.3105 193.753 31.3105Z" fill="black"/>
</g>
<defs>
<clipPath id="clip0_1660_9180">
<rect width="203" height="40" fill="white"/>
</clipPath>
</defs>
</svg>
