<svg width="16" height="28" viewBox="0 0 16 28" fill="none" xmlns="http://www.w3.org/2000/svg">
<path fill-rule="evenodd" clip-rule="evenodd" d="M8.00308 14.4312C11.7986 14.4312 14.8844 11.3438 14.8844 7.54982C14.8844 3.75434 11.7986 0.666992 8.00308 0.666992C4.20759 0.666992 1.12173 3.75434 1.12173 7.54982C1.12173 11.3438 4.20759 14.4312 8.00308 14.4312ZM10.7875 20.0445C12.1889 19.7245 13.54 19.1705 14.7844 18.3898C15.7251 17.7957 16.0096 16.5513 15.4155 15.6091C14.8229 14.6654 13.5785 14.3809 12.6363 14.975C9.81711 16.7483 6.18755 16.7468 3.36983 14.975C2.42615 14.3809 1.18173 14.6654 0.590627 15.6091C-0.00343609 16.5513 0.279522 17.7957 1.22173 18.3898C2.46615 19.1705 3.81723 19.7245 5.21869 20.0445L1.36987 23.8919C0.58322 24.68 0.58322 25.9555 1.37135 26.7437C1.76542 27.1363 2.28096 27.3333 2.79651 27.3333C3.31206 27.3333 3.82908 27.1363 4.22315 26.7437L8.00233 22.963L11.7845 26.7437C12.5711 27.5303 13.8481 27.5303 14.6348 26.7437C15.4229 25.9555 15.4229 24.6785 14.6348 23.8919L10.7875 20.0445ZM10.8519 7.54982C10.8519 5.97948 9.5749 4.70099 8.00308 4.70099C6.43273 4.70099 5.15424 5.97948 5.15424 7.54982C5.15424 9.12016 6.43273 10.3987 8.00308 10.3987C9.5749 10.3987 10.8519 9.12016 10.8519 7.54982Z" fill="#EF6F3D"/>
</svg>
