<svg width="24" height="28" viewBox="0 0 24 28" fill="none" xmlns="http://www.w3.org/2000/svg">
<path fill-rule="evenodd" clip-rule="evenodd" d="M7.90034 19.8533H15.0819C15.6231 19.8533 16.072 19.4 16.072 18.8533C16.072 18.3066 15.6231 17.8666 15.0819 17.8666H7.90034C7.35909 17.8666 6.91024 18.3066 6.91024 18.8533C6.91024 19.4 7.35909 19.8533 7.90034 19.8533ZM12.3624 11.2H7.90034C7.35909 11.2 6.91024 11.6533 6.91024 12.2C6.91024 12.7466 7.35909 13.1866 7.90034 13.1866H12.3624C12.9036 13.1866 13.3525 12.7466 13.3525 12.2C13.3525 11.6533 12.9036 11.2 12.3624 11.2ZM21.7834 10.0341C22.0937 10.0305 22.4316 10.0266 22.7386 10.0266C23.0687 10.0266 23.3327 10.2933 23.3327 10.6266V21.3466C23.3327 24.6533 20.6792 27.3333 17.4053 27.3333H6.89704C3.4647 27.3333 0.666016 24.52 0.666016 21.0533V6.67996C0.666016 3.37329 3.33268 0.666626 6.61981 0.666626H13.6693C14.0126 0.666626 14.2766 0.946626 14.2766 1.27996V5.57329C14.2766 8.01329 16.27 10.0133 18.6858 10.0266C19.2501 10.0266 19.7476 10.0308 20.1829 10.0345C20.5216 10.0374 20.8227 10.04 21.0885 10.04C21.2764 10.04 21.52 10.0371 21.7834 10.0341ZM22.1475 8.08796C21.0623 8.09196 19.7831 8.08796 18.863 8.07863C17.4029 8.07863 16.2003 6.86396 16.2003 5.38929V1.87463C16.2003 1.29996 16.8907 1.01463 17.2854 1.42929C18.0006 2.18031 18.9835 3.21291 19.9618 4.24052C20.9357 5.26354 21.9048 6.2816 22.6003 7.01196C22.9858 7.41596 22.7032 8.08663 22.1475 8.08796Z" fill="white"/>
</svg>
