<svg width="209" height="209" viewBox="0 0 209 209" fill="none" xmlns="http://www.w3.org/2000/svg">
<g clip-path="url(#clip0_1331_1604)">
<rect width="209" height="209" rx="104.5" fill="white"/>
<path d="M29.5962 52.7408L28.418 54.272C26.8641 52.5268 26.8999 50.096 28.5563 47.9432C30.5859 45.3052 33.7238 44.8662 36.3205 46.8562C38.9171 48.8462 39.2298 51.9537 37.2351 54.5461C35.5204 56.7748 33.1041 57.4053 30.7706 56.1713L31.9604 54.6249C33.3117 55.3472 34.7836 54.9087 35.8218 53.5594C37.0349 51.9827 37.0068 50.1055 35.5407 48.7168L32.6595 52.4615L31.4143 51.5072L34.2372 47.8383C32.6256 47.1093 30.9961 47.5957 29.8179 49.127C28.8964 50.3247 28.8156 51.6846 29.5962 52.7408Z" fill="#1B1B26"/>
<path d="M36.0022 39.6941L39.1348 42.9172L39.8923 35.9273L41.8717 34.0106L41.0992 40.2164L49.3047 41.1366L47.5039 42.8803L40.896 41.984L40.5878 44.4122L43.1739 47.073L41.8406 48.3641L34.6688 40.9852L36.0022 39.6941Z" fill="#1B1B26"/>
<path d="M54.4752 28.9064L52.9041 30.0326C51.8716 29.22 50.5072 29.257 49.2783 30.1379C47.365 31.5095 47.047 33.5254 48.4092 35.4191C49.7603 37.2973 51.7664 37.5296 53.5242 36.2696C54.9086 35.2772 55.3949 33.8229 54.715 32.4517L56.3017 31.3143C57.4625 33.6818 56.7536 36.0721 54.4669 37.7112C51.8069 39.618 48.7052 39.2064 46.7958 36.5521C44.8864 33.8979 45.4267 30.7815 48.1334 28.8413C50.3422 27.2579 52.7775 27.3002 54.4752 28.9064Z" fill="#1B1B26"/>
<path d="M55.6781 24.1498L64.5887 19.6265L69.2561 28.7913L67.6003 29.6318L63.6443 21.8639L58.0453 24.7061L62.0013 32.474L60.3455 33.3146L55.6781 24.1498Z" fill="#1B1B26"/>
<path d="M80.5531 19.6081L71.7167 22.4633C72.3353 24.3725 74.1447 25.1738 76.2399 24.4968C77.7886 23.9964 78.7602 23.0196 78.8134 21.8173L80.8722 21.1521C80.8633 23.485 79.3755 25.2914 76.7702 26.1333C73.4725 27.1988 70.7474 25.8698 69.7282 22.7242C68.7031 19.5603 70.1325 16.8287 73.412 15.769C76.7644 14.6858 79.3866 16.0079 80.4411 19.2626L80.5531 19.6081ZM71.3466 21.1969L78.2517 18.9657C77.4423 17.3994 75.8371 16.7932 73.9423 17.4055C72.0657 18.0118 71.0961 19.4299 71.3466 21.1969Z" fill="#1B1B26"/>
<path d="M84.5644 13.3575L84.8004 14.8875C85.4772 13.623 86.7291 12.6953 88.4513 12.43C91.6685 11.9344 94.2485 13.8381 94.7381 17.0113C95.2248 20.1657 93.3296 22.7008 90.0934 23.1994C88.4659 23.4501 87.1265 23.057 85.902 22.0274L86.6888 27.1272L84.8531 27.41L82.7286 13.6403L84.5644 13.3575ZM88.5054 14.1621C86.1965 14.5177 85.0015 16.1908 85.3512 18.4574C85.698 20.7052 87.333 21.8842 89.6419 21.5286C91.9508 21.1729 93.1385 19.5783 92.7888 17.3116C92.4362 15.0261 90.8142 13.8064 88.5054 14.1621Z" fill="#1B1B26"/>
<path d="M96.4622 11.7438L106.706 11.6693L106.717 13.2365L102.524 13.267L102.584 21.9819L100.727 21.9954L100.666 13.2805L96.4731 13.3109L96.4622 11.7438Z" fill="#1B1B26"/>
<path d="M111.495 12.0865L110.933 16.1574L117.155 17.0107L117.717 12.9398L119.557 13.1921L118.151 23.3788L116.311 23.1264L116.941 18.5633L110.719 17.71L110.089 22.2732L108.249 22.0209L109.655 11.8342L111.495 12.0865Z" fill="#1B1B26"/>
<path d="M130.04 21.1741C129.432 21.33 128.382 21.2321 126.847 20.9481C124.857 20.5861 123.744 20.4295 123.377 21.6368C123.094 22.5697 123.693 23.4297 125.085 23.8507C127.358 24.5375 129.218 23.8813 129.595 22.6375L130.04 21.1741ZM129.022 24.7211C127.78 25.5838 126.151 25.8103 124.337 25.262C121.863 24.5143 120.906 22.987 121.462 21.1578C122.156 18.8712 124.042 18.9218 126.94 19.4583C129.193 19.8795 130.312 20.2778 130.673 19.0888C130.995 18.0279 130.31 17.3214 128.532 16.7841C126.535 16.1804 125.428 16.465 124.909 17.8458L123.058 17.2864C123.892 15.0021 125.836 14.3315 128.859 15.2454C132.139 16.2368 133.106 17.4676 132.378 19.8639L131.167 23.8515C130.856 24.8759 130.889 25.4252 131.586 25.6356C131.732 25.6799 131.903 25.7115 132.134 25.7414L131.7 27.1681C131.105 27.0879 130.58 26.9694 130.251 26.8697C129.224 26.5596 128.884 25.8374 129.022 24.7211Z" fill="#1B1B26"/>
<path d="M146.09 22.634L141.602 31.891L139.93 31.084L141.724 27.3846L138.897 26.0202L134.725 28.5714L132.846 27.6646L137.069 25.0956C135.799 24.2063 135.189 22.7441 135.956 21.1611C136.857 19.3029 138.627 19.0315 140.85 20.1048L146.09 22.634ZM142.408 25.9737L143.734 23.2379L140.2 21.5323C138.925 20.9167 138.182 21.0889 137.723 22.0353C137.256 22.9988 137.53 23.6192 138.926 24.2931L142.408 25.9737Z" fill="#1B1B26"/>
<path d="M166.405 37.5331C168.895 40.0713 168.931 43.2191 166.635 45.6014C164.34 47.9838 161.332 47.9207 158.842 45.3825C156.352 42.8442 156.25 39.7378 158.545 37.3555C160.841 34.9731 163.915 34.9948 166.405 37.5331ZM165.211 38.7724C163.555 37.0848 161.577 37.0611 159.958 38.7411C158.34 40.4212 158.381 42.4555 160.036 44.1431C161.692 45.8307 163.657 45.8407 165.275 44.1607C166.894 42.4806 166.866 40.46 165.211 38.7724Z" fill="#1B1B26"/>
<path d="M173.676 46.2372L166.74 51.4609L170.42 56.6123L177.356 51.3886L178.444 52.912L171.508 58.1357L172.125 58.9995L168.459 61.7602L167.427 60.3153L169.846 58.4939L164.404 50.8768L172.587 44.7138L173.676 46.2372Z" fill="#1B1B26"/>
<path d="M180.795 68.9155L176.585 60.5176C174.822 61.4453 174.332 63.3882 175.33 65.3795C176.068 66.8513 177.178 67.6679 178.359 67.5276L179.34 69.4842C177.063 69.8511 175.06 68.6508 173.819 66.1747C172.248 63.0406 173.105 60.0948 176.01 58.5662C178.931 57.0289 181.826 58.0218 183.389 61.1385C184.986 64.3246 184.119 67.1661 181.114 68.7477L180.795 68.9155ZM177.761 59.9426L181.05 66.5051C182.448 65.4414 182.781 63.7345 181.878 61.9337C180.984 60.1502 179.444 59.4068 177.761 59.9426Z" fill="#1B1B26"/>
<path d="M187.715 71.7877L183.86 73.0876L185.82 79.1475L189.675 77.8476L190.254 79.6397L180.607 82.8924L180.028 81.1003L184.349 79.6432L182.39 73.5834L178.068 75.0404L177.489 73.2484L187.136 69.9957L187.715 71.7877Z" fill="#1B1B26"/>
<path d="M191.631 85.8937L187.255 86.6505L192.546 91.319L193.011 94.0795L188.369 89.8512L183.054 96.1764L182.63 93.6651L187.038 88.661L185.225 87.0015L181.613 87.6263L181.299 85.7668L191.318 84.0341L191.631 85.8937Z" fill="#1B1B26"/>
<path d="M188.534 105.332C188.2 104.794 187.969 103.748 187.764 102.177C187.493 100.14 187.297 99.0157 186.05 99.038C185.087 99.0553 184.463 99.9026 184.495 101.38C184.549 103.79 185.737 105.382 187.022 105.359L188.534 105.332ZM184.888 105.456C183.696 104.525 182.982 103.021 182.939 101.097C182.881 98.4726 184.022 97.0716 185.912 97.0378C188.274 96.9955 188.806 98.8331 189.193 101.801C189.49 104.11 189.46 105.316 190.688 105.294C191.784 105.274 192.237 104.391 192.195 102.506C192.148 100.387 191.54 99.4063 190.083 99.3352L190.04 97.3721C192.443 97.4652 193.67 99.1348 193.741 102.342C193.819 105.821 192.959 107.139 190.484 107.183L186.365 107.257C185.307 107.276 184.801 107.48 184.817 108.218C184.82 108.374 184.843 108.548 184.886 108.781L183.412 108.807C183.305 108.206 183.255 107.663 183.247 107.313C183.223 106.225 183.797 105.67 184.888 105.456Z" fill="#1B1B26"/>
<path d="M182.738 122.04L192.877 124.553L191.326 129.981C190.72 132.104 189.37 133.015 187.787 132.623C186.637 132.338 186.151 131.427 186.005 130.738C185.282 131.923 184.164 132.377 182.901 132.064C180.998 131.592 180.512 129.831 181.187 127.468L182.738 122.04ZM186.787 124.961L183.772 124.214L182.701 127.962C182.311 129.328 182.602 130.072 183.639 130.329C184.694 130.591 185.342 130.02 185.769 128.524L186.787 124.961ZM190.82 125.961L188.201 125.311L187.225 128.727C186.887 129.909 187.066 130.625 188.008 130.859C188.951 131.092 189.449 130.761 189.839 129.395L190.82 125.961Z" fill="#1B1B26"/>
<path d="M180.93 142.37C180.853 141.758 181.096 140.736 181.595 139.259C182.236 137.341 182.548 136.264 181.364 135.779C180.449 135.405 179.488 135.904 178.869 137.228C177.857 139.389 178.275 141.283 179.495 141.783L180.93 142.37ZM177.443 141.005C176.731 139.695 176.721 138.072 177.528 136.347C178.629 133.995 180.32 133.213 182.114 133.948C184.356 134.867 184.048 136.713 183.106 139.503C182.368 141.672 181.809 142.73 182.975 143.208C184.016 143.634 184.831 143.034 185.622 141.344C186.511 139.445 186.371 138.328 185.03 137.676L185.854 135.916C188.075 136.971 188.496 138.95 187.15 141.824C185.691 144.943 184.301 145.765 181.951 144.803L178.04 143.201C177.036 142.789 176.47 142.765 176.16 143.427C176.095 143.567 176.039 143.731 175.977 143.955L174.578 143.381C174.741 142.805 174.933 142.302 175.08 141.988C175.537 141.013 176.321 140.753 177.443 141.005Z" fill="#1B1B26"/>
<path d="M180.429 154.206L173.233 149.118L170.144 152.975L177.34 158.063L176.206 159.479L169.01 154.391L165.922 158.248L173.117 163.336L171.947 164.797L163.458 158.794L173.109 146.742L181.599 152.745L180.429 154.206Z" fill="#1B1B26"/>
<path d="M156.762 173.405L163.779 167.175C162.415 165.681 160.404 165.688 158.74 167.166C157.511 168.258 157.013 169.549 157.462 170.671L155.827 172.123C154.869 169.985 155.502 167.722 157.571 165.885C160.19 163.56 163.268 163.661 165.516 166.122C167.777 168.597 167.581 171.682 164.977 173.994C162.315 176.358 159.335 176.222 157.009 173.675L156.762 173.405ZM164.647 168.182L159.163 173.051C160.563 174.152 162.303 174.05 163.808 172.714C165.298 171.391 165.61 169.696 164.647 168.182Z" fill="#1B1B26"/>
<path d="M157.441 179.79L150.25 184.589L149.359 183.288L154.985 179.533L150.028 172.3L151.592 171.256L157.441 179.79Z" fill="#1B1B26"/>
<path d="M143.219 189.542C139.735 191.221 136.525 190.151 134.941 186.943C133.357 183.736 134.516 180.653 138 178.974C141.485 177.295 144.677 178.282 146.26 181.489C147.844 184.696 146.703 187.863 143.219 189.542ZM142.395 187.873C144.712 186.757 145.456 184.723 144.339 182.461C143.222 180.199 141.141 179.526 138.824 180.643C136.508 181.759 135.783 183.784 136.9 186.046C138.017 188.308 140.079 188.989 142.395 187.873Z" fill="#1B1B26"/>
<path d="M122.854 190.968L124.782 190.569C124.874 191.9 124.105 194.135 120.722 194.836C118.001 195.4 116.12 194.379 115.768 192.638C115.534 191.478 116.239 190.485 117.213 190.042C116.073 189.956 114.606 189.615 114.258 187.893C113.878 186.017 115.715 184.387 118.38 183.835C122.367 183.008 123.751 184.596 124.342 186.347L122.357 186.759C121.883 185.386 120.892 184.966 118.776 185.405C117.302 185.711 115.891 186.527 116.13 187.707C116.4 189.041 117.812 189.111 119.286 188.806L120.515 188.551L120.808 190.002L119.693 190.233C117.935 190.597 117.383 191.175 117.59 192.2C117.813 193.303 119.267 193.485 120.382 193.254C122.121 192.894 122.824 192.184 122.854 190.968Z" fill="#1B1B26"/>
<path d="M103.504 194.89L108.65 194.629L108.535 192.441C108.392 189.741 108.788 188.456 109.475 187.196L103.116 187.519L103.504 194.89ZM110.508 196.155L101.72 196.601L101.247 187.614L100.187 187.667L99.9366 182.917L101.71 182.827L101.875 185.961L110.643 185.516L110.478 182.382L112.251 182.292L112.501 187.042L111.48 187.094C110.708 188.22 110.165 189.651 110.315 192.489L110.508 196.155Z" fill="#1B1B26"/>
<path d="M92.2221 196.318C88.6705 195.929 86.688 193.45 87.0297 190.055C87.3714 186.661 89.7964 184.744 93.3479 185.133C96.8995 185.522 98.9092 187.925 98.5675 191.319C98.2258 194.714 95.7737 196.707 92.2221 196.318ZM92.3999 194.552C94.7612 194.811 96.3452 193.536 96.5862 191.142C96.8271 188.748 95.5315 187.158 93.1702 186.899C90.8089 186.641 89.2441 187.917 89.0031 190.311C88.7621 192.705 90.0386 194.293 92.3999 194.552Z" fill="#1B1B26"/>
<path d="M80.9678 194.173L81.3741 192.632C80.2345 193.539 78.7021 193.887 77.0063 193.413C73.8382 192.527 72.2361 189.648 73.0788 186.45C73.9164 183.271 76.6973 181.678 79.884 182.569C81.4867 183.017 82.5612 183.951 83.2701 185.436L84.6244 180.297L86.4321 180.803L82.7754 194.679L80.9678 194.173ZM77.6627 191.757C79.9363 192.393 81.7202 191.318 82.3221 189.034C82.919 186.769 81.8925 184.97 79.6189 184.334C77.3454 183.698 75.6002 184.702 74.9982 186.986C74.3913 189.29 75.3891 191.122 77.6627 191.757Z" fill="#1B1B26"/>
<path d="M63.672 188.548C60.4143 187.04 59.2897 184.053 60.656 180.944C62.0223 177.835 64.9161 176.796 68.1738 178.304C71.4314 179.812 72.6053 182.735 71.239 185.844C69.8726 188.953 66.9296 190.056 63.672 188.548ZM64.3828 186.931C66.5487 187.933 68.4459 187.233 69.4094 185.04C70.373 182.848 69.6288 180.924 67.463 179.922C65.2971 178.919 63.4174 179.627 62.4539 181.82C61.4904 184.013 62.2169 185.928 64.3828 186.931Z" fill="#1B1B26"/>
<path d="M61.0457 175.189L55.3942 184.071L50.6344 180.893C48.7727 179.649 48.32 178.076 49.2024 176.69C49.8432 175.683 50.8794 175.504 51.5923 175.58C50.6748 174.521 50.5905 173.312 51.2943 172.206C52.3553 170.538 54.2138 170.627 56.286 172.011L61.0457 175.189ZM56.9332 178.136L58.614 175.494L55.3275 173.299C54.1295 172.499 53.3164 172.544 52.7386 173.452C52.1504 174.377 52.4973 175.173 53.8086 176.049L56.9332 178.136ZM54.6852 181.669L56.1453 179.374L53.1503 177.374C52.1142 176.682 51.3641 176.628 50.8389 177.453C50.3136 178.279 50.4759 178.858 51.6739 179.658L54.6852 181.669Z" fill="#1B1B26"/>
<path d="M43.6063 175.86L42.2044 174.586L44.9542 171.42L41.8902 168.634C39.9969 166.913 39.5992 165.286 41.0444 163.623C42.4001 162.062 44.1858 162.21 46.0213 163.879L50.4871 167.939L43.6063 175.86ZM46.0029 170.213L48.0365 167.872L45.0881 165.191C44.0331 164.232 43.2364 164.166 42.533 164.976C41.8168 165.801 41.9128 166.494 43.069 167.545L46.0029 170.213Z" fill="#1B1B26"/>
<path d="M27.3642 158.8L35.3318 152.027L36.5321 153.501L33.348 156.207L35.3774 158.7L40.2692 158.09L41.618 159.747L36.6719 160.351C37.4693 161.731 37.422 163.365 36.0595 164.524C34.46 165.883 32.7223 165.38 31.126 163.42L27.3642 158.8ZM32.1337 157.24L29.7789 159.241L32.3157 162.357C33.2314 163.482 33.9852 163.638 34.7997 162.946C35.6291 162.241 35.6356 161.541 34.6333 160.31L32.1337 157.24Z" fill="#1B1B26"/>
</g>
<defs>
<clipPath id="clip0_1331_1604">
<rect width="209" height="209" rx="104.5" fill="white"/>
</clipPath>
</defs>
</svg>
