<svg width="27" height="27" viewBox="0 0 27 27" fill="none" xmlns="http://www.w3.org/2000/svg">
<rect width="27" height="27" rx="8" fill="white"/>
<path d="M8.95043 6.00194C9.27593 6.02631 9.54299 6.27571 9.59699 6.60575L11.2962 16.992L13.4094 9.42914C13.4964 9.11771 13.7742 8.90312 14.0901 8.90324C14.4061 8.90335 14.6837 9.11815 14.7705 9.42965L16.2034 14.572L17.0256 13.1331C17.1526 12.9108 17.3851 12.7742 17.6364 12.7742H19.3889C19.6896 11.7926 20.5839 11.0807 21.6404 11.0807C22.9436 11.0807 24 12.1638 24 13.5C24 14.8362 22.9436 15.9194 21.6404 15.9194C20.5839 15.9194 19.6896 15.2074 19.3889 14.2258H18.0421L16.5883 16.7701C16.4451 17.0208 16.1698 17.1598 15.8887 17.1233C15.6076 17.0868 15.3747 16.882 15.2969 16.6026L14.089 12.2677L11.7959 20.4741C11.7048 20.8001 11.4057 21.018 11.0755 20.9988C10.7453 20.9797 10.472 20.7287 10.4173 20.3943L8.6812 9.7825L7.44183 13.7228C7.34752 14.0226 7.07537 14.2258 6.76813 14.2258H3.70787C3.31692 14.2258 3 13.9009 3 13.5C3 13.0992 3.31692 12.7742 3.70787 12.7742H6.25266L8.22518 6.50304C8.32536 6.18455 8.62492 5.97757 8.95043 6.00194Z" fill="#72CBD0"/>
</svg>
