<svg width="144" height="81" viewBox="0 0 144 81" fill="none" xmlns="http://www.w3.org/2000/svg">
<mask id="mask0_1263_7050" style="mask-type:alpha" maskUnits="userSpaceOnUse" x="4" y="4" width="39" height="39">
<path fill-rule="evenodd" clip-rule="evenodd" d="M14.1733 4.61881L15.8131 4.60156L32.869 4.60846C33.1279 4.61076 33.2893 4.61421 33.4496 4.61881C34.295 4.64066 35.1486 4.68896 35.9847 4.83731C36.8223 4.97725 37.6343 5.23923 38.3944 5.61471C39.1515 5.99191 39.846 6.48411 40.4464 7.07406C41.047 7.66121 41.5499 8.33891 41.9363 9.08196C42.3311 9.83751 42.5785 10.6115 42.7306 11.4418C42.8816 12.2606 42.9315 13.0955 42.9536 13.9235C42.9652 14.303 42.9699 14.6825 42.971 15.0631L42.9733 15.7405V30.733C42.9733 31.1838 42.9733 31.6358 42.971 32.0877C42.9687 32.4672 42.9652 32.8467 42.9536 33.2262C42.9304 34.0542 42.8816 34.8903 42.7306 35.7079C42.5873 36.5296 42.3195 37.3252 41.9363 38.0677C41.5497 38.811 41.0468 39.489 40.4464 40.0768C39.8437 40.6665 39.1512 41.1589 38.3944 41.5361C37.6343 41.9117 36.8223 42.1736 35.9847 42.3135C35.1486 42.4607 34.295 42.509 33.4496 42.532L30.9017 42.5516L14.7528 42.5424C14.5596 42.5403 14.3665 42.5364 14.1733 42.5309C13.3279 42.5102 12.4744 42.4607 11.6382 42.3135C10.8011 42.1735 9.98941 41.9116 9.22973 41.5361C7.70908 40.7783 6.46875 39.5645 5.68547 38.0677C5.3028 37.325 5.03503 36.5295 4.89115 35.7079C4.74018 34.8903 4.6914 34.0542 4.66934 33.2274C4.65773 32.8479 4.65424 32.4672 4.65192 32.0877L4.64844 31.4081V16.4178C4.64844 15.967 4.64844 15.5151 4.65192 15.0643C4.65424 14.6848 4.65889 14.3053 4.66934 13.9246C4.69257 13.0966 4.74134 12.2617 4.89115 11.4429C5.03495 10.6213 5.30272 9.82583 5.68547 9.08311C6.4676 7.58591 7.70774 6.37192 9.22857 5.61471C9.98864 5.23921 10.8007 4.97724 11.6382 4.83731C12.4744 4.69011 13.3279 4.64181 14.1733 4.61881Z" fill="white"/>
</mask>
<g mask="url(#mask0_1263_7050)">
<path d="M4.64844 4.60156H42.9745V42.555H4.64844V4.60156Z" fill="#19AA1E"/>
<path fill-rule="evenodd" clip-rule="evenodd" d="M4.64844 4.60156H42.9745V17.0538L4.64844 11.1244V4.60156Z" fill="#FFB919"/>
<path fill-rule="evenodd" clip-rule="evenodd" d="M4.64844 38.406L42.9745 32.4766V42.5575H4.64844V38.406Z" fill="#82D714"/>
<path fill-rule="evenodd" clip-rule="evenodd" d="M4.64844 10.375L18.0265 12.445C19.6918 11.4008 21.673 10.8281 23.8109 10.8281C26.7722 10.8281 29.4339 11.9263 31.3709 13.8537C31.6148 14.0975 31.8447 14.3517 32.0619 14.6162L42.9745 16.3044V17.8052L33.1697 16.2872C33.9035 17.6764 34.288 19.2205 34.2904 20.7883C34.2904 22.8215 33.8317 24.8489 32.8817 26.8844L32.8539 26.9465L32.4497 27.8021H31.4975C29.5279 27.8021 28.2226 28.3852 27.3679 29.419C26.6979 30.2298 26.31 31.3246 26.1799 32.5183L26.1753 32.5551L26.1567 32.746L26.1486 32.8288L26.1323 32.9909C26.0824 33.5245 26.0499 33.9765 26.0324 34.3445L42.9745 31.7225V33.2232L4.64844 39.1538V37.653L21.6091 35.0287L21.6021 34.6917L21.5998 34.5975L21.5975 34.548L21.5951 34.4733C21.58 34.065 21.5417 33.5418 21.4813 32.907L21.4697 32.7862L21.4488 32.5781C21.328 31.3775 20.946 30.27 20.2759 29.4466C19.4317 28.4059 18.1391 27.8136 16.1847 27.8021H15.1721L14.7691 26.9465C13.8006 24.8903 13.3314 22.8422 13.3314 20.7883C13.3314 18.2054 14.3893 15.7076 16.2521 13.8537L16.4146 13.6962L4.64844 11.8746V10.375Z" fill="white"/>
<path fill-rule="evenodd" clip-rule="evenodd" d="M23.8107 12.3125C29.1619 12.3125 32.7933 16.3904 32.7933 20.7903C32.7933 22.5567 32.4043 24.3944 31.4961 26.3218C26.232 26.3218 24.9325 30.0547 24.6863 32.4053L24.6701 32.5605C24.5876 33.4 24.5388 34.0728 24.5261 34.5788L23.1 34.7996V34.7536C23.0801 34.0062 23.029 33.26 22.9467 32.5168L22.9432 32.4755C22.7156 30.1306 21.444 26.3218 16.1264 26.3218C15.2172 24.3944 14.8281 22.5567 14.8281 20.7903C14.8281 16.3904 18.4606 12.3125 23.8107 12.3125Z" fill="#0073FA"/>
</g>
<path fill-rule="evenodd" clip-rule="evenodd" d="M61.3877 11.5C55.4837 11.5 51.0568 14.9764 51.094 21.0139H56.5811C56.5056 18.5989 58.0942 16.2564 61.3877 16.2564C63.8844 16.2564 65.4742 17.8664 65.4742 19.9157C65.4742 22.0386 63.7323 23.2093 60.9336 24.5272C57.2628 26.2464 55.0679 27.0515 51.094 28.3314V35.2843H71.528V30.5267H58.5111C60.4075 29.762 62.254 28.9225 63.9228 28.1486C68.3496 26.1004 70.9602 23.7947 70.9602 19.6604C70.9602 14.6832 67.1012 11.5 61.3877 11.5ZM79.8533 16.6221H90.4489V11.8657H74.5555V35.2843H79.8533V16.6221ZM98.7742 11.8657H93.4764V35.2843H98.7359L108.613 20.3182V35.2843H113.91V11.8657H108.613L98.7742 26.8318V11.8657ZM140.513 26.5017H135.026C134.194 29.1007 131.658 30.8936 128.669 30.8936C124.317 30.8936 121.479 27.2711 121.479 23.575C121.479 19.8789 124.241 16.2564 128.82 16.2564C131.848 16.2564 134.194 18.0504 135.026 20.6482H140.513C139.719 15.4157 135.443 11.5 128.669 11.5C121.177 11.5 116.181 16.5864 116.181 23.575C116.181 30.5635 121.177 35.65 128.669 35.65C135.443 35.65 139.719 31.809 140.513 26.5017Z" fill="#1B1B26"/>
<path d="M17.4883 75V72.872H10.8163V71.72L17.7603 63.8H19.3443V71.272H21.4083V72.872H19.3443V75H17.4883ZM13.2003 71.272H17.4883V66.52L13.2003 71.272ZM23.8326 75.08C23.7366 75.08 23.6566 75.064 23.5766 75.048C23.1126 74.904 22.7766 74.456 22.7766 73.864C22.7766 73.144 23.3046 72.712 24.0566 72.712C24.9046 72.712 25.4006 73.288 25.4006 74.248C25.4006 76.056 24.4246 77.128 22.8246 77.576L22.3446 76.52C23.0486 76.392 23.8486 75.736 23.8326 75.08ZM31.5933 68.52H32.0733C33.2733 68.52 34.3453 67.848 34.3453 66.856C34.3453 65.88 33.4333 65.256 31.8013 65.256C30.2493 65.256 29.2733 65.88 29.2733 66.84C29.2733 67.784 30.2493 68.52 31.5933 68.52ZM32.0413 69.944H31.6573C29.8973 69.944 28.9213 70.76 28.9213 71.72C28.9213 72.744 29.8973 73.528 31.8173 73.528C33.6893 73.528 34.7133 72.776 34.7133 71.752C34.7133 70.632 33.7213 69.944 32.0413 69.944ZM31.8333 75.16C28.8573 75.16 26.9373 73.912 26.9373 71.88C26.9373 70.68 27.7533 69.608 29.2093 69.16C27.8813 68.776 27.3053 67.736 27.3053 66.792C27.3053 64.904 28.9053 63.64 31.8173 63.64C34.7933 63.64 36.3293 64.904 36.3293 66.744C36.3293 67.784 35.6413 68.664 34.4253 69.112C36.0413 69.528 36.6813 70.6 36.6813 71.816C36.6813 73.928 34.7133 75.16 31.8333 75.16Z" fill="#1B1B26"/>
<path d="M56 61L57.7869 66.5406L63.6085 66.5279L58.8912 69.9394L60.7023 75.4721L56 72.04L51.2977 75.4721L53.1088 69.9394L48.3915 66.5279L54.2131 66.5406L56 61Z" fill="#F9AB36"/>
<path d="M74 61L75.7869 66.5406L81.6085 66.5279L76.8912 69.9394L78.7023 75.4721L74 72.04L69.2977 75.4721L71.1088 69.9394L66.3915 66.5279L72.2131 66.5406L74 61Z" fill="#F9AB36"/>
<path d="M92 61L93.7869 66.5406L99.6085 66.5279L94.8912 69.9394L96.7023 75.4721L92 72.04L87.2977 75.4721L89.1088 69.9394L84.3915 66.5279L90.2131 66.5406L92 61Z" fill="#F9AB36"/>
<path d="M110 61L111.787 66.5406L117.608 66.5279L112.891 69.9394L114.702 75.4721L110 72.04L105.298 75.4721L107.109 69.9394L102.392 66.5279L108.213 66.5406L110 61Z" fill="#F9AB36"/>
<path d="M128 61L129.787 66.5406L135.608 66.5279L130.891 69.9394L132.702 75.4721L128 72.04L123.298 75.4721L125.109 69.9394L120.392 66.5279L126.213 66.5406L128 61Z" fill="#E0E0E0"/>
</svg>
