<svg width="220" height="63" viewBox="0 0 220 63" fill="none" xmlns="http://www.w3.org/2000/svg">
<path d="M55.4883 57V54.872H48.8163V53.72L55.7603 45.8H57.3443V53.272H59.4083V54.872H57.3443V57H55.4883ZM51.2003 53.272H55.4883V48.52L51.2003 53.272ZM61.8326 57.08C61.7366 57.08 61.6566 57.064 61.5766 57.048C61.1126 56.904 60.7766 56.456 60.7766 55.864C60.7766 55.144 61.3046 54.712 62.0566 54.712C62.9046 54.712 63.4006 55.288 63.4006 56.248C63.4006 58.056 62.4246 59.128 60.8246 59.576L60.3446 58.52C61.0486 58.392 61.8486 57.736 61.8326 57.08ZM69.5933 50.52H70.0733C71.2733 50.52 72.3453 49.848 72.3453 48.856C72.3453 47.88 71.4333 47.256 69.8013 47.256C68.2493 47.256 67.2733 47.88 67.2733 48.84C67.2733 49.784 68.2493 50.52 69.5933 50.52ZM70.0413 51.944H69.6573C67.8973 51.944 66.9213 52.76 66.9213 53.72C66.9213 54.744 67.8973 55.528 69.8173 55.528C71.6893 55.528 72.7133 54.776 72.7133 53.752C72.7133 52.632 71.7213 51.944 70.0413 51.944ZM69.8333 57.16C66.8573 57.16 64.9373 55.912 64.9373 53.88C64.9373 52.68 65.7533 51.608 67.2093 51.16C65.8813 50.776 65.3053 49.736 65.3053 48.792C65.3053 46.904 66.9053 45.64 69.8173 45.64C72.7933 45.64 74.3293 46.904 74.3293 48.744C74.3293 49.784 73.6413 50.664 72.4253 51.112C74.0413 51.528 74.6813 52.6 74.6813 53.816C74.6813 55.928 72.7133 57.16 69.8333 57.16Z" fill="#1B1B26"/>
<path d="M94 43L95.7869 48.5406L101.608 48.5279L96.8912 51.9394L98.7023 57.4721L94 54.04L89.2977 57.4721L91.1088 51.9394L86.3915 48.5279L92.2131 48.5406L94 43Z" fill="#F9AB36"/>
<path d="M112 43L113.787 48.5406L119.608 48.5279L114.891 51.9394L116.702 57.4721L112 54.04L107.298 57.4721L109.109 51.9394L104.392 48.5279L110.213 48.5406L112 43Z" fill="#F9AB36"/>
<path d="M130 43L131.787 48.5406L137.608 48.5279L132.891 51.9394L134.702 57.4721L130 54.04L125.298 57.4721L127.109 51.9394L122.392 48.5279L128.213 48.5406L130 43Z" fill="#F9AB36"/>
<path d="M148 43L149.787 48.5406L155.608 48.5279L150.891 51.9394L152.702 57.4721L148 54.04L143.298 57.4721L145.109 51.9394L140.392 48.5279L146.213 48.5406L148 43Z" fill="#F9AB36"/>
<path d="M166 43L167.787 48.5406L173.608 48.5279L168.891 51.9394L170.702 57.4721L166 54.04L161.298 57.4721L163.109 51.9394L158.392 48.5279L164.213 48.5406L166 43Z" fill="#E0E0E0"/>
<g clip-path="url(#clip0_1263_7022)">
<mask id="mask0_1263_7022" style="mask-type:luminance" maskUnits="userSpaceOnUse" x="0" y="0" width="220" height="19">
<path d="M220 0H0V19H220V0Z" fill="white"/>
</mask>
<g mask="url(#mask0_1263_7022)">
<path fill-rule="evenodd" clip-rule="evenodd" d="M9.40755 0.140629C9.44631 0.140631 9.48523 0.140632 9.52432 0.140632C9.56333 0.140632 9.60234 0.140631 9.64101 0.140629C11.2594 0.140547 12.6479 0.140477 13.7586 0.283057C14.9465 0.435559 16.0767 0.778385 16.9924 1.65273C17.908 2.52707 18.2671 3.60625 18.4268 4.74056C18.5761 5.80104 18.5761 7.12682 18.576 8.67213V17.0375C18.576 17.9666 17.7872 18.7197 16.8142 18.7197C15.8412 18.7197 15.0525 17.9666 15.0525 17.0375V8.78365C15.0525 7.09544 15.0487 5.99847 14.9348 5.18885C14.8275 4.42763 14.6528 4.17676 14.5009 4.03172C14.349 3.88667 14.0863 3.7198 13.289 3.61746C12.4412 3.50861 11.2924 3.50504 9.52432 3.50504C7.75628 3.50504 6.60746 3.50861 5.75954 3.61746C4.96233 3.7198 4.6996 3.88667 4.54771 4.03172C4.3958 4.17676 4.22104 4.42763 4.11385 5.18885C3.99986 5.99847 3.99612 7.09544 3.99612 8.78365V17.0375C3.99612 17.9666 3.20737 18.7197 2.23439 18.7197C1.26142 18.7197 0.472665 17.9666 0.472665 17.0375V8.78365C0.472665 8.74639 0.472662 8.70922 0.47266 8.67213C0.472575 7.12682 0.472502 5.80104 0.621825 4.74056C0.781535 3.60625 1.14057 2.52707 2.05624 1.65273C2.97193 0.778385 4.10212 0.435559 5.29005 0.283057C6.40068 0.140477 7.78916 0.140547 9.40755 0.140629Z" fill="#EC2327"/>
<path fill-rule="evenodd" clip-rule="evenodd" d="M21.4785 3.12359C21.4785 1.55381 22.8113 0.28125 24.4552 0.28125H32.9601C35.9461 0.28125 38.3668 2.59263 38.3668 5.44387V7.34017C38.3668 10.1914 35.9461 12.5028 32.9601 12.5028H25.002V17.0452C25.002 17.9743 24.2132 18.7275 23.2403 18.7275C22.2673 18.7275 21.4785 17.9743 21.4785 17.0452V3.12359ZM25.002 9.1384H32.9601C34.0002 9.1384 34.8433 8.3333 34.8433 7.34017V5.44387C34.8433 4.45074 34.0002 3.64565 32.9601 3.64565H25.002V9.1384Z" fill="#EC2327"/>
<path fill-rule="evenodd" clip-rule="evenodd" d="M162.148 3.07672C162.148 1.50694 163.481 0.234375 165.125 0.234375H173.63C176.616 0.234375 179.037 2.54576 179.037 5.39699V7.2933C179.037 10.1445 176.616 12.4559 173.63 12.4559H165.672V16.9984C165.672 17.9274 164.883 18.6805 163.91 18.6805C162.937 18.6805 162.148 17.9274 162.148 16.9984V3.07672ZM165.672 9.09157H173.63C174.67 9.09157 175.513 8.28647 175.513 7.2933V5.39699C175.513 4.40387 174.67 3.59877 173.63 3.59877H165.672V9.09157Z" fill="#0070C0"/>
<path fill-rule="evenodd" clip-rule="evenodd" d="M205.692 0.308633L205.609 0.308614C205.11 0.308436 204.575 0.308246 204.124 0.366107C203.598 0.433662 202.932 0.606587 202.372 1.14114C201.812 1.67568 201.631 2.31151 201.56 2.81397C201.5 3.24435 201.5 3.75527 201.5 4.23259V4.31111V8.86597C201.5 8.86977 201.5 8.87365 201.5 8.87753C201.5 8.88076 201.5 8.88406 201.5 8.88728V16.9985C201.5 17.9276 202.289 18.6807 203.262 18.6807C203.352 18.6807 203.442 18.6741 203.529 18.6615C203.616 18.6741 203.705 18.6807 203.796 18.6807H213.589H213.69C214.154 18.681 214.548 18.6812 214.902 18.6365C217.329 18.3316 219.238 16.5086 219.557 14.192C219.604 13.8531 219.603 13.4773 219.603 13.034V12.9381V12.8422C219.603 12.3989 219.604 12.023 219.557 11.6842C219.385 10.4383 218.754 9.33535 217.83 8.53438C218.559 7.68954 218.996 6.60727 218.996 5.39711C218.996 2.54587 216.575 0.308633 213.589 0.308633H205.692ZM205.023 10.4086V15.3163H213.589C214.21 15.3163 214.349 15.3127 214.443 15.3009C215.287 15.1947 215.952 14.5598 216.064 13.7528C216.076 13.6635 216.08 13.5303 216.08 12.9381C216.08 12.3458 216.076 12.2126 216.064 12.1233C215.952 11.3163 215.287 10.5302 214.443 10.424C214.349 10.4122 214.21 10.4086 213.589 10.4086H205.023ZM213.589 7.1953H205.023V4.31111C205.023 4.05443 205.023 3.85127 205.027 3.67675C205.21 3.67313 205.424 3.67304 205.692 3.67304H213.589C214.629 3.67304 215.473 4.40398 215.473 5.39711C215.473 6.39025 214.629 7.1953 213.589 7.1953Z" fill="#0070C0"/>
<path fill-rule="evenodd" clip-rule="evenodd" d="M91.9531 0.214846C91.9878 0.214847 92.0216 0.214849 92.0555 0.214849C92.0902 0.214849 92.1248 0.214847 92.1587 0.214846C93.5912 0.214789 94.8207 0.21474 95.8175 0.316497C96.876 0.424544 97.9015 0.665054 98.8069 1.29398C99.2072 1.5718 99.5651 1.89588 99.8722 2.25794C100.566 3.07758 100.832 4.00658 100.951 4.96497C101.064 5.8676 101.064 6.9809 101.064 8.27784V10.8107C101.064 12.1076 101.064 13.2209 100.951 14.1235C100.832 15.0819 100.566 16.0109 99.8722 16.8306C99.5651 17.1926 99.2072 17.5167 98.8069 17.7944C97.9015 18.4234 96.876 18.6639 95.8175 18.7719C94.8207 18.8737 93.5912 18.8736 92.1587 18.8736H91.9531C90.5214 18.8736 89.2919 18.8737 88.2952 18.7719C87.2366 18.6639 86.2102 18.4234 85.3048 17.7944C84.9055 17.5167 84.5475 17.1926 84.2403 16.8306C83.5457 16.0109 83.2799 15.0819 83.1607 14.1235C83.0488 13.2209 83.0488 12.1075 83.0488 10.8106V8.37069C83.0488 8.33963 83.0488 8.30865 83.0488 8.27784C83.0488 6.9809 83.0488 5.8676 83.1607 4.96497C83.2799 4.00658 83.5457 3.07758 84.2403 2.25794C84.5475 1.89588 84.9055 1.5718 85.3048 1.29398C86.2102 0.665054 87.2366 0.424544 88.2952 0.316497C89.2919 0.21474 90.5214 0.214789 91.9531 0.214846ZM88.4695 3.69825C87.746 3.77208 87.4888 3.89532 87.3466 3.9939C87.2078 4.09067 87.0826 4.20355 86.976 4.32966C86.8677 4.45813 86.7315 4.69132 86.6494 5.34622C86.5639 6.03541 86.5605 6.95491 86.5605 8.37069V10.7178C86.5605 12.1336 86.5639 13.053 86.6494 13.7422C86.7315 14.3972 86.8677 14.6304 86.976 14.7588C87.0826 14.885 87.2078 14.9978 87.3466 15.0945C87.4888 15.1931 87.746 15.3163 88.4695 15.3902C89.2302 15.4679 90.4926 15.4705 92.0555 15.4705C93.62 15.4705 94.9798 15.4679 95.7405 15.3902C96.4639 15.3163 96.722 15.1931 96.8633 15.0945C97.0029 14.9978 97.1273 14.885 97.2348 14.7588C97.3431 14.6304 97.4793 14.3972 97.5605 13.7422C97.6468 13.053 97.6494 12.1336 97.6494 10.7178V8.37069C97.6494 6.95491 97.6468 6.03541 97.5605 5.34622C97.4793 4.69132 97.3431 4.45813 97.2348 4.32966C97.1273 4.20355 97.0029 4.09067 96.8633 3.9939C96.722 3.89532 96.4639 3.77208 95.7405 3.69825C94.9798 3.62055 93.62 3.61802 92.0555 3.61802C90.4926 3.61802 89.2302 3.62055 88.4695 3.69825Z" fill="#0070C0"/>
<path fill-rule="evenodd" clip-rule="evenodd" d="M49.5259 0.214846C49.56 0.214847 49.5942 0.214849 49.6286 0.214849C49.6628 0.214849 49.697 0.214847 49.7311 0.214846C51.1634 0.214789 52.393 0.21474 53.3899 0.316497C54.4484 0.424544 55.4743 0.665054 56.3795 1.29398C56.7794 1.5718 57.1373 1.89588 57.4442 2.25794C58.1388 3.07758 58.4044 4.00658 58.5238 4.96497C58.6361 5.8676 58.6361 6.9809 58.636 8.27784V10.8107C58.6361 12.1076 58.6361 13.2209 58.5238 14.1235C58.4044 15.0819 58.1388 16.0109 57.4442 16.8306C57.1373 17.1926 56.7794 17.5167 56.3795 17.7944C55.4743 18.4234 54.4484 18.6639 53.3899 18.7719C52.393 18.8737 51.1634 18.8736 49.7311 18.8736H49.526C48.0937 18.8736 46.864 18.8737 45.8672 18.7719C44.8087 18.6639 43.7828 18.4234 42.8775 17.7944C42.4776 17.5167 42.1197 17.1926 41.8129 16.8306C41.1183 16.0109 40.8527 15.0819 40.7334 14.1235C40.621 13.2209 40.621 12.1075 40.6211 10.8106V8.37069C40.6211 8.33963 40.6211 8.30865 40.6211 8.27784C40.621 6.9809 40.621 5.8676 40.7334 4.96497C40.8527 4.00658 41.1183 3.07758 41.8129 2.25794C42.1197 1.89588 42.4776 1.5718 42.8775 1.29398C43.7828 0.665054 44.8087 0.424544 45.8672 0.316497C46.864 0.21474 48.0937 0.214789 49.5259 0.214846ZM46.0421 3.69825C45.3188 3.77208 45.0612 3.89532 44.9193 3.9939C44.7801 4.09067 44.6554 4.20355 44.5485 4.32966C44.4396 4.45813 44.3036 4.69132 44.222 5.34622C44.1362 6.03541 44.1334 6.95491 44.1334 8.37069V10.7178C44.1334 12.1336 44.1362 13.053 44.222 13.7422C44.3036 14.3972 44.4396 14.6304 44.5485 14.7588C44.6554 14.885 44.7801 14.9978 44.9193 15.0945C45.0612 15.1931 45.3188 15.3163 46.0421 15.3902C46.8032 15.4679 48.0648 15.4705 49.6286 15.4705C51.1923 15.4705 52.552 15.4679 53.3132 15.3902C54.0364 15.3163 54.2939 15.1931 54.4358 15.0945C54.5751 14.9978 54.6997 14.885 54.8067 14.7588C54.9155 14.6304 55.0517 14.3972 55.1331 13.7422C55.2189 13.053 55.2217 12.1336 55.2217 10.7178V8.37069C55.2217 6.95491 55.2189 6.03541 55.1331 5.34622C55.0517 4.69132 54.9155 4.45813 54.8067 4.32966C54.6997 4.20355 54.5751 4.09067 54.4358 3.9939C54.2939 3.89532 54.0364 3.77208 53.3132 3.69825C52.552 3.62055 51.1923 3.61802 49.6286 3.61802C48.0648 3.61802 46.8032 3.62055 46.0421 3.69825Z" fill="#EC2327"/>
<path fill-rule="evenodd" clip-rule="evenodd" d="M150.558 0.226565C150.593 0.226568 150.627 0.226568 150.661 0.226568C150.695 0.226568 150.729 0.226568 150.763 0.226565C152.196 0.226508 153.426 0.226459 154.423 0.328218C155.481 0.436263 156.507 0.676768 157.412 1.3057C157.812 1.58352 158.17 1.9076 158.477 2.26966C159.171 3.0893 159.437 4.01829 159.556 4.97669C159.669 5.87932 159.669 6.9926 159.669 8.28948V10.8224C159.669 12.1193 159.669 13.2325 159.556 14.1352C159.437 15.0936 159.171 16.0226 158.477 16.8423C158.17 17.2043 157.812 17.5284 157.412 17.8062C156.507 18.4351 155.481 18.6756 154.423 18.7837C153.426 18.8854 152.196 18.8854 150.763 18.8854H150.558C149.127 18.8854 147.896 18.8854 146.9 18.7837C145.841 18.6756 144.816 18.4351 143.91 17.8062C143.511 17.5284 143.153 17.2043 142.846 16.8423C142.151 16.0226 141.885 15.0936 141.766 14.1352C141.654 13.2325 141.654 12.1193 141.654 10.8224V8.38241C141.654 8.35143 141.654 8.32037 141.654 8.28956C141.654 6.99266 141.654 5.87933 141.766 4.97669C141.885 4.01829 142.151 3.0893 142.846 2.26966C143.153 1.9076 143.511 1.58352 143.91 1.3057C144.816 0.676768 145.841 0.436263 146.9 0.328218C147.896 0.226459 149.127 0.226508 150.558 0.226565ZM147.075 3.70997C146.351 3.7838 146.094 3.90704 145.952 4.00562C145.813 4.10239 145.688 4.21526 145.581 4.34137C145.472 4.46985 145.337 4.70304 145.255 5.35794C145.169 6.04713 145.166 6.96661 145.166 8.38241V10.7295C145.166 12.1453 145.169 13.0648 145.255 13.754C145.337 14.4089 145.472 14.6421 145.581 14.7705C145.688 14.8967 145.813 15.0095 145.952 15.1063C146.094 15.2049 146.351 15.3281 147.075 15.4019C147.835 15.4797 149.097 15.4821 150.661 15.4821C152.225 15.4821 153.584 15.4797 154.346 15.4019C155.069 15.3281 155.326 15.2049 155.469 15.1063C155.608 15.0095 155.733 14.8967 155.839 14.7705C155.948 14.6421 156.085 14.4089 156.166 13.754C156.252 13.0648 156.255 12.1453 156.255 10.7295V8.38241C156.255 6.96661 156.252 6.04713 156.166 5.35794C156.085 4.70304 155.948 4.46985 155.839 4.34137C155.733 4.21526 155.608 4.10239 155.469 4.00562C155.326 3.90704 155.069 3.7838 154.346 3.70997C153.584 3.63227 152.225 3.62974 150.661 3.62974C149.097 3.62974 147.835 3.63227 147.075 3.70997Z" fill="#0070C0"/>
<path fill-rule="evenodd" clip-rule="evenodd" d="M190.029 0.226565C190.064 0.226566 190.098 0.226567 190.132 0.226567C190.166 0.226567 190.2 0.226566 190.235 0.226565C191.666 0.226508 192.897 0.226458 193.893 0.328216C194.952 0.436262 195.978 0.676769 196.883 1.3057C197.283 1.58352 197.64 1.9076 197.947 2.26966C198.642 3.0893 198.908 4.01829 199.027 4.97669C199.14 5.87931 199.14 6.99259 199.14 8.28948V10.8224C199.14 12.1193 199.14 13.2326 199.027 14.1353C198.908 15.0936 198.642 16.0226 197.947 16.8423C197.64 17.2043 197.283 17.5284 196.883 17.8062C195.978 18.4351 194.952 18.6756 193.893 18.7837C192.897 18.8854 191.666 18.8854 190.235 18.8854H190.03C188.597 18.8854 187.367 18.8854 186.37 18.7837C185.312 18.6756 184.286 18.4351 183.381 17.8062C182.981 17.5284 182.624 17.2043 182.316 16.8423C181.622 16.0226 181.356 15.0936 181.237 14.1353C181.125 13.2325 181.125 12.1193 181.125 10.8224V8.38249C181.125 8.35143 181.125 8.32037 181.125 8.28956C181.125 6.99266 181.125 5.87933 181.237 4.97669C181.356 4.01829 181.622 3.0893 182.316 2.26966C182.624 1.9076 182.981 1.58352 183.381 1.3057C184.286 0.676769 185.312 0.436262 186.37 0.328216C187.367 0.226458 188.597 0.226508 190.029 0.226565ZM186.545 3.70996C185.823 3.7838 185.565 3.90704 185.423 4.00562C185.284 4.10238 185.159 4.21526 185.052 4.34138C184.943 4.46984 184.807 4.70304 184.725 5.35793C184.64 6.04713 184.637 6.96661 184.637 8.38249V10.7295C184.637 12.1453 184.64 13.0648 184.725 13.754C184.807 14.4089 184.943 14.6421 185.052 14.7705C185.159 14.8967 185.284 15.0095 185.423 15.1063C185.565 15.2049 185.823 15.3282 186.545 15.4019C187.307 15.4797 188.568 15.4821 190.132 15.4821C191.696 15.4821 193.055 15.4797 193.816 15.4019C194.54 15.3282 194.797 15.2049 194.939 15.1063C195.079 15.0095 195.203 14.8967 195.31 14.7705C195.419 14.6421 195.555 14.4089 195.637 13.754C195.723 13.0648 195.725 12.1453 195.725 10.7295V8.38249C195.725 6.96661 195.723 6.04713 195.637 5.35793C195.555 4.70304 195.419 4.46984 195.31 4.34138C195.203 4.21526 195.079 4.10238 194.939 4.00562C194.797 3.90704 194.54 3.7838 193.816 3.70996C193.055 3.63227 191.696 3.62974 190.132 3.62974C188.568 3.62974 187.307 3.63227 186.545 3.70996Z" fill="#0070C0"/>
<path fill-rule="evenodd" clip-rule="evenodd" d="M76.4599 15.4337L71.0168 3.88267L65.5947 15.4337H76.4599ZM80.1171 15.4337L73.4312 1.33154C72.7527 -0.0158931 69.2654 -0.0274839 68.5949 1.32989L61.9164 15.4337H61.5626C60.5895 15.4337 59.8008 16.1586 59.8008 17.0529C59.8008 17.947 60.5895 18.672 61.5626 18.672H80.4718C81.4446 18.672 82.2337 17.947 82.2337 17.0529C82.2337 16.1586 81.4446 15.4337 80.4718 15.4337H80.1171Z" fill="#0070C0"/>
<path fill-rule="evenodd" clip-rule="evenodd" d="M119.863 3.31247L110.914 9.47293L120.361 15.5736C121.167 16.0941 121.379 17.1398 120.834 17.9094C120.289 18.6791 119.194 18.881 118.387 18.3605L108.262 11.8223C107.82 11.5362 107.489 11.1648 107.271 10.7514V16.9973C107.271 17.9264 106.482 18.6796 105.509 18.6796C104.536 18.6796 103.748 17.9264 103.748 16.9973V1.91558C103.748 0.986529 104.536 0.233377 105.509 0.233377C106.482 0.233377 107.271 0.986529 107.271 1.91558V8.18451C107.493 7.76233 107.833 7.38423 108.289 7.09642L117.919 0.505425C118.732 -0.00671932 119.825 0.206484 120.361 0.98163C120.897 1.75677 120.674 2.80033 119.863 3.31247Z" fill="#0070C0"/>
<path fill-rule="evenodd" clip-rule="evenodd" d="M122.502 1.92439C122.502 0.995333 123.291 0.242188 124.264 0.242188H138.844C139.816 0.242188 140.605 0.995333 140.605 1.92439C140.605 2.85344 139.816 3.60659 138.844 3.60659H124.264C123.291 3.60659 122.502 2.85344 122.502 1.92439Z" fill="#0070C0"/>
<path fill-rule="evenodd" clip-rule="evenodd" d="M131.559 0.316406C132.532 0.316406 133.32 1.06955 133.32 1.9986V17.0804C133.32 18.0094 132.532 18.7626 131.559 18.7626C130.585 18.7626 129.797 18.0094 129.797 17.0804V1.9986C129.797 1.06955 130.585 0.316406 131.559 0.316406Z" fill="#0070C0"/>
</g>
</g>
<defs>
<clipPath id="clip0_1263_7022">
<rect width="220" height="19" fill="white"/>
</clipPath>
</defs>
</svg>
