<svg width="137" height="88" viewBox="0 0 137 88" fill="none" xmlns="http://www.w3.org/2000/svg">
<path d="M12.3008 82V79.872H5.62875V78.72L12.5728 70.8H14.1568V78.272H16.2208V79.872H14.1568V82H12.3008ZM8.01275 78.272H12.3008V73.52L8.01275 78.272ZM18.6451 82.08C18.5491 82.08 18.4691 82.064 18.3891 82.048C17.9251 81.904 17.5891 81.456 17.5891 80.864C17.5891 80.144 18.1171 79.712 18.8691 79.712C19.7171 79.712 20.2131 80.288 20.2131 81.248C20.2131 83.056 19.2371 84.128 17.6371 84.576L17.1571 83.52C17.8611 83.392 18.6611 82.736 18.6451 82.08ZM26.4058 75.52H26.8858C28.0858 75.52 29.1578 74.848 29.1578 73.856C29.1578 72.88 28.2458 72.256 26.6138 72.256C25.0618 72.256 24.0858 72.88 24.0858 73.84C24.0858 74.784 25.0618 75.52 26.4058 75.52ZM26.8538 76.944H26.4698C24.7098 76.944 23.7338 77.76 23.7338 78.72C23.7338 79.744 24.7098 80.528 26.6298 80.528C28.5018 80.528 29.5258 79.776 29.5258 78.752C29.5258 77.632 28.5338 76.944 26.8538 76.944ZM26.6458 82.16C23.6698 82.16 21.7498 80.912 21.7498 78.88C21.7498 77.68 22.5658 76.608 24.0218 76.16C22.6938 75.776 22.1178 74.736 22.1178 73.792C22.1178 71.904 23.7178 70.64 26.6298 70.64C29.6058 70.64 31.1418 71.904 31.1418 73.744C31.1418 74.784 30.4538 75.664 29.2378 76.112C30.8538 76.528 31.4938 77.6 31.4938 78.816C31.4938 80.928 29.5258 82.16 26.6458 82.16Z" fill="#1B1B26"/>
<path d="M50.8125 68L52.5994 73.5406L58.421 73.5279L53.7037 76.9394L55.5148 82.4721L50.8125 79.04L46.1102 82.4721L47.9213 76.9394L43.204 73.5279L49.0256 73.5406L50.8125 68Z" fill="#F9AB36"/>
<path d="M68.8125 68L70.5994 73.5406L76.421 73.5279L71.7037 76.9394L73.5148 82.4721L68.8125 79.04L64.1102 82.4721L65.9213 76.9394L61.204 73.5279L67.0256 73.5406L68.8125 68Z" fill="#F9AB36"/>
<path d="M86.8125 68L88.5994 73.5406L94.421 73.5279L89.7037 76.9394L91.5148 82.4721L86.8125 79.04L82.1102 82.4721L83.9213 76.9394L79.204 73.5279L85.0256 73.5406L86.8125 68Z" fill="#F9AB36"/>
<path d="M104.812 68L106.599 73.5406L112.421 73.5279L107.704 76.9394L109.515 82.4721L104.812 79.04L100.11 82.4721L101.921 76.9394L97.204 73.5279L103.026 73.5406L104.812 68Z" fill="#F9AB36"/>
<path d="M122.812 68L124.599 73.5406L130.421 73.5279L125.704 76.9394L127.515 82.4721L122.812 79.04L118.11 82.4721L119.921 76.9394L115.204 73.5279L121.026 73.5406L122.812 68Z" fill="#E0E0E0"/>
<path d="M27.2483 7.24858H25.0727C21.7829 7.24858 18.599 9.43573 18.599 15.7835C18.599 21.9181 21.5176 23.892 25.0727 23.892H27.2483V7.24858ZM23.8524 27.3063L17.3786 41.9221H12.6562L19.7666 26.2922C16.4237 24.5852 14.195 21.4914 14.195 15.7835C14.195 7.78207 19.2358 3.78125 25.2319 3.78125H31.3338V41.9221H27.2483V27.3063H23.8524Z" fill="#E52D2C"/>
<path d="M110.715 28.4803C110.715 20.0518 113.952 14.6641 120.213 14.6641C122.601 14.6641 123.98 15.3043 125.148 16.0509L124.564 19.9984C123.45 19.0381 121.858 18.1314 120.16 18.1314C117.189 18.1314 115.066 21.492 115.066 28.267C115.066 34.9882 116.658 38.829 120.001 38.829C122.017 38.829 123.556 38.029 124.511 37.1754L125.466 40.2692C124.033 41.4964 122.336 42.2964 119.895 42.2964C114.164 42.2964 110.715 37.6556 110.715 28.4803ZM98.6169 28.5337V41.9228H94.4779V15.0372H98.6169V27.4667L105.037 15.0372H109.23L102.597 27.6801L110.185 41.9228H105.674L98.6169 28.5337ZM79.1433 26.0264H85.9882C85.9882 21.4386 85.2451 18.0781 82.8576 18.0781C80.3105 18.0781 79.4086 21.2252 79.1433 26.0264ZM83.7065 42.2964C78.1883 42.2964 74.7921 37.8689 74.7921 29.6005C74.7921 20.9588 77.18 14.6641 82.8576 14.6641C87.315 14.6641 90.2333 18.0247 90.2333 27.1469V29.4404H79.0902C79.0902 35.5217 80.7881 38.7226 84.078 38.7226C86.4128 38.7226 88.27 37.6556 89.331 36.9086L90.2863 40.1092C88.5884 41.443 86.3597 42.2964 83.7065 42.2964ZM66.09 18.3982H61.4734V18.878C61.4734 24.5326 61.2081 32.8011 58.9797 38.5088H66.09V18.3982ZM72.2981 47.2041H68.5837V41.9228H57.1222V47.2041H53.4079V38.5088H55.0531C57.4938 32.8011 57.7591 24.4792 57.7591 17.3311V15.0372H70.1758V38.5088H72.2981V47.2041ZM51.0203 15.0372V41.9228H46.9345V29.8672H40.7793V41.9228H36.6406V15.0372H40.7793V26.4529H46.9345V15.0372H51.0203Z" fill="#1B1B26"/>
</svg>
