<svg width="128" height="87" viewBox="0 0 128 87" fill="none" xmlns="http://www.w3.org/2000/svg">
<path d="M9.48825 81V78.872H2.81625V77.72L9.76025 69.8H11.3443V77.272H13.4083V78.872H11.3443V81H9.48825ZM5.20025 77.272H9.48825V72.52L5.20025 77.272ZM15.8326 81.08C15.7366 81.08 15.6566 81.064 15.5766 81.048C15.1126 80.904 14.7766 80.456 14.7766 79.864C14.7766 79.144 15.3046 78.712 16.0566 78.712C16.9046 78.712 17.4006 79.288 17.4006 80.248C17.4006 82.056 16.4246 83.128 14.8246 83.576L14.3446 82.52C15.0486 82.392 15.8486 81.736 15.8326 81.08ZM23.5933 74.52H24.0733C25.2733 74.52 26.3453 73.848 26.3453 72.856C26.3453 71.88 25.4333 71.256 23.8013 71.256C22.2493 71.256 21.2733 71.88 21.2733 72.84C21.2733 73.784 22.2493 74.52 23.5933 74.52ZM24.0413 75.944H23.6573C21.8973 75.944 20.9213 76.76 20.9213 77.72C20.9213 78.744 21.8973 79.528 23.8173 79.528C25.6893 79.528 26.7133 78.776 26.7133 77.752C26.7133 76.632 25.7213 75.944 24.0413 75.944ZM23.8333 81.16C20.8573 81.16 18.9373 79.912 18.9373 77.88C18.9373 76.68 19.7533 75.608 21.2093 75.16C19.8813 74.776 19.3053 73.736 19.3053 72.792C19.3053 70.904 20.9053 69.64 23.8173 69.64C26.7933 69.64 28.3293 70.904 28.3293 72.744C28.3293 73.784 27.6413 74.664 26.4253 75.112C28.0413 75.528 28.6813 76.6 28.6813 77.816C28.6813 79.928 26.7133 81.16 23.8333 81.16Z" fill="#1B1B26"/>
<path d="M48 67L49.7869 72.5406L55.6085 72.5279L50.8912 75.9394L52.7023 81.4721L48 78.04L43.2977 81.4721L45.1088 75.9394L40.3915 72.5279L46.2131 72.5406L48 67Z" fill="#F9AB36"/>
<path d="M66 67L67.7869 72.5406L73.6085 72.5279L68.8912 75.9394L70.7023 81.4721L66 78.04L61.2977 81.4721L63.1088 75.9394L58.3915 72.5279L64.2131 72.5406L66 67Z" fill="#F9AB36"/>
<path d="M84 67L85.7869 72.5406L91.6085 72.5279L86.8912 75.9394L88.7023 81.4721L84 78.04L79.2977 81.4721L81.1088 75.9394L76.3915 72.5279L82.2131 72.5406L84 67Z" fill="#F9AB36"/>
<path d="M102 67L103.787 72.5406L109.608 72.5279L104.891 75.9394L106.702 81.4721L102 78.04L97.2977 81.4721L99.1088 75.9394L94.3915 72.5279L100.213 72.5406L102 67Z" fill="#F9AB36"/>
<path d="M120 67L121.787 72.5406L127.608 72.5279L122.891 75.9394L124.702 81.4721L120 78.04L115.298 81.4721L117.109 75.9394L112.392 72.5279L118.213 72.5406L120 67Z" fill="#E0E0E0"/>
<path fill-rule="evenodd" clip-rule="evenodd" d="M7.34375 23.8071C7.34375 25.9434 7.96097 28.2962 8.67099 29.7706C10.3143 33.1833 12.5417 35.432 15.8978 37.1253C20.2421 39.3172 26.7987 39.1144 30.7015 36.1802C32.6423 34.7212 34.1401 33.2431 35.1189 30.7794C35.8842 28.853 36.4529 26.0057 36.1467 23.6811C36.0998 23.3252 36.0268 22.8209 36.0206 22.5434H22.3141V26.6262H31.9379C31.9379 27.6495 31.4088 29.2002 31.0322 29.9006C30.7789 30.3719 30.5437 30.728 30.2189 31.1288C29.7835 31.6662 29.61 31.7377 29.1442 32.1926C27.9593 33.35 25.3266 34.5002 22.9945 34.5002C20.0514 34.5002 18.5392 34.1156 16.2074 32.5385C12.2299 29.8482 10.6995 24.1584 12.7171 19.4595C13.0221 18.7492 13.6629 17.5931 14.173 17.0271C15.456 15.6037 15.9678 15.0784 17.8093 14.1502C21.0802 12.5015 25.1876 12.8333 28.2443 14.8634C28.4822 15.0215 28.7045 15.1789 28.9263 15.3479C29.1958 15.5533 29.3361 15.7532 29.6048 15.9331C30.0086 15.8253 32.3456 13.3762 32.5211 13.114C32.0299 12.3805 29.4871 10.6981 28.5228 10.3077C25.838 9.22058 24.8249 9.03125 21.828 9.03125C19.7452 9.03125 17.407 9.762 15.9618 10.4557C10.9064 12.8822 7.34375 18.0427 7.34375 23.8071Z" fill="#4184F3"/>
<path fill-rule="evenodd" clip-rule="evenodd" d="M83.1687 29.1507C83.1687 26.8464 84.3638 24.8046 86.1809 23.9001C88.2995 22.8455 90.5066 23.295 91.9923 24.8959C95.0327 28.1722 93.2307 34.7889 88.6124 34.7889C85.305 34.7889 83.1687 32.146 83.1687 29.1507ZM87.6403 38.5801C89.008 38.5801 90.0312 38.5268 91.24 37.9025C92.5103 37.2465 92.6442 36.8011 93.1813 36.4415C93.1813 38.7038 93.2093 40.036 92.2519 41.4418C90.6397 43.8088 86.3498 44.2236 84.1535 41.2892C83.7754 40.784 83.6572 40.4969 83.3631 39.941C83.0449 40.1094 80.1606 41.3664 79.7663 41.3992C79.7931 42.6017 81.7988 44.6835 82.7091 45.3583C85.9095 47.7309 90.8658 47.7513 93.9189 45.3448C94.7643 44.6785 94.4991 44.8793 95.148 44.1436C96.8357 42.2303 97.2641 39.0937 97.2641 36.5387V20.1102H93.1813V21.6656C92.4945 21.2057 92.5965 20.9246 91.1416 20.2057C87.891 18.5995 83.9784 19.9936 81.6357 22.3684C80.4776 23.5423 79.6015 25.2137 79.2006 26.8353C78.0143 31.634 80.9583 36.9313 85.6386 38.2487C86.2601 38.4237 86.8992 38.5801 87.6403 38.5801Z" fill="#4184F3"/>
<path fill-rule="evenodd" clip-rule="evenodd" d="M42.0507 29.5433C42.0507 27.6692 42.2675 26.2592 43.6286 24.8998C47.0559 21.4771 52.6466 24.0447 52.6466 28.7656C52.6466 30.5679 52.338 31.9448 51.117 33.1659C47.4161 36.8668 42.0507 33.7441 42.0507 29.5433ZM37.7734 28.8628C37.7734 32.772 39.6226 35.9051 43.0223 37.6122C48.8397 40.5332 56.9238 36.938 56.9238 28.8628C56.9238 26.4799 55.8027 23.816 54.1314 22.2258L52.8419 21.1823C48.2823 17.9573 40.9769 19.5681 38.6198 25.0431C38.1772 26.0712 37.7734 27.4413 37.7734 28.8628Z" fill="#EA4335"/>
<path fill-rule="evenodd" clip-rule="evenodd" d="M67.9094 23.3219C73.7498 23.3219 75.1832 31.689 70.3415 34.2112C68.8855 34.9697 66.9669 35.0102 65.5428 34.2429C63.7081 33.2543 62.4633 30.9937 62.5765 28.9746C62.7056 26.6701 63.7609 24.7903 65.638 23.8695C66.1526 23.6171 67.193 23.3219 67.9094 23.3219ZM58.3828 28.6684C58.3828 31.8064 59.2052 33.9243 61.0803 35.7891C62.6147 37.315 64.9302 38.5838 67.3261 38.5838C69.2426 38.5838 70.4352 38.5418 72.2198 37.6449C75.4897 36.0014 77.5332 32.8113 77.5332 29.1545C77.5332 27.8057 77.1678 26.1461 76.7243 25.2C76.3441 24.389 75.9631 23.6936 75.4097 23.0151C74.8633 22.3452 74.261 21.7859 73.5474 21.2807C67.2513 16.8238 58.3828 21.366 58.3828 28.6684Z" fill="#FABC05"/>
<path fill-rule="evenodd" clip-rule="evenodd" d="M109.706 28.6699C109.706 26.3956 110.679 24.6564 112.654 23.7438C114.959 22.6784 117.699 23.6926 118.066 25.2676C117.758 25.4156 117.378 25.5434 117.024 25.684L111.878 27.8282C111.507 27.9947 110.016 28.6441 109.706 28.6699ZM114.469 38.5853C116.783 38.5853 118 38.386 119.92 37.2312C120.679 36.7745 122.627 35.1774 122.829 34.3081C121.762 33.5931 120.689 32.8845 119.622 32.1695C118.399 33.9958 116.978 34.7941 114.567 34.7941C112.542 34.7941 111.226 33.5622 110.387 31.975L113.538 30.6551C114.623 30.1996 115.649 29.7673 116.705 29.3504C117.231 29.1429 117.739 28.9343 118.288 28.6972L123.024 26.7257C122.95 25.8354 121.762 23.7432 121.123 22.8913C118.685 19.64 114.238 18.6147 110.579 20.4049C109.591 20.8881 108.62 21.5925 107.927 22.4192C107.72 22.6661 107.641 22.7041 107.427 22.9885C107.229 23.2521 107.128 23.3914 106.944 23.6715C106.186 24.8258 105.583 26.7025 105.525 28.0859C105.505 28.5754 105.404 28.669 105.425 29.1526L105.679 31.1418C105.818 31.8415 105.996 32.3238 106.233 32.9203C106.831 34.4219 107.997 35.8824 109.261 36.7947C110.688 37.8248 112.526 38.5853 114.469 38.5853Z" fill="#EA4335"/>
<path fill-rule="evenodd" clip-rule="evenodd" d="M99.5938 38.0008H103.774V10.1016H99.5938V38.0008Z" fill="#34A853"/>
</svg>
