<svg width="238" height="28" viewBox="0 0 238 28" fill="none" xmlns="http://www.w3.org/2000/svg">
<g clip-path="url(#clip0_1660_9208)">
<path fill-rule="evenodd" clip-rule="evenodd" d="M156.459 13.6016C156.459 8.31379 152.976 5.15585 147.751 5.13232C142.46 5.13232 139.045 8.61518 139.045 13.5546C139.045 18.866 142.527 22.025 147.751 22.025C153.044 22.025 156.459 18.5379 156.459 13.6016ZM153.395 13.5781C153.395 17.0171 151.234 19.3341 147.775 19.3341V19.3309C144.06 19.3074 142.109 16.781 142.109 13.5781C142.109 10.1626 144.248 7.84573 147.73 7.82219C151.446 7.84573 153.395 10.372 153.395 13.5781Z" fill="#FF0D65"/>
<path fill-rule="evenodd" clip-rule="evenodd" d="M191.68 13.6016C191.68 8.31379 188.197 5.15585 182.973 5.13232C177.68 5.13232 174.267 8.61518 174.266 13.5546C174.266 18.866 177.749 22.025 182.973 22.025C188.266 22.025 191.68 18.5379 191.68 13.6016ZM188.617 13.5781C188.617 17.0171 186.455 19.3341 182.996 19.3341L182.997 19.3309C179.282 19.3074 177.332 16.781 177.331 13.5781C177.331 10.1626 179.468 7.84573 182.952 7.82219C186.666 7.84573 188.617 10.372 188.617 13.5781Z" fill="#FF0D65"/>
<path fill-rule="evenodd" clip-rule="evenodd" d="M194.723 21.7643V5.38672H201.78C205.403 5.38672 207.26 6.74287 207.26 9.45736C207.26 11.3286 206.517 12.5693 204.845 13.2245C206.842 13.575 207.748 14.8617 207.748 16.9905C207.748 20.3836 205.333 21.7643 201.385 21.7643H194.723ZM201.363 12.3117C203.197 12.3117 204.357 11.4932 204.357 10.0889C204.357 8.77874 203.498 8.07659 201.433 8.07659H197.625V12.3117H201.363ZM201.574 19.0733C203.801 19.0733 204.825 18.3477 204.825 16.78C204.825 15.2122 203.665 14.6041 201.621 14.6041H197.628V19.0733H201.574Z" fill="#FF0D65"/>
<path fill-rule="evenodd" clip-rule="evenodd" d="M216.153 10.4865H213.946V5.38672H211.045V21.7643H216.18C220.916 21.7643 223.47 19.8449 223.47 16.0318C223.47 12.3353 221.306 10.4865 216.153 10.4865ZM213.946 19.0733V13.1774H216.408C219.241 13.1774 220.471 13.9491 220.471 15.9613C220.471 18.1842 219.078 19.0733 216.361 19.0733H213.946Z" fill="#FF0D65"/>
<path d="M229.41 14.6747H236.886L236.89 11.9837H229.413V8.07659H237.748V5.38672H226.507V21.7643H238V19.0733H229.41V14.6747Z" fill="#FF0D65"/>
<path fill-rule="evenodd" clip-rule="evenodd" d="M162.399 16.6635V21.7643H159.496V5.38672H164.905C170.035 5.38672 172.222 7.23447 172.222 10.931C172.222 14.7452 169.669 16.6635 164.905 16.6635H162.399ZM162.399 8.07659V13.9725H165.115C167.808 13.9725 169.201 13.0834 169.201 10.8616C169.201 8.84925 167.994 8.07659 165.161 8.07659H162.399Z" fill="#FF0D65"/>
<path fill-rule="evenodd" clip-rule="evenodd" d="M122.583 19.0733C123.511 16.8505 124.184 13.762 124.255 8.77874L124.301 5.38672H135.724V19.0733H137.604V24.8058H134.888V21.7643H123.534V24.8058H120.818V19.0733H122.583ZM125.416 19.0733H132.821V8.07659H126.949V8.84925C126.855 13.1304 126.341 16.5 125.416 19.0733Z" fill="#FF0D65"/>
<path d="M112.459 5.15283C109.882 5.15283 108.002 5.92444 107.073 6.60302L107.07 10.6737C108.023 9.2234 109.997 7.79679 112.457 7.84271C114.175 7.88972 115.522 8.49777 115.522 10.0185C115.522 11.2357 114.802 12.2415 112.712 12.2415H110.273V14.6513H112.734C115.265 14.6513 116.333 15.3299 116.333 16.7801C116.333 18.4419 114.755 19.284 112.781 19.3076C109.785 19.3311 107.673 18.0209 106.675 16.3591V19.9627C107.538 20.9448 109.785 22.022 112.734 21.9985C117.1 21.975 119.352 19.7992 119.352 16.9682C119.352 14.8148 118.147 13.5046 115.64 13.1306C117.521 12.452 118.519 11.1887 118.519 9.27049C118.519 6.39252 116.104 5.17637 112.459 5.15283Z" fill="#FF0D65"/>
<path d="M44.0748 18.8349C45.1301 18.8409 46.1698 18.5797 47.0974 18.0755L47.8733 17.6545L50.1388 19.327C48.644 20.9306 46.4409 21.8119 43.9172 21.8119C41.5044 21.8119 39.2993 20.9539 37.7219 19.4087C36.1445 17.8634 35.2754 15.7158 35.2754 13.3825C35.2754 11.0492 36.1573 8.93336 37.7315 7.44331C39.3057 5.95323 41.5098 5.13232 43.9394 5.13232C46.1794 5.13232 48.138 5.81429 49.6042 7.10499L49.7704 7.24606L47.2593 9.09992C46.3314 8.43516 45.2155 8.08545 44.0748 8.10192C40.9191 8.10192 38.6281 10.3588 38.6281 13.4684C38.6281 16.578 40.9191 18.8349 44.0748 18.8349Z" fill="#21A038"/>
<path fill-rule="evenodd" clip-rule="evenodd" d="M60.8665 11.6771H56.6064V8.04778H63.4061L67.0712 5.34229H53.1055V21.5955H60.4102C64.5103 21.5955 66.8615 19.7343 66.8615 16.4899C66.8658 13.3868 64.7347 11.6771 60.8665 11.6771ZM60.2567 18.8889H56.6064V14.3836H60.2567C62.4799 14.3836 63.513 15.1377 63.513 16.6364C63.513 18.1678 62.4131 18.8889 60.2567 18.8889Z" fill="#21A038"/>
<path d="M82.3926 5.34229L78.7276 8.04778H73.627V12.0218H81.1041V14.7284H73.627V18.8889H82.3926V21.5955H70.126V5.34229H82.3926Z" fill="#21A038"/>
<path fill-rule="evenodd" clip-rule="evenodd" d="M85.6514 5.3418H92.3307C96.5917 5.3418 99.2369 7.57004 99.2369 11.158C99.2369 14.7459 96.5892 16.9911 92.3281 16.9911H89.1525V21.595H85.6514V5.3418ZM89.1525 14.2845H92.255C94.4982 14.2845 95.7324 13.1773 95.7324 11.1665C95.7324 9.15564 94.4982 8.04729 92.255 8.04729H89.1525V14.2845Z" fill="#21A038"/>
<path d="M24.2 5.27588C24.8376 6.1044 25.3829 7.0097 25.8188 7.97471L13.5101 17.0938L8.36719 13.8532V9.95488L13.5101 13.1953L24.2 5.27588Z" fill="#21A038"/>
<path d="M3.12095 13.5785C3.12095 13.4036 3.1252 13.2299 3.13369 13.0571L0.0169737 12.9004C0.00636536 13.1253 0 13.3514 0 13.5785C0 17.3277 1.51168 20.7228 3.95689 23.1806L6.1666 20.9596C4.28681 19.0679 3.12095 16.4576 3.12095 13.5785Z" fill="url(#paint0_linear_1660_9208)"/>
<path d="M13.5098 3.13602C13.6838 3.13602 13.8567 3.14241 14.0285 3.15094L14.1845 0.0170613C13.9606 0.00639825 13.7357 0 13.5098 0C9.7799 0 6.40224 1.51949 3.95703 3.97733L6.16674 6.19845C8.04865 4.30682 10.6455 3.13602 13.5098 3.13602Z" fill="url(#paint1_linear_1660_9208)"/>
<path d="M13.5097 24.0209C13.3357 24.0209 13.1628 24.0166 12.9909 24.0081L12.835 27.1409C13.0588 27.1515 13.2837 27.158 13.5097 27.158C17.2395 27.158 20.6172 25.6384 23.0624 23.1806L20.8527 20.9595C18.9708 22.849 16.3739 24.0209 13.5097 24.0209Z" fill="url(#paint2_linear_1660_9208)"/>
<path d="M19.3665 4.95833L21.9942 3.01232C19.6752 1.12815 16.724 0 13.5098 0V3.13709C15.6813 3.13602 17.6979 3.80993 19.3665 4.95833Z" fill="url(#paint3_linear_1660_9208)"/>
<path d="M27.0188 13.5783C27.0188 12.7476 26.9445 11.9351 26.8023 11.145L23.8946 13.2989C23.8967 13.3917 23.8988 13.4845 23.8988 13.5772C23.8988 16.6429 22.577 19.4046 20.4766 21.3165L22.5739 23.6464C25.3034 21.1629 27.0188 17.5716 27.0188 13.5783Z" fill="#21A038"/>
<path d="M13.5096 24.021C10.4597 24.021 7.71217 22.6923 5.8101 20.5811L3.49219 22.6891C5.96392 25.4338 9.53679 27.158 13.5096 27.158V24.021Z" fill="url(#paint4_linear_1660_9208)"/>
<path d="M6.54319 5.83917L4.44593 3.50928C1.71536 5.99378 0 9.58514 0 13.5784H3.12095C3.12202 10.5118 4.44275 7.75106 6.54319 5.83917Z" fill="url(#paint5_linear_1660_9208)"/>
</g>
<defs>
<linearGradient id="paint0_linear_1660_9208" x1="4.589" y1="22.7874" x2="1.14762" y2="12.891" gradientUnits="userSpaceOnUse">
<stop offset="0.1444" stop-color="#F2E913"/>
<stop offset="0.3037" stop-color="#E7E518"/>
<stop offset="0.5823" stop-color="#CADB26"/>
<stop offset="0.891" stop-color="#A3CD39"/>
</linearGradient>
<linearGradient id="paint1_linear_1660_9208" x1="4.84899" y1="4.53188" x2="13.6428" y2="1.19798" gradientUnits="userSpaceOnUse">
<stop offset="0.0592" stop-color="#0FA8E0"/>
<stop offset="0.5385" stop-color="#0099F9"/>
<stop offset="0.9234" stop-color="#0291EB"/>
</linearGradient>
<linearGradient id="paint2_linear_1660_9208" x1="12.629" y1="25.2647" x2="22.5653" y2="23.0305" gradientUnits="userSpaceOnUse">
<stop offset="0.1226" stop-color="#A3CD39"/>
<stop offset="0.2846" stop-color="#86C339"/>
<stop offset="0.8693" stop-color="#21A038"/>
</linearGradient>
<linearGradient id="paint3_linear_1660_9208" x1="12.8568" y1="1.05073" x2="21.3555" y2="3.65946" gradientUnits="userSpaceOnUse">
<stop offset="0.0566" stop-color="#0291EB"/>
<stop offset="0.79" stop-color="#0C8ACB"/>
</linearGradient>
<linearGradient id="paint4_linear_1660_9208" x1="4.275" y1="22.3068" x2="13.5292" y2="25.7467" gradientUnits="userSpaceOnUse">
<stop offset="0.1324" stop-color="#F2E913"/>
<stop offset="0.2977" stop-color="#EBE716"/>
<stop offset="0.5306" stop-color="#D9E01F"/>
<stop offset="0.8023" stop-color="#BBD62D"/>
<stop offset="0.9829" stop-color="#A3CD39"/>
</linearGradient>
<linearGradient id="paint5_linear_1660_9208" x1="1.16316" y1="13.9584" x2="4.90663" y2="4.27029" gradientUnits="userSpaceOnUse">
<stop offset="0.0698" stop-color="#A3CD39"/>
<stop offset="0.2599" stop-color="#81C55F"/>
<stop offset="0.9216" stop-color="#0FA8E0"/>
</linearGradient>
<clipPath id="clip0_1660_9208">
<rect width="238" height="28" fill="white"/>
</clipPath>
</defs>
</svg>
