<svg width="18" height="18" viewBox="0 0 18 18" fill="none" xmlns="http://www.w3.org/2000/svg">
<path d="M17.1634 15.8367L13.4533 12.125C14.5657 10.6754 15.085 8.85687 14.906 7.03839C14.7269 5.21991 13.8629 3.53763 12.4891 2.3328C11.1153 1.12798 9.33464 0.490822 7.50834 0.550592C5.68205 0.610363 3.94687 1.36258 2.65479 2.65466C1.36272 3.94673 0.6105 5.68191 0.55073 7.50821C0.490959 9.3345 1.12811 11.1151 2.33294 12.4889C3.53777 13.8627 5.22005 14.7268 7.03853 14.9059C8.85701 15.0849 10.6755 14.5655 12.1251 13.4531L15.8384 17.1672C15.9256 17.2544 16.0292 17.3236 16.1431 17.3708C16.257 17.418 16.3792 17.4423 16.5025 17.4423C16.6258 17.4423 16.7479 17.418 16.8619 17.3708C16.9758 17.3236 17.0793 17.2544 17.1665 17.1672C17.2537 17.08 17.3229 16.9765 17.3701 16.8625C17.4173 16.7486 17.4416 16.6265 17.4416 16.5031C17.4416 16.3798 17.4173 16.2577 17.3701 16.1437C17.3229 16.0298 17.2537 15.9263 17.1665 15.8391L17.1634 15.8367ZM2.43764 7.75C2.43764 6.69929 2.74921 5.67217 3.33295 4.79853C3.9167 3.9249 4.7464 3.24398 5.71713 2.84189C6.68786 2.4398 7.75603 2.33459 8.78656 2.53958C9.81708 2.74456 10.7637 3.25053 11.5066 3.9935C12.2496 4.73646 12.7556 5.68306 12.9606 6.71358C13.1655 7.74411 13.0603 8.81227 12.6582 9.78301C12.2562 10.7537 11.5752 11.5834 10.7016 12.1672C9.82797 12.7509 8.80085 13.0625 7.75014 13.0625C6.34162 13.0611 4.9912 12.5009 3.99523 11.5049C2.99926 10.5089 2.43908 9.15852 2.43764 7.75Z" fill="#80ABFF"/>
</svg>
