<svg width="30" height="34" viewBox="0 0 30 34" fill="none" xmlns="http://www.w3.org/2000/svg">
<path fill-rule="evenodd" clip-rule="evenodd" d="M14.5475 33.5229C14.732 33.6194 14.9384 33.6684 15.1448 33.6668C15.3512 33.6651 15.5559 33.6145 15.7421 33.5164L21.6886 30.3376C23.3749 29.4387 24.6954 28.4336 25.7256 27.2634C27.9656 24.7138 29.1888 21.4599 29.167 18.1046L29.0965 7.0368C29.0898 5.76201 28.2525 4.62451 27.0142 4.21102L15.9519 0.499436C15.2858 0.273897 14.5559 0.2788 13.9015 0.510877L2.88106 4.35485C1.64948 4.78468 0.827314 5.93035 0.834025 7.20677L0.904497 18.2664C0.926309 21.6266 2.19144 24.8658 4.46835 27.3892C5.50865 28.5431 6.8409 29.5335 8.54564 30.4177L14.5475 33.5229ZM12.9733 20.515C13.2216 20.7537 13.5438 20.8713 13.8659 20.8681C14.1881 20.8664 14.5086 20.7455 14.7535 20.5036L21.252 14.097C21.7403 13.6149 21.7353 12.8402 21.242 12.3646C20.747 11.889 19.95 11.8923 19.4617 12.3744L13.8475 17.9083L11.5488 15.6986C11.0538 15.2231 10.2585 15.228 9.76851 15.7101C9.28024 16.1922 9.28527 16.9669 9.78025 17.4425L12.9733 20.515Z" fill="white"/>
</svg>
