<svg width="157" height="144" viewBox="0 0 157 144" fill="none" xmlns="http://www.w3.org/2000/svg">
<path d="M49.4259 129.823C46.1112 133.277 40.6868 128.952 43.2061 124.864L51.2223 111.856C53.3194 108.453 49.7397 104.359 46.1567 106.063L32.8309 112.4C28.5403 114.441 24.9514 108.5 28.6995 105.561L42.5847 94.6753C45.5878 92.3209 43.9138 87.4335 40.1122 87.4562L4.5837 87.6683C-0.339331 87.6977 -0.930454 80.4106 3.93387 79.6575L33.5644 75.0697C37.7444 74.4225 38.1421 68.4741 34.0885 67.2315L28.9598 65.6592C24.602 64.3233 25.4984 57.8175 30.0461 57.775L45.6242 57.6295C49.2122 57.596 50.9047 53.1354 48.271 50.654L21.5386 25.4674C17.9622 22.0979 22.3395 16.4341 26.4139 19.1594L52.5263 36.6252C55.943 38.9105 60.1095 35.1128 58.2313 31.4251L45.2859 6.00912C43.0489 1.61706 49.0531 -2.19637 51.9835 1.75531L67.4354 22.5922C69.1584 24.9157 72.6592 24.6923 74.065 22.169L81.7554 8.36603C83.6076 5.04167 88.5643 5.97528 89.1393 9.75681L90.818 20.796C91.4228 24.7735 96.766 25.5126 98.3733 21.8411L104.78 7.20664C106.703 2.81325 113.239 4.94464 112.304 9.6602L109.399 24.3058C108.618 28.2437 113.383 30.804 116.142 27.929L126.69 16.9388C130.005 13.4849 135.429 17.8098 132.91 21.8979L124.893 34.9062C122.796 38.3092 126.376 42.4026 129.959 40.6987L143.285 34.3615C147.575 32.3211 151.164 38.2623 147.416 41.2007L134.319 51.4686C131.24 53.8828 133.089 58.8938 136.981 58.682L152.46 57.8394C157.157 57.5837 158.338 64.361 153.833 65.723L136.45 70.9791C132.814 72.0786 132.644 77.2368 136.199 78.6056L152.061 84.7128C156.421 86.3917 154.883 92.9917 150.249 92.4836L131.495 90.4268C127.796 90.0211 125.642 94.5331 128.244 97.2392L141.051 110.562C144.294 113.936 140.196 119.233 136.199 116.835L120.414 107.361C117.208 105.436 113.401 108.63 114.666 112.183L121.08 130.192C122.665 134.642 116.714 137.724 114.074 133.821L104.47 119.625C102.317 116.443 97.4214 117.833 97.2313 121.68L96.3225 140.071C96.087 144.837 89.322 145.279 88.4531 140.586L85.59 125.119C84.87 121.23 79.6366 120.594 78.0565 124.203L71.3358 139.555C69.4125 143.949 62.8765 141.817 63.8119 137.102L66.717 122.456C67.4982 118.518 62.7326 115.958 59.9734 118.833L49.4259 129.823Z" fill="#F0F5F5"/>
</svg>
