<svg width="27" height="24" viewBox="0 0 27 24" fill="none" xmlns="http://www.w3.org/2000/svg">
<path fill-rule="evenodd" clip-rule="evenodd" d="M22.6442 22.3863L22.6452 22.384L22.6684 22.326L26.6667 2.16725V2.10177C26.6667 1.5995 26.4812 1.16102 26.0773 0.898011C25.7238 0.667795 25.3175 0.651399 25.0326 0.673027C24.7312 0.6959 24.447 0.771121 24.2503 0.833734C24.1491 0.865947 24.0644 0.896985 24.0038 0.920461C23.9734 0.932243 23.9488 0.942241 23.9309 0.949689L23.9133 0.957099L1.62019 9.70235L1.61405 9.70455C1.60201 9.70893 1.58609 9.71487 1.56686 9.72235C1.52852 9.73728 1.47633 9.75863 1.41503 9.78642C1.29465 9.84098 1.12834 9.92516 0.959666 10.0407C0.673195 10.2368 0.12771 10.7013 0.219819 11.4376C0.296113 12.0475 0.716518 12.4348 0.999942 12.6353C1.15187 12.7428 1.29722 12.8203 1.40366 12.871C1.45759 12.8967 1.5034 12.9164 1.53752 12.9303C1.55462 12.9372 1.56893 12.9428 1.57999 12.947L1.59416 12.9523L1.60321 12.9556L5.50354 14.2687C5.49037 14.5134 5.51464 14.7629 5.57954 15.0091L7.53325 22.4203C7.7649 23.2991 8.55987 23.9112 9.46863 23.9105C10.2832 23.9099 11.0056 23.4171 11.3126 22.6819L14.3628 19.4205L19.6014 23.4368L19.6759 23.4693C20.1519 23.677 20.5966 23.7428 21.0031 23.6872C21.4091 23.6318 21.7317 23.4615 21.9741 23.2676C22.2126 23.0768 22.376 22.8615 22.4788 22.6994C22.531 22.617 22.5699 22.5446 22.5969 22.4901C22.6105 22.4628 22.6212 22.4396 22.6292 22.4216L22.6393 22.3984L22.6428 22.3898L22.6442 22.3863ZM7.51341 14.4993C7.469 14.3308 7.53871 14.153 7.68576 14.0597L20.9151 5.65844C20.9151 5.65844 21.6932 5.18605 21.6654 5.65844C21.6654 5.65844 21.8043 5.74186 21.3873 6.13083C20.9918 6.50027 11.9584 15.2217 11.0444 16.1042C10.9916 16.1551 10.9601 16.2136 10.9415 16.2845L9.46712 21.9105L7.51341 14.4993Z" fill="#47BEF1"/>
</svg>
