<svg width="28" height="28" viewBox="0 0 28 28" fill="none" xmlns="http://www.w3.org/2000/svg">
<path fill-rule="evenodd" clip-rule="evenodd" d="M13.9993 27.3334C6.63935 27.3334 0.666016 21.3734 0.666016 14.0001C0.666016 6.64008 6.63935 0.666748 13.9993 0.666748C21.3727 0.666748 27.3327 6.64008 27.3327 14.0001C27.3327 21.3734 21.3727 27.3334 13.9993 27.3334ZM18.2527 18.9467C18.4127 19.0401 18.586 19.0934 18.7727 19.0934C19.106 19.0934 19.4393 18.9201 19.626 18.6001C19.906 18.1334 19.7593 17.5201 19.2793 17.2267L14.5327 14.4001V8.24008C14.5327 7.68008 14.0793 7.24008 13.5327 7.24008C12.986 7.24008 12.5327 7.68008 12.5327 8.24008V14.9734C12.5327 15.3201 12.7193 15.6401 13.026 15.8267L18.2527 18.9467Z" fill="white"/>
</svg>
