<svg width="54" height="28" viewBox="0 0 54 28" fill="none" xmlns="http://www.w3.org/2000/svg">
<g clip-path="url(#clip0_3032_1549)">
<path fill-rule="evenodd" clip-rule="evenodd" d="M28.0681 10.8455C28.0681 13.1925 30.2168 14.4562 31.6493 15.3588C33.2608 16.081 33.798 16.6226 33.798 17.3447C33.798 18.4279 32.5446 18.9695 31.2912 18.9695C29.3215 18.9695 28.0681 18.4279 27.1728 17.8863L26.4566 21.4969C27.3519 22.0385 29.1425 22.3996 31.1121 22.3996C35.4095 22.3996 38.2745 20.2332 38.2745 16.8031C38.2745 14.2757 36.1258 13.0119 34.5142 12.2898C33.4399 11.7482 32.3655 11.2066 32.5446 10.4845C32.5446 9.94287 33.0818 9.22074 34.3352 9.04021C34.8724 9.04021 36.4839 8.85968 38.4535 9.76234L39.1698 6.33223C38.0954 5.97116 36.842 5.6101 35.2305 5.6101C30.9331 5.42957 28.0681 7.59595 28.0681 10.8455ZM45.974 5.6101C45.2578 5.6101 44.5415 6.15169 44.1834 6.87382L37.9164 22.0385H42.2138L43.1091 19.5111H48.4808L49.018 22.0385H52.7782L49.3761 5.6101H45.974ZM47.9436 16.2615L46.6902 10.1234L44.5415 16.2615H47.9436ZM22.8754 5.6101L19.4733 22.0385H23.5917L26.9938 5.6101H22.8754ZM12.311 16.8031L16.6084 5.6101H20.9058L14.1016 22.0385H9.62509L6.22298 9.04021C6.04392 8.31808 5.86486 7.95702 5.14862 7.59595C4.07427 7.05435 2.46274 6.51276 1.03027 6.15169L1.20933 5.6101H8.37168C9.26697 5.6101 10.1623 6.15169 10.3413 7.23489L12.311 16.8031Z" fill="url(#paint0_linear_3032_1549)"/>
</g>
<defs>
<linearGradient id="paint0_linear_3032_1549" x1="20.1638" y1="23.919" x2="34.8698" y2="3.37644" gradientUnits="userSpaceOnUse">
<stop stop-color="#254AA5"/>
<stop offset="1" stop-color="#3B60BC"/>
</linearGradient>
<clipPath id="clip0_3032_1549">
<rect width="54" height="28" fill="white"/>
</clipPath>
</defs>
</svg>
