<svg width="28" height="16" viewBox="0 0 28 16" fill="none" xmlns="http://www.w3.org/2000/svg">
<path fill-rule="evenodd" clip-rule="evenodd" d="M24.3108 6.69262C24.6908 6.17661 24.9908 5.76328 25.2135 5.45128C26.8149 3.21127 27.5082 1.7806 27.2962 1.15659L27.2122 1.00993C27.1575 0.923259 27.0135 0.841925 26.7829 0.769925C26.5508 0.696591 26.2548 0.684591 25.8935 0.732592L21.8948 0.761925C21.8028 0.752592 21.7095 0.755258 21.6175 0.769925C21.5242 0.784592 21.4642 0.799258 21.4362 0.812592C21.4095 0.828592 21.3868 0.840592 21.3668 0.849925L21.3122 0.893926C21.2655 0.921926 21.2148 0.973926 21.1602 1.04726C21.1028 1.11926 21.0575 1.20459 21.0202 1.30326C20.5855 2.4806 20.0895 3.5766 19.5348 4.58861C19.1922 5.19261 18.8775 5.71661 18.5908 6.15928C18.3042 6.60328 18.0628 6.92862 17.8681 7.13795C17.6748 7.34728 17.4988 7.51528 17.3415 7.64195C17.1828 7.76862 17.0628 7.82195 16.9801 7.80329C16.8975 7.78329 16.8175 7.76462 16.7441 7.74329C16.6148 7.65662 16.5108 7.53795 16.4321 7.38595C16.3521 7.23662 16.3001 7.04595 16.2721 6.81662C16.2441 6.58861 16.2281 6.38995 16.2228 6.22461C16.2188 6.05928 16.2215 5.82595 16.2308 5.52328C16.2401 5.22194 16.2441 5.01794 16.2441 4.90994C16.2441 4.54061 16.2508 4.13794 16.2655 3.7046C16.2788 3.2726 16.2908 2.9286 16.3001 2.67527C16.3095 2.42327 16.3135 2.15393 16.3135 1.8726C16.3135 1.58993 16.2975 1.36859 16.2655 1.20726C16.2321 1.04726 16.1841 0.891259 16.1188 0.740592C16.0535 0.589924 15.9588 0.472591 15.8348 0.389924C15.7095 0.307257 15.5535 0.24059 15.3695 0.192589C14.8788 0.0752556 14.2535 0.0125887 13.4948 0.00192201C11.7735 -0.0167447 10.6668 0.100589 10.1775 0.35259C9.98278 0.46059 9.80678 0.607258 9.64945 0.791258C9.48278 1.00593 9.45878 1.12326 9.57878 1.14193C10.1361 1.22993 10.5281 1.43926 10.7601 1.76993L10.8428 1.9446C10.9081 2.0726 10.9721 2.2966 11.0375 2.61793C11.1015 2.93793 11.1441 3.29394 11.1628 3.68327C11.2095 4.39527 11.2095 5.00328 11.1628 5.50994C11.1161 6.01528 11.0735 6.40995 11.0308 6.69262C10.9881 6.97395 10.9268 7.20328 10.8441 7.37795C10.7601 7.55529 10.7041 7.66195 10.6761 7.70062C10.6481 7.73929 10.6255 7.76329 10.6068 7.77395C10.4868 7.82195 10.3615 7.84595 10.2321 7.84595C10.1028 7.84595 9.94545 7.77795 9.76012 7.64062C9.57478 7.50595 9.38278 7.31795 9.18412 7.07928C8.98545 6.84062 8.76011 6.50728 8.51078 6.07795C8.26144 5.64994 8.00144 5.14328 7.73344 4.55927L7.51078 4.13527C7.37344 3.86327 7.18277 3.46727 6.94277 2.94593C6.70144 2.4246 6.4881 1.9206 6.3041 1.43393C6.22944 1.22993 6.11744 1.07393 5.97077 0.965926L5.9001 0.921926C5.85477 0.883259 5.7801 0.841925 5.67877 0.799259C5.57743 0.753925 5.47077 0.723258 5.35877 0.703258L1.55475 0.732592C1.16542 0.732592 0.902749 0.825925 0.762748 1.00993L0.708082 1.09793C0.680081 1.14726 0.666748 1.22459 0.666748 1.33126C0.666748 1.43926 0.694748 1.56993 0.750748 1.72593C1.30542 3.09927 1.90942 4.42327 2.56142 5.69928C3.21476 6.97395 3.78143 8.00195 4.26276 8.78062C4.7441 9.56063 5.23343 10.2953 5.73477 10.9873C6.23477 11.6793 6.56544 12.1206 6.72677 12.3153C6.88944 12.5113 7.01611 12.6566 7.10811 12.754L7.45611 13.106C7.67744 13.3393 8.00411 13.6193 8.43478 13.9446C8.86411 14.2713 9.34145 14.5926 9.86545 14.9086C10.3868 15.226 10.9961 15.4833 11.6908 15.6833C12.3841 15.8833 13.0601 15.9633 13.7175 15.9247H15.3135C15.6388 15.8953 15.8841 15.7887 16.0495 15.6033L16.1055 15.53C16.1428 15.4726 16.1775 15.382 16.2095 15.2606C16.2415 15.138 16.2588 15.0046 16.2588 14.8593C16.2495 14.4406 16.2788 14.062 16.3481 13.726C16.4188 13.39 16.4961 13.138 16.5841 12.966C16.6721 12.7966 16.7721 12.6526 16.8841 12.5353C16.9948 12.418 17.0721 12.3486 17.1201 12.3246C17.1655 12.3006 17.2028 12.2833 17.2308 12.2726C17.4521 12.1953 17.7135 12.27 18.0148 12.4993C18.3162 12.7286 18.5988 13.01 18.8615 13.346C19.1255 13.6833 19.4428 14.0593 19.8135 14.478C20.1828 14.898 20.5068 15.2086 20.7842 15.414L21.0628 15.5887C21.2468 15.706 21.4882 15.8127 21.7855 15.91C22.0802 16.0073 22.3402 16.0327 22.5628 15.9833L26.1175 15.9247C26.4682 15.9247 26.7415 15.8633 26.9362 15.742C27.1295 15.6207 27.2455 15.486 27.2829 15.3406C27.3202 15.194 27.3215 15.03 27.2895 14.8433C27.2575 14.6593 27.2242 14.53 27.1935 14.458C27.1602 14.3846 27.1295 14.3233 27.1015 14.274C26.6402 13.3993 25.7548 12.322 24.4495 11.0473L24.4215 11.018L24.4082 11.002L24.3948 10.9886H24.3802C23.7882 10.394 23.4135 9.99529 23.2562 9.78996C22.9695 9.40196 22.9042 9.00596 23.0628 8.60729C23.1722 8.30462 23.5882 7.66595 24.3108 6.69262" fill="#496DC0"/>
</svg>
