<svg width="132" height="32" viewBox="0 0 132 32" fill="none" xmlns="http://www.w3.org/2000/svg">
<path d="M16 2C9.3724 2 4 7.3724 4 14C4 17.3126 5.3422 20.312 7.513 22.4834C9.6844 24.656 14.8 27.8 15.1 31.1C15.145 31.5948 15.5032 32 16 32C16.4968 32 16.855 31.5948 16.9 31.1C17.2 27.8 22.3156 24.656 24.487 22.4834C26.6578 20.312 28 17.3126 28 14C28 7.3724 22.6276 2 16 2Z" fill="#FF4433"/>
<path d="M15.9998 18.2003C18.3194 18.2003 20.1998 16.3199 20.1998 14.0003C20.1998 11.6807 18.3194 9.80029 15.9998 9.80029C13.6802 9.80029 11.7998 11.6807 11.7998 14.0003C11.7998 16.3199 13.6802 18.2003 15.9998 18.2003Z" fill="white"/>
<path d="M36.65 26L39.744 20.566C40.16 19.838 40.6453 19.3007 41.2 18.954C41.7547 18.59 42.4047 18.408 43.15 18.408H44.164L44.19 18.85C42.0927 18.85 40.472 18.356 39.328 17.368C38.184 16.38 37.612 15.0107 37.612 13.26C37.612 11.492 38.1753 10.1227 39.302 9.152C40.446 8.164 42.058 7.67 44.138 7.67H52.744V26H48.714V18.902H46.79C46.2007 18.902 45.7153 18.9973 45.334 19.188C44.9527 19.3787 44.6233 19.7167 44.346 20.202L41.07 26H36.65ZM44.84 16.016H48.714V10.764H44.84C42.5867 10.764 41.46 11.6393 41.46 13.39C41.46 15.1407 42.5867 16.016 44.84 16.016ZM56.3019 26V12.818H60.1759V17.784H65.3759V12.818H69.2499V26H65.3759V20.774H60.1759V26H56.3019ZM71.6389 29.38V23.062H73.1989C73.6669 22.282 74.0049 21.3807 74.2129 20.358C74.4209 19.3353 74.5249 18.0527 74.5249 16.51V12.818H85.1849V23.062H87.3429V29.38H84.0409V26H74.9409V29.38H71.6389ZM76.6569 23.088H81.5189V15.756H77.8009V17.472C77.8009 18.4947 77.6969 19.5173 77.4889 20.54C77.2982 21.5453 77.0209 22.3947 76.6569 23.088ZM96.2723 26.286C93.9843 26.286 92.1989 25.6707 90.9163 24.44C89.6336 23.2093 88.9923 21.5367 88.9923 19.422C88.9923 18.0527 89.2609 16.8567 89.7983 15.834C90.3529 14.8113 91.1156 14.014 92.0863 13.442C93.0743 12.8527 94.2269 12.558 95.5443 12.558C96.8443 12.558 97.9276 12.8353 98.7943 13.39C99.6783 13.9447 100.337 14.7247 100.77 15.73C101.221 16.718 101.446 17.8707 101.446 19.188V20.098H92.2163V18.148H98.5863L98.1443 18.512C98.1443 17.42 97.9189 16.5967 97.4683 16.042C97.0349 15.47 96.4023 15.184 95.5703 15.184C94.6516 15.184 93.9409 15.522 93.4383 16.198C92.9529 16.874 92.7103 17.8447 92.7103 19.11V19.526C92.7103 20.8087 93.0223 21.762 93.6463 22.386C94.2876 23.01 95.2063 23.322 96.4023 23.322C97.1129 23.322 97.7803 23.2353 98.4043 23.062C99.0456 22.8713 99.6523 22.5767 100.224 22.178L101.316 24.778C100.658 25.2633 99.8949 25.636 99.0283 25.896C98.1789 26.156 97.2603 26.286 96.2723 26.286ZM104.265 26V12.818H108.139V17.784H109.829L113.391 12.818H117.577L112.793 19.526L112.013 18.278C112.481 18.33 112.905 18.4687 113.287 18.694C113.668 18.9193 114.023 19.214 114.353 19.578C114.699 19.942 115.011 20.3753 115.289 20.878L118.097 26H113.937L111.779 22.126C111.605 21.7793 111.415 21.5107 111.207 21.32C111.016 21.112 110.799 20.9733 110.557 20.904C110.314 20.8173 110.019 20.774 109.673 20.774H108.139V26H104.265ZM126.023 26.286C124.619 26.286 123.389 26.0087 122.331 25.454C121.274 24.8993 120.459 24.102 119.887 23.062C119.315 22.022 119.029 20.7913 119.029 19.37C119.029 17.9313 119.315 16.7093 119.887 15.704C120.477 14.6813 121.291 13.9013 122.331 13.364C123.389 12.8267 124.619 12.558 126.023 12.558C126.907 12.558 127.765 12.688 128.597 12.948C129.447 13.208 130.14 13.572 130.677 14.04L129.533 16.744C129.1 16.3453 128.597 16.0507 128.025 15.86C127.471 15.652 126.933 15.548 126.413 15.548C125.356 15.548 124.533 15.8773 123.943 16.536C123.354 17.1947 123.059 18.148 123.059 19.396C123.059 20.644 123.354 21.5973 123.943 22.256C124.533 22.9147 125.356 23.244 126.413 23.244C126.916 23.244 127.445 23.1487 127.999 22.958C128.571 22.7673 129.083 22.4813 129.533 22.1L130.677 24.778C130.123 25.246 129.421 25.6187 128.571 25.896C127.739 26.156 126.89 26.286 126.023 26.286Z" fill="#E84548"/>
</svg>
