<svg width="28" height="20" viewBox="0 0 28 20" fill="none" xmlns="http://www.w3.org/2000/svg">
<path fill-rule="evenodd" clip-rule="evenodd" d="M7.31851 0.520733C11.7661 0.172776 16.234 0.172777 20.6816 0.520733L23.6692 0.754469C25.3333 0.88466 26.6946 2.13185 26.9697 3.77821C27.658 7.89754 27.658 12.1025 26.9697 16.2219C26.6946 17.8682 25.3333 19.1154 23.6692 19.2456L20.6816 19.4793C16.234 19.8273 11.7661 19.8273 7.31851 19.4793L4.33091 19.2456C2.66681 19.1154 1.30545 17.8682 1.03037 16.2219C0.342091 12.1025 0.342091 7.89754 1.03037 3.77821C1.30545 2.13185 2.66681 0.88466 4.33091 0.754469L7.31851 0.520733ZM11.3333 13.2936V6.70652C11.3333 6.3956 11.6725 6.20355 11.9391 6.36352L17.4283 9.65704C17.6873 9.8124 17.6873 10.1877 17.4283 10.343L11.9391 13.6366C11.6725 13.7965 11.3333 13.6045 11.3333 13.2936Z" fill="#E84548"/>
</svg>
